 0
SECTION
 2
HEADER
 9
$ACADVER
 1
AC1009
 0
ENDSEC
 0
SECTION
 2
TABLES
 0
TABLE
 2
LTYPE
 70
1
 0
LTYPE
 2
CONTINUOUS
 70
64
 3
solid line
 72
65
 73
0
 40
0.0
 0
ENDTAB
 0
TABLE
 2
LAYER
 70
6
 0
LAYER
 2
0
 70
0
 62
7
 6
CONTINUOUS
 0
LAYER
 2
THE_LIMITED_1
 70
64
 62
7
 6
CONTINUOUS
 0
LAYER
 2
N
 70
64
 62
7
 6
CONTINUOUS
 0
LAYER
 2
TEXT
 70
64
 62
7
 6
CONTINUOUS
 0
LAYER
 2
1
 70
64
 62
7
 6
CONTINUOUS
 0
LAYER
 2
N.1
 70
64
 62
7
 6
CONTINUOUS
 0
LAYER
 2
N.2
 70
64
 62
7
 6
CONTINUOUS
 0
LAYER
 2
CAP_1
 70
64
 62
7
 6
CONTINUOUS
 0
LAYER
 2
CAP_2
 70
64
 62
7
 6
CONTINUOUS
 0
LAYER
 2
MOUTH
 70
64
 62
18
 6
CONTINUOUS
 0
LAYER
 2
EYE
 70
64
 62
7
 6
CONTINUOUS
 0
LAYER
 2
CUBE_1
 70
64
 62
132
 6
CONTINUOUS
 0
LAYER
 2
CUBE
 70
64
 62
132
 6
CONTINUOUS
 0
LAYER
 2
HEAD_1
 70
64
 62
81
 6
CONTINUOUS
 0
LAYER
 2
BODY
 70
64
 62
81
 6
CONTINUOUS
 0
ENDTAB
 0
ENDSEC
 0
SECTION
 2
BLOCKS
 0
ENDSEC
 0
SECTION
 2
ENTITIES
 0
POLYLINE
 8
N.2
 66
1
 10
0.0
 20
0.0
 30
0.0
 70
64
 71
42
 72
21
 0
VERTEX
 8
N.2
 10
-0.0096
 20
-0.0956
 30
0.0593
 70
192
 0
VERTEX
 8
N.2
 10
-0.0166
 20
-0.0953
 30
0.0593
 70
192
 0
VERTEX
 8
N.2
 10
-0.0419
 20
-0.0942
 30
0.0984
 70
192
 0
VERTEX
 8
N.2
 10
-0.0426
 20
-0.0942
 30
0.0996
 70
192
 0
VERTEX
 8
N.2
 10
-0.043
 20
-0.0942
 30
0.1005
 70
192
 0
VERTEX
 8
N.2
 10
-0.0434
 20
-0.0941
 30
0.1015
 70
192
 0
VERTEX
 8
N.2
 10
-0.0436
 20
-0.0941
 30
0.1015
 70
192
 0
VERTEX
 8
N.2
 10
-0.0434
 20
-0.0941
 30
0.099
 70
192
 0
VERTEX
 8
N.2
 10
-0.0434
 20
-0.0941
 30
0.0947
 70
192
 0
VERTEX
 8
N.2
 10
-0.0434
 20
-0.0941
 30
0.0593
 70
192
 0
VERTEX
 8
N.2
 10
-0.0491
 20
-0.0939
 30
0.0593
 70
192
 0
VERTEX
 8
N.2
 10
-0.0491
 20
-0.0939
 30
0.1083
 70
192
 0
VERTEX
 8
N.2
 10
-0.0417
 20
-0.0942
 30
0.1083
 70
192
 0
VERTEX
 8
N.2
 10
-0.0171
 20
-0.0952
 30
0.0698
 70
192
 0
VERTEX
 8
N.2
 10
-0.0158
 20
-0.0953
 30
0.0678
 70
192
 0
VERTEX
 8
N.2
 10
-0.0151
 20
-0.0953
 30
0.0666
 70
192
 0
VERTEX
 8
N.2
 10
-0.015
 20
-0.0953
 30
0.0666
 70
192
 0
VERTEX
 8
N.2
 10
-0.0152
 20
-0.0953
 30
0.0694
 70
192
 0
VERTEX
 8
N.2
 10
-0.0153
 20
-0.0953
 30
0.0738
 70
192
 0
VERTEX
 8
N.2
 10
-0.0153
 20
-0.0953
 30
0.1083
 70
192
 0
VERTEX
 8
N.2
 10
-0.0096
 20
-0.0956
 30
0.1083
 70
192
 0
VERTEX
 8
N.2
 10
-0.0087
 20
-0.0756
 30
0.0593
 70
192
 0
VERTEX
 8
N.2
 10
-0.0158
 20
-0.0753
 30
0.0593
 70
192
 0
VERTEX
 8
N.2
 10
-0.041
 20
-0.0742
 30
0.0984
 70
192
 0
VERTEX
 8
N.2
 10
-0.0418
 20
-0.0742
 30
0.0996
 70
192
 0
VERTEX
 8
N.2
 10
-0.0422
 20
-0.0742
 30
0.1005
 70
192
 0
VERTEX
 8
N.2
 10
-0.0426
 20
-0.0742
 30
0.1015
 70
192
 0
VERTEX
 8
N.2
 10
-0.0428
 20
-0.0742
 30
0.1015
 70
192
 0
VERTEX
 8
N.2
 10
-0.0426
 20
-0.0742
 30
0.099
 70
192
 0
VERTEX
 8
N.2
 10
-0.0425
 20
-0.0742
 30
0.0947
 70
192
 0
VERTEX
 8
N.2
 10
-0.0425
 20
-0.0742
 30
0.0593
 70
192
 0
VERTEX
 8
N.2
 10
-0.0483
 20
-0.0739
 30
0.0593
 70
192
 0
VERTEX
 8
N.2
 10
-0.0483
 20
-0.0739
 30
0.1083
 70
192
 0
VERTEX
 8
N.2
 10
-0.0408
 20
-0.0742
 30
0.1083
 70
192
 0
VERTEX
 8
N.2
 10
-0.0163
 20
-0.0753
 30
0.0698
 70
192
 0
VERTEX
 8
N.2
 10
-0.015
 20
-0.0753
 30
0.0678
 70
192
 0
VERTEX
 8
N.2
 10
-0.0143
 20
-0.0753
 30
0.0666
 70
192
 0
VERTEX
 8
N.2
 10
-0.0142
 20
-0.0754
 30
0.0666
 70
192
 0
VERTEX
 8
N.2
 10
-0.0144
 20
-0.0753
 30
0.0694
 70
192
 0
VERTEX
 8
N.2
 10
-0.0145
 20
-0.0753
 30
0.0738
 70
192
 0
VERTEX
 8
N.2
 10
-0.0145
 20
-0.0753
 30
0.1083
 70
192
 0
VERTEX
 8
N.2
 10
-0.0087
 20
-0.0756
 30
0.1083
 70
192
 0
VERTEX
 8
N.2
 10
0
 20
0
 30
0
 70
128
 71
1
 72
22
 73
23
 74
2
 0
VERTEX
 8
N.2
 10
0
 20
0
 30
0
 70
128
 71
2
 72
23
 73
24
 74
3
 0
VERTEX
 8
N.2
 10
0
 20
0
 30
0
 70
128
 71
3
 72
24
 73
25
 74
4
 0
VERTEX
 8
N.2
 10
0
 20
0
 30
0
 70
128
 71
4
 72
25
 73
26
 74
5
 0
VERTEX
 8
N.2
 10
0
 20
0
 30
0
 70
128
 71
5
 72
26
 73
27
 74
6
 0
VERTEX
 8
N.2
 10
0
 20
0
 30
0
 70
128
 71
6
 72
27
 73
28
 74
7
 0
VERTEX
 8
N.2
 10
0
 20
0
 30
0
 70
128
 71
7
 72
28
 73
29
 74
8
 0
VERTEX
 8
N.2
 10
0
 20
0
 30
0
 70
128
 71
8
 72
29
 73
30
 74
9
 0
VERTEX
 8
N.2
 10
0
 20
0
 30
0
 70
128
 71
9
 72
30
 73
31
 74
10
 0
VERTEX
 8
N.2
 10
0
 20
0
 30
0
 70
128
 71
10
 72
31
 73
32
 74
11
 0
VERTEX
 8
N.2
 10
0
 20
0
 30
0
 70
128
 71
11
 72
32
 73
33
 74
12
 0
VERTEX
 8
N.2
 10
0
 20
0
 30
0
 70
128
 71
12
 72
33
 73
34
 74
13
 0
VERTEX
 8
N.2
 10
0
 20
0
 30
0
 70
128
 71
13
 72
34
 73
35
 74
14
 0
VERTEX
 8
N.2
 10
0
 20
0
 30
0
 70
128
 71
14
 72
35
 73
36
 74
15
 0
VERTEX
 8
N.2
 10
0
 20
0
 30
0
 70
128
 71
15
 72
36
 73
37
 74
16
 0
VERTEX
 8
N.2
 10
0
 20
0
 30
0
 70
128
 71
16
 72
37
 73
38
 74
17
 0
VERTEX
 8
N.2
 10
0
 20
0
 30
0
 70
128
 71
17
 72
38
 73
39
 74
18
 0
VERTEX
 8
N.2
 10
0
 20
0
 30
0
 70
128
 71
18
 72
39
 73
40
 74
19
 0
VERTEX
 8
N.2
 10
0
 20
0
 30
0
 70
128
 71
19
 72
40
 73
41
 74
20
 0
VERTEX
 8
N.2
 10
0
 20
0
 30
0
 70
128
 71
20
 72
41
 73
42
 74
21
 0
VERTEX
 8
N.2
 10
0
 20
0
 30
0
 70
128
 71
21
 72
42
 73
22
 74
1
 0
SEQEND
 0
POLYLINE
 8
CAP_1
 66
1
 10
0.0
 20
0.0
 30
0.0
 70
64
 71
21
 72
19
 0
VERTEX
 8
CAP_1
 10
-0.0096
 20
-0.0956
 30
0.0593
 70
192
 0
VERTEX
 8
CAP_1
 10
-0.0166
 20
-0.0953
 30
0.0593
 70
192
 0
VERTEX
 8
CAP_1
 10
-0.0419
 20
-0.0942
 30
0.0984
 70
192
 0
VERTEX
 8
CAP_1
 10
-0.0426
 20
-0.0942
 30
0.0996
 70
192
 0
VERTEX
 8
CAP_1
 10
-0.043
 20
-0.0942
 30
0.1005
 70
192
 0
VERTEX
 8
CAP_1
 10
-0.0434
 20
-0.0941
 30
0.1015
 70
192
 0
VERTEX
 8
CAP_1
 10
-0.0436
 20
-0.0941
 30
0.1015
 70
192
 0
VERTEX
 8
CAP_1
 10
-0.0434
 20
-0.0941
 30
0.099
 70
192
 0
VERTEX
 8
CAP_1
 10
-0.0434
 20
-0.0941
 30
0.0947
 70
192
 0
VERTEX
 8
CAP_1
 10
-0.0434
 20
-0.0941
 30
0.0593
 70
192
 0
VERTEX
 8
CAP_1
 10
-0.0491
 20
-0.0939
 30
0.0593
 70
192
 0
VERTEX
 8
CAP_1
 10
-0.0491
 20
-0.0939
 30
0.1083
 70
192
 0
VERTEX
 8
CAP_1
 10
-0.0417
 20
-0.0942
 30
0.1083
 70
192
 0
VERTEX
 8
CAP_1
 10
-0.0171
 20
-0.0952
 30
0.0698
 70
192
 0
VERTEX
 8
CAP_1
 10
-0.0158
 20
-0.0953
 30
0.0678
 70
192
 0
VERTEX
 8
CAP_1
 10
-0.0151
 20
-0.0953
 30
0.0666
 70
192
 0
VERTEX
 8
CAP_1
 10
-0.015
 20
-0.0953
 30
0.0666
 70
192
 0
VERTEX
 8
CAP_1
 10
-0.0152
 20
-0.0953
 30
0.0694
 70
192
 0
VERTEX
 8
CAP_1
 10
-0.0153
 20
-0.0953
 30
0.0738
 70
192
 0
VERTEX
 8
CAP_1
 10
-0.0153
 20
-0.0953
 30
0.1083
 70
192
 0
VERTEX
 8
CAP_1
 10
-0.0096
 20
-0.0956
 30
0.1083
 70
192
 0
VERTEX
 8
CAP_1
 10
0
 20
0
 30
0
 70
128
 71
1
 72
2
 73
17
 74
17
 0
VERTEX
 8
CAP_1
 10
0
 20
0
 30
0
 70
128
 71
1
 72
17
 73
18
 74
18
 0
VERTEX
 8
CAP_1
 10
0
 20
0
 30
0
 70
128
 71
1
 72
18
 73
19
 74
19
 0
VERTEX
 8
CAP_1
 10
0
 20
0
 30
0
 70
128
 71
1
 72
19
 73
21
 74
21
 0
VERTEX
 8
CAP_1
 10
0
 20
0
 30
0
 70
128
 71
2
 72
15
 73
16
 74
16
 0
VERTEX
 8
CAP_1
 10
0
 20
0
 30
0
 70
128
 71
2
 72
16
 73
17
 74
17
 0
VERTEX
 8
CAP_1
 10
0
 20
0
 30
0
 70
128
 71
2
 72
3
 73
14
 74
14
 0
VERTEX
 8
CAP_1
 10
0
 20
0
 30
0
 70
128
 71
2
 72
14
 73
15
 74
15
 0
VERTEX
 8
CAP_1
 10
0
 20
0
 30
0
 70
128
 71
3
 72
13
 73
14
 74
14
 0
VERTEX
 8
CAP_1
 10
0
 20
0
 30
0
 70
128
 71
3
 72
4
 73
13
 74
13
 0
VERTEX
 8
CAP_1
 10
0
 20
0
 30
0
 70
128
 71
4
 72
5
 73
13
 74
13
 0
VERTEX
 8
CAP_1
 10
0
 20
0
 30
0
 70
128
 71
5
 72
6
 73
13
 74
13
 0
VERTEX
 8
CAP_1
 10
0
 20
0
 30
0
 70
128
 71
6
 72
7
 73
13
 74
13
 0
VERTEX
 8
CAP_1
 10
0
 20
0
 30
0
 70
128
 71
7
 72
8
 73
12
 74
12
 0
VERTEX
 8
CAP_1
 10
0
 20
0
 30
0
 70
128
 71
7
 72
12
 73
13
 74
13
 0
VERTEX
 8
CAP_1
 10
0
 20
0
 30
0
 70
128
 71
8
 72
9
 73
12
 74
12
 0
VERTEX
 8
CAP_1
 10
0
 20
0
 30
0
 70
128
 71
9
 72
10
 73
11
 74
11
 0
VERTEX
 8
CAP_1
 10
0
 20
0
 30
0
 70
128
 71
9
 72
11
 73
12
 74
12
 0
VERTEX
 8
CAP_1
 10
0
 20
0
 30
0
 70
128
 71
19
 72
20
 73
21
 74
21
 0
SEQEND
 0
POLYLINE
 8
CAP_2
 66
1
 10
0.0
 20
0.0
 30
0.0
 70
64
 71
21
 72
19
 0
VERTEX
 8
CAP_2
 10
-0.0087
 20
-0.0756
 30
0.0593
 70
192
 0
VERTEX
 8
CAP_2
 10
-0.0158
 20
-0.0753
 30
0.0593
 70
192
 0
VERTEX
 8
CAP_2
 10
-0.041
 20
-0.0742
 30
0.0984
 70
192
 0
VERTEX
 8
CAP_2
 10
-0.0418
 20
-0.0742
 30
0.0996
 70
192
 0
VERTEX
 8
CAP_2
 10
-0.0422
 20
-0.0742
 30
0.1005
 70
192
 0
VERTEX
 8
CAP_2
 10
-0.0426
 20
-0.0742
 30
0.1015
 70
192
 0
VERTEX
 8
CAP_2
 10
-0.0428
 20
-0.0742
 30
0.1015
 70
192
 0
VERTEX
 8
CAP_2
 10
-0.0426
 20
-0.0742
 30
0.099
 70
192
 0
VERTEX
 8
CAP_2
 10
-0.0425
 20
-0.0742
 30
0.0947
 70
192
 0
VERTEX
 8
CAP_2
 10
-0.0425
 20
-0.0742
 30
0.0593
 70
192
 0
VERTEX
 8
CAP_2
 10
-0.0483
 20
-0.0739
 30
0.0593
 70
192
 0
VERTEX
 8
CAP_2
 10
-0.0483
 20
-0.0739
 30
0.1083
 70
192
 0
VERTEX
 8
CAP_2
 10
-0.0408
 20
-0.0742
 30
0.1083
 70
192
 0
VERTEX
 8
CAP_2
 10
-0.0163
 20
-0.0753
 30
0.0698
 70
192
 0
VERTEX
 8
CAP_2
 10
-0.015
 20
-0.0753
 30
0.0678
 70
192
 0
VERTEX
 8
CAP_2
 10
-0.0143
 20
-0.0753
 30
0.0666
 70
192
 0
VERTEX
 8
CAP_2
 10
-0.0142
 20
-0.0754
 30
0.0666
 70
192
 0
VERTEX
 8
CAP_2
 10
-0.0144
 20
-0.0753
 30
0.0694
 70
192
 0
VERTEX
 8
CAP_2
 10
-0.0145
 20
-0.0753
 30
0.0738
 70
192
 0
VERTEX
 8
CAP_2
 10
-0.0145
 20
-0.0753
 30
0.1083
 70
192
 0
VERTEX
 8
CAP_2
 10
-0.0087
 20
-0.0756
 30
0.1083
 70
192
 0
VERTEX
 8
CAP_2
 10
0
 20
0
 30
0
 70
128
 71
21
 72
20
 73
19
 74
19
 0
VERTEX
 8
CAP_2
 10
0
 20
0
 30
0
 70
128
 71
21
 72
19
 73
1
 74
1
 0
VERTEX
 8
CAP_2
 10
0
 20
0
 30
0
 70
128
 71
19
 72
18
 73
1
 74
1
 0
VERTEX
 8
CAP_2
 10
0
 20
0
 30
0
 70
128
 71
18
 72
17
 73
1
 74
1
 0
VERTEX
 8
CAP_2
 10
0
 20
0
 30
0
 70
128
 71
17
 72
16
 73
2
 74
2
 0
VERTEX
 8
CAP_2
 10
0
 20
0
 30
0
 70
128
 71
17
 72
2
 73
1
 74
1
 0
VERTEX
 8
CAP_2
 10
0
 20
0
 30
0
 70
128
 71
16
 72
15
 73
2
 74
2
 0
VERTEX
 8
CAP_2
 10
0
 20
0
 30
0
 70
128
 71
15
 72
14
 73
2
 74
2
 0
VERTEX
 8
CAP_2
 10
0
 20
0
 30
0
 70
128
 71
14
 72
13
 73
3
 74
3
 0
VERTEX
 8
CAP_2
 10
0
 20
0
 30
0
 70
128
 71
14
 72
3
 73
2
 74
2
 0
VERTEX
 8
CAP_2
 10
0
 20
0
 30
0
 70
128
 71
13
 72
12
 73
7
 74
7
 0
VERTEX
 8
CAP_2
 10
0
 20
0
 30
0
 70
128
 71
13
 72
7
 73
6
 74
6
 0
VERTEX
 8
CAP_2
 10
0
 20
0
 30
0
 70
128
 71
13
 72
6
 73
5
 74
5
 0
VERTEX
 8
CAP_2
 10
0
 20
0
 30
0
 70
128
 71
13
 72
5
 73
4
 74
4
 0
VERTEX
 8
CAP_2
 10
0
 20
0
 30
0
 70
128
 71
13
 72
4
 73
3
 74
3
 0
VERTEX
 8
CAP_2
 10
0
 20
0
 30
0
 70
128
 71
12
 72
11
 73
9
 74
9
 0
VERTEX
 8
CAP_2
 10
0
 20
0
 30
0
 70
128
 71
12
 72
9
 73
8
 74
8
 0
VERTEX
 8
CAP_2
 10
0
 20
0
 30
0
 70
128
 71
12
 72
8
 73
7
 74
7
 0
VERTEX
 8
CAP_2
 10
0
 20
0
 30
0
 70
128
 71
11
 72
10
 73
9
 74
9
 0
SEQEND
 0
POLYLINE
 8
MOUTH
 66
1
 10
0.0
 20
0.0
 30
0.0
 70
64
 71
84
 72
82
 0
VERTEX
 8
MOUTH
 10
-0.0866
 20
-0.1239
 30
0.1889
 70
192
 0
VERTEX
 8
MOUTH
 10
-0.0862
 20
-0.1142
 30
0.1889
 70
192
 0
VERTEX
 8
MOUTH
 10
-0.0811
 20
-0.1237
 30
0.1856
 70
192
 0
VERTEX
 8
MOUTH
 10
-0.0807
 20
-0.1148
 30
0.1856
 70
192
 0
VERTEX
 8
MOUTH
 10
-0.0755
 20
-0.1236
 30
0.1826
 70
192
 0
VERTEX
 8
MOUTH
 10
-0.0752
 20
-0.1154
 30
0.1826
 70
192
 0
VERTEX
 8
MOUTH
 10
-0.07
 20
-0.1235
 30
0.18
 70
192
 0
VERTEX
 8
MOUTH
 10
-0.0697
 20
-0.1159
 30
0.18
 70
192
 0
VERTEX
 8
MOUTH
 10
-0.0644
 20
-0.1235
 30
0.1778
 70
192
 0
VERTEX
 8
MOUTH
 10
-0.0641
 20
-0.1164
 30
0.1778
 70
192
 0
VERTEX
 8
MOUTH
 10
-0.0589
 20
-0.1235
 30
0.1759
 70
192
 0
VERTEX
 8
MOUTH
 10
-0.0586
 20
-0.1169
 30
0.1759
 70
192
 0
VERTEX
 8
MOUTH
 10
-0.0533
 20
-0.1235
 30
0.1744
 70
192
 0
VERTEX
 8
MOUTH
 10
-0.053
 20
-0.1173
 30
0.1744
 70
192
 0
VERTEX
 8
MOUTH
 10
-0.0478
 20
-0.1236
 30
0.1733
 70
192
 0
VERTEX
 8
MOUTH
 10
-0.0475
 20
-0.1176
 30
0.1733
 70
192
 0
VERTEX
 8
MOUTH
 10
-0.0422
 20
-0.1238
 30
0.1726
 70
192
 0
VERTEX
 8
MOUTH
 10
-0.042
 20
-0.118
 30
0.1726
 70
192
 0
VERTEX
 8
MOUTH
 10
-0.0367
 20
-0.124
 30
0.1722
 70
192
 0
VERTEX
 8
MOUTH
 10
-0.0364
 20
-0.1182
 30
0.1722
 70
192
 0
VERTEX
 8
MOUTH
 10
-0.0311
 20
-0.1242
 30
0.1722
 70
192
 0
VERTEX
 8
MOUTH
 10
-0.0309
 20
-0.1185
 30
0.1722
 70
192
 0
VERTEX
 8
MOUTH
 10
-0.0256
 20
-0.1245
 30
0.1725
 70
192
 0
VERTEX
 8
MOUTH
 10
-0.0253
 20
-0.1187
 30
0.1725
 70
192
 0
VERTEX
 8
MOUTH
 10
-0.02
 20
-0.1248
 30
0.1732
 70
192
 0
VERTEX
 8
MOUTH
 10
-0.0198
 20
-0.1188
 30
0.1732
 70
192
 0
VERTEX
 8
MOUTH
 10
-0.0145
 20
-0.1252
 30
0.1743
 70
192
 0
VERTEX
 8
MOUTH
 10
-0.0142
 20
-0.1189
 30
0.1743
 70
192
 0
VERTEX
 8
MOUTH
 10
-0.009
 20
-0.1256
 30
0.1758
 70
192
 0
VERTEX
 8
MOUTH
 10
-0.0087
 20
-0.119
 30
0.1758
 70
192
 0
VERTEX
 8
MOUTH
 10
-0.0034
 20
-0.126
 30
0.1776
 70
192
 0
VERTEX
 8
MOUTH
 10
-0.0031
 20
-0.119
 30
0.1776
 70
192
 0
VERTEX
 8
MOUTH
 10
0.0021
 20
-0.1265
 30
0.1798
 70
192
 0
VERTEX
 8
MOUTH
 10
0.0024
 20
-0.119
 30
0.1798
 70
192
 0
VERTEX
 8
MOUTH
 10
0.0076
 20
-0.127
 30
0.1823
 70
192
 0
VERTEX
 8
MOUTH
 10
0.008
 20
-0.1189
 30
0.1823
 70
192
 0
VERTEX
 8
MOUTH
 10
0.0132
 20
-0.1276
 30
0.1853
 70
192
 0
VERTEX
 8
MOUTH
 10
0.0135
 20
-0.1188
 30
0.1853
 70
192
 0
VERTEX
 8
MOUTH
 10
0.0187
 20
-0.1282
 30
0.1886
 70
192
 0
VERTEX
 8
MOUTH
 10
0.0191
 20
-0.1186
 30
0.1886
 70
192
 0
VERTEX
 8
MOUTH
 10
0.0242
 20
-0.1289
 30
0.1922
 70
192
 0
VERTEX
 8
MOUTH
 10
0.0247
 20
-0.1184
 30
0.1922
 70
192
 0
VERTEX
 8
MOUTH
 10
0.0242
 20
-0.1289
 30
0.1801
 70
192
 0
VERTEX
 8
MOUTH
 10
0.0247
 20
-0.1184
 30
0.1801
 70
192
 0
VERTEX
 8
MOUTH
 10
0.0187
 20
-0.1282
 30
0.1774
 70
192
 0
VERTEX
 8
MOUTH
 10
0.0191
 20
-0.1186
 30
0.1774
 70
192
 0
VERTEX
 8
MOUTH
 10
0.0132
 20
-0.1276
 30
0.175
 70
192
 0
VERTEX
 8
MOUTH
 10
0.0135
 20
-0.1188
 30
0.175
 70
192
 0
VERTEX
 8
MOUTH
 10
0.0076
 20
-0.127
 30
0.1729
 70
192
 0
VERTEX
 8
MOUTH
 10
0.008
 20
-0.1189
 30
0.1729
 70
192
 0
VERTEX
 8
MOUTH
 10
0.0021
 20
-0.1265
 30
0.171
 70
192
 0
VERTEX
 8
MOUTH
 10
0.0024
 20
-0.119
 30
0.171
 70
192
 0
VERTEX
 8
MOUTH
 10
-0.0034
 20
-0.126
 30
0.1694
 70
192
 0
VERTEX
 8
MOUTH
 10
-0.0031
 20
-0.119
 30
0.1694
 70
192
 0
VERTEX
 8
MOUTH
 10
-0.009
 20
-0.1256
 30
0.1681
 70
192
 0
VERTEX
 8
MOUTH
 10
-0.0087
 20
-0.119
 30
0.1681
 70
192
 0
VERTEX
 8
MOUTH
 10
-0.0145
 20
-0.1252
 30
0.1671
 70
192
 0
VERTEX
 8
MOUTH
 10
-0.0142
 20
-0.1189
 30
0.1671
 70
192
 0
VERTEX
 8
MOUTH
 10
-0.02
 20
-0.1248
 30
0.1663
 70
192
 0
VERTEX
 8
MOUTH
 10
-0.0198
 20
-0.1188
 30
0.1663
 70
192
 0
VERTEX
 8
MOUTH
 10
-0.0256
 20
-0.1245
 30
0.1657
 70
192
 0
VERTEX
 8
MOUTH
 10
-0.0253
 20
-0.1187
 30
0.1657
 70
192
 0
VERTEX
 8
MOUTH
 10
-0.0311
 20
-0.1242
 30
0.1655
 70
192
 0
VERTEX
 8
MOUTH
 10
-0.0309
 20
-0.1185
 30
0.1655
 70
192
 0
VERTEX
 8
MOUTH
 10
-0.0367
 20
-0.124
 30
0.1655
 70
192
 0
VERTEX
 8
MOUTH
 10
-0.0364
 20
-0.1182
 30
0.1655
 70
192
 0
VERTEX
 8
MOUTH
 10
-0.0422
 20
-0.1238
 30
0.1658
 70
192
 0
VERTEX
 8
MOUTH
 10
-0.042
 20
-0.118
 30
0.1658
 70
192
 0
VERTEX
 8
MOUTH
 10
-0.0478
 20
-0.1236
 30
0.1663
 70
192
 0
VERTEX
 8
MOUTH
 10
-0.0475
 20
-0.1176
 30
0.1663
 70
192
 0
VERTEX
 8
MOUTH
 10
-0.0533
 20
-0.1235
 30
0.1671
 70
192
 0
VERTEX
 8
MOUTH
 10
-0.053
 20
-0.1173
 30
0.1671
 70
192
 0
VERTEX
 8
MOUTH
 10
-0.0589
 20
-0.1235
 30
0.1682
 70
192
 0
VERTEX
 8
MOUTH
 10
-0.0586
 20
-0.1169
 30
0.1682
 70
192
 0
VERTEX
 8
MOUTH
 10
-0.0644
 20
-0.1235
 30
0.1696
 70
192
 0
VERTEX
 8
MOUTH
 10
-0.0641
 20
-0.1164
 30
0.1696
 70
192
 0
VERTEX
 8
MOUTH
 10
-0.07
 20
-0.1235
 30
0.1712
 70
192
 0
VERTEX
 8
MOUTH
 10
-0.0697
 20
-0.1159
 30
0.1712
 70
192
 0
VERTEX
 8
MOUTH
 10
-0.0755
 20
-0.1236
 30
0.1731
 70
192
 0
VERTEX
 8
MOUTH
 10
-0.0752
 20
-0.1154
 30
0.1731
 70
192
 0
VERTEX
 8
MOUTH
 10
-0.0811
 20
-0.1237
 30
0.1752
 70
192
 0
VERTEX
 8
MOUTH
 10
-0.0807
 20
-0.1148
 30
0.1752
 70
192
 0
VERTEX
 8
MOUTH
 10
-0.0866
 20
-0.1239
 30
0.1777
 70
192
 0
VERTEX
 8
MOUTH
 10
-0.0862
 20
-0.1142
 30
0.1777
 70
192
 0
VERTEX
 8
MOUTH
 10
0
 20
0
 30
0
 70
128
 71
1
 72
2
 73
4
 74
3
 0
VERTEX
 8
MOUTH
 10
0
 20
0
 30
0
 70
128
 71
3
 72
4
 73
6
 74
5
 0
VERTEX
 8
MOUTH
 10
0
 20
0
 30
0
 70
128
 71
5
 72
6
 73
8
 74
7
 0
VERTEX
 8
MOUTH
 10
0
 20
0
 30
0
 70
128
 71
7
 72
8
 73
10
 74
9
 0
VERTEX
 8
MOUTH
 10
0
 20
0
 30
0
 70
128
 71
9
 72
10
 73
12
 74
11
 0
VERTEX
 8
MOUTH
 10
0
 20
0
 30
0
 70
128
 71
11
 72
12
 73
14
 74
13
 0
VERTEX
 8
MOUTH
 10
0
 20
0
 30
0
 70
128
 71
13
 72
14
 73
16
 74
15
 0
VERTEX
 8
MOUTH
 10
0
 20
0
 30
0
 70
128
 71
15
 72
16
 73
18
 74
17
 0
VERTEX
 8
MOUTH
 10
0
 20
0
 30
0
 70
128
 71
17
 72
18
 73
20
 74
19
 0
VERTEX
 8
MOUTH
 10
0
 20
0
 30
0
 70
128
 71
19
 72
20
 73
22
 74
21
 0
VERTEX
 8
MOUTH
 10
0
 20
0
 30
0
 70
128
 71
21
 72
22
 73
24
 74
23
 0
VERTEX
 8
MOUTH
 10
0
 20
0
 30
0
 70
128
 71
23
 72
24
 73
26
 74
25
 0
VERTEX
 8
MOUTH
 10
0
 20
0
 30
0
 70
128
 71
25
 72
26
 73
28
 74
27
 0
VERTEX
 8
MOUTH
 10
0
 20
0
 30
0
 70
128
 71
27
 72
28
 73
30
 74
29
 0
VERTEX
 8
MOUTH
 10
0
 20
0
 30
0
 70
128
 71
29
 72
30
 73
32
 74
31
 0
VERTEX
 8
MOUTH
 10
0
 20
0
 30
0
 70
128
 71
31
 72
32
 73
34
 74
33
 0
VERTEX
 8
MOUTH
 10
0
 20
0
 30
0
 70
128
 71
33
 72
34
 73
36
 74
35
 0
VERTEX
 8
MOUTH
 10
0
 20
0
 30
0
 70
128
 71
35
 72
36
 73
38
 74
37
 0
VERTEX
 8
MOUTH
 10
0
 20
0
 30
0
 70
128
 71
37
 72
38
 73
40
 74
39
 0
VERTEX
 8
MOUTH
 10
0
 20
0
 30
0
 70
128
 71
39
 72
40
 73
42
 74
41
 0
VERTEX
 8
MOUTH
 10
0
 20
0
 30
0
 70
128
 71
41
 72
42
 73
44
 74
43
 0
VERTEX
 8
MOUTH
 10
0
 20
0
 30
0
 70
128
 71
43
 72
44
 73
46
 74
45
 0
VERTEX
 8
MOUTH
 10
0
 20
0
 30
0
 70
128
 71
45
 72
46
 73
48
 74
47
 0
VERTEX
 8
MOUTH
 10
0
 20
0
 30
0
 70
128
 71
47
 72
48
 73
50
 74
49
 0
VERTEX
 8
MOUTH
 10
0
 20
0
 30
0
 70
128
 71
49
 72
50
 73
52
 74
51
 0
VERTEX
 8
MOUTH
 10
0
 20
0
 30
0
 70
128
 71
51
 72
52
 73
54
 74
53
 0
VERTEX
 8
MOUTH
 10
0
 20
0
 30
0
 70
128
 71
53
 72
54
 73
56
 74
55
 0
VERTEX
 8
MOUTH
 10
0
 20
0
 30
0
 70
128
 71
55
 72
56
 73
58
 74
57
 0
VERTEX
 8
MOUTH
 10
0
 20
0
 30
0
 70
128
 71
57
 72
58
 73
60
 74
59
 0
VERTEX
 8
MOUTH
 10
0
 20
0
 30
0
 70
128
 71
59
 72
60
 73
62
 74
61
 0
VERTEX
 8
MOUTH
 10
0
 20
0
 30
0
 70
128
 71
61
 72
62
 73
64
 74
63
 0
VERTEX
 8
MOUTH
 10
0
 20
0
 30
0
 70
128
 71
63
 72
64
 73
66
 74
65
 0
VERTEX
 8
MOUTH
 10
0
 20
0
 30
0
 70
128
 71
65
 72
66
 73
68
 74
67
 0
VERTEX
 8
MOUTH
 10
0
 20
0
 30
0
 70
128
 71
67
 72
68
 73
70
 74
69
 0
VERTEX
 8
MOUTH
 10
0
 20
0
 30
0
 70
128
 71
69
 72
70
 73
72
 74
71
 0
VERTEX
 8
MOUTH
 10
0
 20
0
 30
0
 70
128
 71
71
 72
72
 73
74
 74
73
 0
VERTEX
 8
MOUTH
 10
0
 20
0
 30
0
 70
128
 71
73
 72
74
 73
76
 74
75
 0
VERTEX
 8
MOUTH
 10
0
 20
0
 30
0
 70
128
 71
75
 72
76
 73
78
 74
77
 0
VERTEX
 8
MOUTH
 10
0
 20
0
 30
0
 70
128
 71
77
 72
78
 73
80
 74
79
 0
VERTEX
 8
MOUTH
 10
0
 20
0
 30
0
 70
128
 71
79
 72
80
 73
82
 74
81
 0
VERTEX
 8
MOUTH
 10
0
 20
0
 30
0
 70
128
 71
81
 72
82
 73
84
 74
83
 0
VERTEX
 8
MOUTH
 10
0
 20
0
 30
0
 70
128
 71
83
 72
84
 73
2
 74
1
 0
VERTEX
 8
MOUTH
 10
0
 20
0
 30
0
 70
128
 71
2
 72
84
 73
82
 74
4
 0
VERTEX
 8
MOUTH
 10
0
 20
0
 30
0
 70
128
 71
4
 72
82
 73
80
 74
6
 0
VERTEX
 8
MOUTH
 10
0
 20
0
 30
0
 70
128
 71
6
 72
80
 73
78
 74
8
 0
VERTEX
 8
MOUTH
 10
0
 20
0
 30
0
 70
128
 71
8
 72
78
 73
76
 74
10
 0
VERTEX
 8
MOUTH
 10
0
 20
0
 30
0
 70
128
 71
10
 72
76
 73
74
 74
12
 0
VERTEX
 8
MOUTH
 10
0
 20
0
 30
0
 70
128
 71
12
 72
74
 73
72
 74
14
 0
VERTEX
 8
MOUTH
 10
0
 20
0
 30
0
 70
128
 71
14
 72
72
 73
70
 74
16
 0
VERTEX
 8
MOUTH
 10
0
 20
0
 30
0
 70
128
 71
16
 72
70
 73
68
 74
18
 0
VERTEX
 8
MOUTH
 10
0
 20
0
 30
0
 70
128
 71
18
 72
68
 73
66
 74
20
 0
VERTEX
 8
MOUTH
 10
0
 20
0
 30
0
 70
128
 71
20
 72
66
 73
64
 74
22
 0
VERTEX
 8
MOUTH
 10
0
 20
0
 30
0
 70
128
 71
22
 72
64
 73
62
 74
24
 0
VERTEX
 8
MOUTH
 10
0
 20
0
 30
0
 70
128
 71
24
 72
62
 73
60
 74
26
 0
VERTEX
 8
MOUTH
 10
0
 20
0
 30
0
 70
128
 71
26
 72
60
 73
58
 74
28
 0
VERTEX
 8
MOUTH
 10
0
 20
0
 30
0
 70
128
 71
28
 72
58
 73
56
 74
30
 0
VERTEX
 8
MOUTH
 10
0
 20
0
 30
0
 70
128
 71
30
 72
56
 73
54
 74
32
 0
VERTEX
 8
MOUTH
 10
0
 20
0
 30
0
 70
128
 71
32
 72
54
 73
52
 74
34
 0
VERTEX
 8
MOUTH
 10
0
 20
0
 30
0
 70
128
 71
34
 72
52
 73
50
 74
36
 0
VERTEX
 8
MOUTH
 10
0
 20
0
 30
0
 70
128
 71
36
 72
50
 73
48
 74
38
 0
VERTEX
 8
MOUTH
 10
0
 20
0
 30
0
 70
128
 71
38
 72
48
 73
46
 74
40
 0
VERTEX
 8
MOUTH
 10
0
 20
0
 30
0
 70
128
 71
40
 72
46
 73
44
 74
42
 0
VERTEX
 8
MOUTH
 10
0
 20
0
 30
0
 70
128
 71
83
 72
1
 73
3
 74
81
 0
VERTEX
 8
MOUTH
 10
0
 20
0
 30
0
 70
128
 71
81
 72
3
 73
5
 74
79
 0
VERTEX
 8
MOUTH
 10
0
 20
0
 30
0
 70
128
 71
79
 72
5
 73
7
 74
77
 0
VERTEX
 8
MOUTH
 10
0
 20
0
 30
0
 70
128
 71
77
 72
7
 73
9
 74
75
 0
VERTEX
 8
MOUTH
 10
0
 20
0
 30
0
 70
128
 71
75
 72
9
 73
11
 74
73
 0
VERTEX
 8
MOUTH
 10
0
 20
0
 30
0
 70
128
 71
73
 72
11
 73
13
 74
71
 0
VERTEX
 8
MOUTH
 10
0
 20
0
 30
0
 70
128
 71
71
 72
13
 73
15
 74
69
 0
VERTEX
 8
MOUTH
 10
0
 20
0
 30
0
 70
128
 71
69
 72
15
 73
17
 74
67
 0
VERTEX
 8
MOUTH
 10
0
 20
0
 30
0
 70
128
 71
67
 72
17
 73
19
 74
65
 0
VERTEX
 8
MOUTH
 10
0
 20
0
 30
0
 70
128
 71
65
 72
19
 73
21
 74
63
 0
VERTEX
 8
MOUTH
 10
0
 20
0
 30
0
 70
128
 71
63
 72
21
 73
23
 74
61
 0
VERTEX
 8
MOUTH
 10
0
 20
0
 30
0
 70
128
 71
61
 72
23
 73
25
 74
59
 0
VERTEX
 8
MOUTH
 10
0
 20
0
 30
0
 70
128
 71
59
 72
25
 73
27
 74
57
 0
VERTEX
 8
MOUTH
 10
0
 20
0
 30
0
 70
128
 71
57
 72
27
 73
29
 74
55
 0
VERTEX
 8
MOUTH
 10
0
 20
0
 30
0
 70
128
 71
55
 72
29
 73
31
 74
53
 0
VERTEX
 8
MOUTH
 10
0
 20
0
 30
0
 70
128
 71
53
 72
31
 73
33
 74
51
 0
VERTEX
 8
MOUTH
 10
0
 20
0
 30
0
 70
128
 71
51
 72
33
 73
35
 74
49
 0
VERTEX
 8
MOUTH
 10
0
 20
0
 30
0
 70
128
 71
49
 72
35
 73
37
 74
47
 0
VERTEX
 8
MOUTH
 10
0
 20
0
 30
0
 70
128
 71
47
 72
37
 73
39
 74
45
 0
VERTEX
 8
MOUTH
 10
0
 20
0
 30
0
 70
128
 71
45
 72
39
 73
41
 74
43
 0
SEQEND
 0
POLYLINE
 8
CUBE_1
 66
1
 10
0.0
 20
0.0
 30
0.0
 70
64
 71
248
 72
266
 0
VERTEX
 8
CUBE_1
 10
0.0257
 20
-0.125
 30
0.1996
 70
192
 0
VERTEX
 8
CUBE_1
 10
0.029
 20
-0.1251
 30
0.1996
 70
192
 0
VERTEX
 8
CUBE_1
 10
0.0291
 20
-0.1231
 30
0.1996
 70
192
 0
VERTEX
 8
CUBE_1
 10
0.0258
 20
-0.1229
 30
0.1996
 70
192
 0
VERTEX
 8
CUBE_1
 10
0.0256
 20
-0.1264
 30
0.2
 70
192
 0
VERTEX
 8
CUBE_1
 10
0.029
 20
-0.1265
 30
0.2
 70
192
 0
VERTEX
 8
CUBE_1
 10
0.0297
 20
-0.1265
 30
0.2
 70
192
 0
VERTEX
 8
CUBE_1
 10
0.0303
 20
-0.1263
 30
0.2
 70
192
 0
VERTEX
 8
CUBE_1
 10
0.0308
 20
-0.126
 30
0.2
 70
192
 0
VERTEX
 8
CUBE_1
 10
0.0312
 20
-0.1257
 30
0.2
 70
192
 0
VERTEX
 8
CUBE_1
 10
0.0313
 20
-0.1252
 30
0.2
 70
192
 0
VERTEX
 8
CUBE_1
 10
0.0314
 20
-0.1232
 30
0.2
 70
192
 0
VERTEX
 8
CUBE_1
 10
0.0313
 20
-0.1227
 30
0.2
 70
192
 0
VERTEX
 8
CUBE_1
 10
0.031
 20
-0.1223
 30
0.2
 70
192
 0
VERTEX
 8
CUBE_1
 10
0.0305
 20
-0.122
 30
0.2
 70
192
 0
VERTEX
 8
CUBE_1
 10
0.0299
 20
-0.1218
 30
0.2
 70
192
 0
VERTEX
 8
CUBE_1
 10
0.0292
 20
-0.1217
 30
0.2
 70
192
 0
VERTEX
 8
CUBE_1
 10
0.0258
 20
-0.1215
 30
0.2
 70
192
 0
VERTEX
 8
CUBE_1
 10
0.0251
 20
-0.1216
 30
0.2
 70
192
 0
VERTEX
 8
CUBE_1
 10
0.0245
 20
-0.1217
 30
0.2
 70
192
 0
VERTEX
 8
CUBE_1
 10
0.024
 20
-0.122
 30
0.2
 70
192
 0
VERTEX
 8
CUBE_1
 10
0.0236
 20
-0.1224
 30
0.2
 70
192
 0
VERTEX
 8
CUBE_1
 10
0.0235
 20
-0.1228
 30
0.2
 70
192
 0
VERTEX
 8
CUBE_1
 10
0.0234
 20
-0.1249
 30
0.2
 70
192
 0
VERTEX
 8
CUBE_1
 10
0.0235
 20
-0.1253
 30
0.2
 70
192
 0
VERTEX
 8
CUBE_1
 10
0.0238
 20
-0.1257
 30
0.2
 70
192
 0
VERTEX
 8
CUBE_1
 10
0.0243
 20
-0.1261
 30
0.2
 70
192
 0
VERTEX
 8
CUBE_1
 10
0.0249
 20
-0.1263
 30
0.2
 70
192
 0
VERTEX
 8
CUBE_1
 10
0.0256
 20
-0.1277
 30
0.201
 70
192
 0
VERTEX
 8
CUBE_1
 10
0.0289
 20
-0.1278
 30
0.201
 70
192
 0
VERTEX
 8
CUBE_1
 10
0.0303
 20
-0.1277
 30
0.201
 70
192
 0
VERTEX
 8
CUBE_1
 10
0.0315
 20
-0.1274
 30
0.201
 70
192
 0
VERTEX
 8
CUBE_1
 10
0.0325
 20
-0.1269
 30
0.201
 70
192
 0
VERTEX
 8
CUBE_1
 10
0.0331
 20
-0.1261
 30
0.201
 70
192
 0
VERTEX
 8
CUBE_1
 10
0.0334
 20
-0.1253
 30
0.201
 70
192
 0
VERTEX
 8
CUBE_1
 10
0.0334
 20
-0.1233
 30
0.201
 70
192
 0
VERTEX
 8
CUBE_1
 10
0.0333
 20
-0.1224
 30
0.201
 70
192
 0
VERTEX
 8
CUBE_1
 10
0.0327
 20
-0.1217
 30
0.201
 70
192
 0
VERTEX
 8
CUBE_1
 10
0.0318
 20
-0.121
 30
0.201
 70
192
 0
VERTEX
 8
CUBE_1
 10
0.0306
 20
-0.1206
 30
0.201
 70
192
 0
VERTEX
 8
CUBE_1
 10
0.0292
 20
-0.1204
 30
0.201
 70
192
 0
VERTEX
 8
CUBE_1
 10
0.0259
 20
-0.1203
 30
0.201
 70
192
 0
VERTEX
 8
CUBE_1
 10
0.0245
 20
-0.1204
 30
0.201
 70
192
 0
VERTEX
 8
CUBE_1
 10
0.0233
 20
-0.1207
 30
0.201
 70
192
 0
VERTEX
 8
CUBE_1
 10
0.0223
 20
-0.1212
 30
0.201
 70
192
 0
VERTEX
 8
CUBE_1
 10
0.0217
 20
-0.1219
 30
0.201
 70
192
 0
VERTEX
 8
CUBE_1
 10
0.0215
 20
-0.1227
 30
0.201
 70
192
 0
VERTEX
 8
CUBE_1
 10
0.0214
 20
-0.1248
 30
0.201
 70
192
 0
VERTEX
 8
CUBE_1
 10
0.0215
 20
-0.1257
 30
0.201
 70
192
 0
VERTEX
 8
CUBE_1
 10
0.0221
 20
-0.1264
 30
0.201
 70
192
 0
VERTEX
 8
CUBE_1
 10
0.0231
 20
-0.127
 30
0.201
 70
192
 0
VERTEX
 8
CUBE_1
 10
0.0242
 20
-0.1275
 30
0.201
 70
192
 0
VERTEX
 8
CUBE_1
 10
0.0255
 20
-0.1286
 30
0.2027
 70
192
 0
VERTEX
 8
CUBE_1
 10
0.0289
 20
-0.1288
 30
0.2027
 70
192
 0
VERTEX
 8
CUBE_1
 10
0.0307
 20
-0.1287
 30
0.2027
 70
192
 0
VERTEX
 8
CUBE_1
 10
0.0324
 20
-0.1282
 30
0.2027
 70
192
 0
VERTEX
 8
CUBE_1
 10
0.0337
 20
-0.1275
 30
0.2027
 70
192
 0
VERTEX
 8
CUBE_1
 10
0.0346
 20
-0.1265
 30
0.2027
 70
192
 0
VERTEX
 8
CUBE_1
 10
0.035
 20
-0.1254
 30
0.2027
 70
192
 0
VERTEX
 8
CUBE_1
 10
0.0351
 20
-0.1233
 30
0.2027
 70
192
 0
VERTEX
 8
CUBE_1
 10
0.0348
 20
-0.1222
 30
0.2027
 70
192
 0
VERTEX
 8
CUBE_1
 10
0.034
 20
-0.1211
 30
0.2027
 70
192
 0
VERTEX
 8
CUBE_1
 10
0.0327
 20
-0.1203
 30
0.2027
 70
192
 0
VERTEX
 8
CUBE_1
 10
0.0311
 20
-0.1197
 30
0.2027
 70
192
 0
VERTEX
 8
CUBE_1
 10
0.0293
 20
-0.1194
 30
0.2027
 70
192
 0
VERTEX
 8
CUBE_1
 10
0.0259
 20
-0.1193
 30
0.2027
 70
192
 0
VERTEX
 8
CUBE_1
 10
0.0241
 20
-0.1194
 30
0.2027
 70
192
 0
VERTEX
 8
CUBE_1
 10
0.0224
 20
-0.1198
 30
0.2027
 70
192
 0
VERTEX
 8
CUBE_1
 10
0.0211
 20
-0.1206
 30
0.2027
 70
192
 0
VERTEX
 8
CUBE_1
 10
0.0202
 20
-0.1216
 30
0.2027
 70
192
 0
VERTEX
 8
CUBE_1
 10
0.0198
 20
-0.1227
 30
0.2027
 70
192
 0
VERTEX
 8
CUBE_1
 10
0.0197
 20
-0.1248
 30
0.2027
 70
192
 0
VERTEX
 8
CUBE_1
 10
0.02
 20
-0.1259
 30
0.2027
 70
192
 0
VERTEX
 8
CUBE_1
 10
0.0208
 20
-0.1269
 30
0.2027
 70
192
 0
VERTEX
 8
CUBE_1
 10
0.0221
 20
-0.1278
 30
0.2027
 70
192
 0
VERTEX
 8
CUBE_1
 10
0.0237
 20
-0.1284
 30
0.2027
 70
192
 0
VERTEX
 8
CUBE_1
 10
0.0255
 20
-0.1293
 30
0.2047
 70
192
 0
VERTEX
 8
CUBE_1
 10
0.0289
 20
-0.1294
 30
0.2047
 70
192
 0
VERTEX
 8
CUBE_1
 10
0.031
 20
-0.1293
 30
0.2047
 70
192
 0
VERTEX
 8
CUBE_1
 10
0.033
 20
-0.1288
 30
0.2047
 70
192
 0
VERTEX
 8
CUBE_1
 10
0.0346
 20
-0.1279
 30
0.2047
 70
192
 0
VERTEX
 8
CUBE_1
 10
0.0356
 20
-0.1267
 30
0.2047
 70
192
 0
VERTEX
 8
CUBE_1
 10
0.036
 20
-0.1254
 30
0.2047
 70
192
 0
VERTEX
 8
CUBE_1
 10
0.0361
 20
-0.1234
 30
0.2047
 70
192
 0
VERTEX
 8
CUBE_1
 10
0.0358
 20
-0.122
 30
0.2047
 70
192
 0
VERTEX
 8
CUBE_1
 10
0.0349
 20
-0.1208
 30
0.2047
 70
192
 0
VERTEX
 8
CUBE_1
 10
0.0334
 20
-0.1198
 30
0.2047
 70
192
 0
VERTEX
 8
CUBE_1
 10
0.0315
 20
-0.1191
 30
0.2047
 70
192
 0
VERTEX
 8
CUBE_1
 10
0.0293
 20
-0.1188
 30
0.2047
 70
192
 0
VERTEX
 8
CUBE_1
 10
0.0259
 20
-0.1186
 30
0.2047
 70
192
 0
VERTEX
 8
CUBE_1
 10
0.0238
 20
-0.1188
 30
0.2047
 70
192
 0
VERTEX
 8
CUBE_1
 10
0.0218
 20
-0.1193
 30
0.2047
 70
192
 0
VERTEX
 8
CUBE_1
 10
0.0202
 20
-0.1202
 30
0.2047
 70
192
 0
VERTEX
 8
CUBE_1
 10
0.0192
 20
-0.1213
 30
0.2047
 70
192
 0
VERTEX
 8
CUBE_1
 10
0.0188
 20
-0.1226
 30
0.2047
 70
192
 0
VERTEX
 8
CUBE_1
 10
0.0187
 20
-0.1247
 30
0.2047
 70
192
 0
VERTEX
 8
CUBE_1
 10
0.019
 20
-0.1261
 30
0.2047
 70
192
 0
VERTEX
 8
CUBE_1
 10
0.0199
 20
-0.1273
 30
0.2047
 70
192
 0
VERTEX
 8
CUBE_1
 10
0.0214
 20
-0.1283
 30
0.2047
 70
192
 0
VERTEX
 8
CUBE_1
 10
0.0233
 20
-0.129
 30
0.2047
 70
192
 0
VERTEX
 8
CUBE_1
 10
0.0255
 20
-0.1295
 30
0.207
 70
192
 0
VERTEX
 8
CUBE_1
 10
0.0289
 20
-0.1297
 30
0.207
 70
192
 0
VERTEX
 8
CUBE_1
 10
0.0311
 20
-0.1295
 30
0.207
 70
192
 0
VERTEX
 8
CUBE_1
 10
0.0332
 20
-0.129
 30
0.207
 70
192
 0
VERTEX
 8
CUBE_1
 10
0.0349
 20
-0.128
 30
0.207
 70
192
 0
VERTEX
 8
CUBE_1
 10
0.036
 20
-0.1268
 30
0.207
 70
192
 0
VERTEX
 8
CUBE_1
 10
0.0364
 20
-0.1255
 30
0.207
 70
192
 0
VERTEX
 8
CUBE_1
 10
0.0365
 20
-0.1234
 30
0.207
 70
192
 0
VERTEX
 8
CUBE_1
 10
0.0362
 20
-0.122
 30
0.207
 70
192
 0
VERTEX
 8
CUBE_1
 10
0.0352
 20
-0.1207
 30
0.207
 70
192
 0
VERTEX
 8
CUBE_1
 10
0.0336
 20
-0.1196
 30
0.207
 70
192
 0
VERTEX
 8
CUBE_1
 10
0.0316
 20
-0.1189
 30
0.207
 70
192
 0
VERTEX
 8
CUBE_1
 10
0.0293
 20
-0.1186
 30
0.207
 70
192
 0
VERTEX
 8
CUBE_1
 10
0.0259
 20
-0.1184
 30
0.207
 70
192
 0
VERTEX
 8
CUBE_1
 10
0.0237
 20
-0.1186
 30
0.207
 70
192
 0
VERTEX
 8
CUBE_1
 10
0.0216
 20
-0.1191
 30
0.207
 70
192
 0
VERTEX
 8
CUBE_1
 10
0.0199
 20
-0.12
 30
0.207
 70
192
 0
VERTEX
 8
CUBE_1
 10
0.0189
 20
-0.1212
 30
0.207
 70
192
 0
VERTEX
 8
CUBE_1
 10
0.0184
 20
-0.1226
 30
0.207
 70
192
 0
VERTEX
 8
CUBE_1
 10
0.0183
 20
-0.1247
 30
0.207
 70
192
 0
VERTEX
 8
CUBE_1
 10
0.0186
 20
-0.1261
 30
0.207
 70
192
 0
VERTEX
 8
CUBE_1
 10
0.0196
 20
-0.1274
 30
0.207
 70
192
 0
VERTEX
 8
CUBE_1
 10
0.0212
 20
-0.1285
 30
0.207
 70
192
 0
VERTEX
 8
CUBE_1
 10
0.0232
 20
-0.1292
 30
0.207
 70
192
 0
VERTEX
 8
CUBE_1
 10
0.0255
 20
-0.1295
 30
0.2103
 70
192
 0
VERTEX
 8
CUBE_1
 10
0.0289
 20
-0.1297
 30
0.2103
 70
192
 0
VERTEX
 8
CUBE_1
 10
0.0311
 20
-0.1295
 30
0.2103
 70
192
 0
VERTEX
 8
CUBE_1
 10
0.0332
 20
-0.129
 30
0.2103
 70
192
 0
VERTEX
 8
CUBE_1
 10
0.0349
 20
-0.128
 30
0.2103
 70
192
 0
VERTEX
 8
CUBE_1
 10
0.036
 20
-0.1268
 30
0.2103
 70
192
 0
VERTEX
 8
CUBE_1
 10
0.0364
 20
-0.1255
 30
0.2103
 70
192
 0
VERTEX
 8
CUBE_1
 10
0.0365
 20
-0.1234
 30
0.2103
 70
192
 0
VERTEX
 8
CUBE_1
 10
0.0362
 20
-0.122
 30
0.2103
 70
192
 0
VERTEX
 8
CUBE_1
 10
0.0352
 20
-0.1207
 30
0.2103
 70
192
 0
VERTEX
 8
CUBE_1
 10
0.0336
 20
-0.1196
 30
0.2103
 70
192
 0
VERTEX
 8
CUBE_1
 10
0.0316
 20
-0.1189
 30
0.2103
 70
192
 0
VERTEX
 8
CUBE_1
 10
0.0293
 20
-0.1186
 30
0.2103
 70
192
 0
VERTEX
 8
CUBE_1
 10
0.0259
 20
-0.1184
 30
0.2103
 70
192
 0
VERTEX
 8
CUBE_1
 10
0.0237
 20
-0.1186
 30
0.2103
 70
192
 0
VERTEX
 8
CUBE_1
 10
0.0216
 20
-0.1191
 30
0.2103
 70
192
 0
VERTEX
 8
CUBE_1
 10
0.0199
 20
-0.12
 30
0.2103
 70
192
 0
VERTEX
 8
CUBE_1
 10
0.0189
 20
-0.1212
 30
0.2103
 70
192
 0
VERTEX
 8
CUBE_1
 10
0.0184
 20
-0.1226
 30
0.2103
 70
192
 0
VERTEX
 8
CUBE_1
 10
0.0183
 20
-0.1247
 30
0.2103
 70
192
 0
VERTEX
 8
CUBE_1
 10
0.0186
 20
-0.1261
 30
0.2103
 70
192
 0
VERTEX
 8
CUBE_1
 10
0.0196
 20
-0.1274
 30
0.2103
 70
192
 0
VERTEX
 8
CUBE_1
 10
0.0212
 20
-0.1285
 30
0.2103
 70
192
 0
VERTEX
 8
CUBE_1
 10
0.0232
 20
-0.1292
 30
0.2103
 70
192
 0
VERTEX
 8
CUBE_1
 10
0.0255
 20
-0.1293
 30
0.2126
 70
192
 0
VERTEX
 8
CUBE_1
 10
0.0289
 20
-0.1294
 30
0.2126
 70
192
 0
VERTEX
 8
CUBE_1
 10
0.031
 20
-0.1293
 30
0.2126
 70
192
 0
VERTEX
 8
CUBE_1
 10
0.033
 20
-0.1288
 30
0.2126
 70
192
 0
VERTEX
 8
CUBE_1
 10
0.0346
 20
-0.1279
 30
0.2126
 70
192
 0
VERTEX
 8
CUBE_1
 10
0.0356
 20
-0.1267
 30
0.2126
 70
192
 0
VERTEX
 8
CUBE_1
 10
0.036
 20
-0.1254
 30
0.2126
 70
192
 0
VERTEX
 8
CUBE_1
 10
0.0361
 20
-0.1234
 30
0.2126
 70
192
 0
VERTEX
 8
CUBE_1
 10
0.0358
 20
-0.122
 30
0.2126
 70
192
 0
VERTEX
 8
CUBE_1
 10
0.0349
 20
-0.1208
 30
0.2126
 70
192
 0
VERTEX
 8
CUBE_1
 10
0.0334
 20
-0.1198
 30
0.2126
 70
192
 0
VERTEX
 8
CUBE_1
 10
0.0315
 20
-0.1191
 30
0.2126
 70
192
 0
VERTEX
 8
CUBE_1
 10
0.0293
 20
-0.1188
 30
0.2126
 70
192
 0
VERTEX
 8
CUBE_1
 10
0.0259
 20
-0.1186
 30
0.2126
 70
192
 0
VERTEX
 8
CUBE_1
 10
0.0238
 20
-0.1188
 30
0.2126
 70
192
 0
VERTEX
 8
CUBE_1
 10
0.0218
 20
-0.1193
 30
0.2126
 70
192
 0
VERTEX
 8
CUBE_1
 10
0.0202
 20
-0.1202
 30
0.2126
 70
192
 0
VERTEX
 8
CUBE_1
 10
0.0192
 20
-0.1213
 30
0.2126
 70
192
 0
VERTEX
 8
CUBE_1
 10
0.0188
 20
-0.1226
 30
0.2126
 70
192
 0
VERTEX
 8
CUBE_1
 10
0.0187
 20
-0.1247
 30
0.2126
 70
192
 0
VERTEX
 8
CUBE_1
 10
0.019
 20
-0.1261
 30
0.2126
 70
192
 0
VERTEX
 8
CUBE_1
 10
0.0199
 20
-0.1273
 30
0.2126
 70
192
 0
VERTEX
 8
CUBE_1
 10
0.0214
 20
-0.1283
 30
0.2126
 70
192
 0
VERTEX
 8
CUBE_1
 10
0.0233
 20
-0.129
 30
0.2126
 70
192
 0
VERTEX
 8
CUBE_1
 10
0.0255
 20
-0.1286
 30
0.2146
 70
192
 0
VERTEX
 8
CUBE_1
 10
0.0289
 20
-0.1288
 30
0.2146
 70
192
 0
VERTEX
 8
CUBE_1
 10
0.0307
 20
-0.1287
 30
0.2146
 70
192
 0
VERTEX
 8
CUBE_1
 10
0.0324
 20
-0.1282
 30
0.2146
 70
192
 0
VERTEX
 8
CUBE_1
 10
0.0337
 20
-0.1275
 30
0.2146
 70
192
 0
VERTEX
 8
CUBE_1
 10
0.0346
 20
-0.1265
 30
0.2146
 70
192
 0
VERTEX
 8
CUBE_1
 10
0.035
 20
-0.1254
 30
0.2146
 70
192
 0
VERTEX
 8
CUBE_1
 10
0.0351
 20
-0.1233
 30
0.2146
 70
192
 0
VERTEX
 8
CUBE_1
 10
0.0348
 20
-0.1222
 30
0.2146
 70
192
 0
VERTEX
 8
CUBE_1
 10
0.034
 20
-0.1211
 30
0.2146
 70
192
 0
VERTEX
 8
CUBE_1
 10
0.0327
 20
-0.1203
 30
0.2146
 70
192
 0
VERTEX
 8
CUBE_1
 10
0.0311
 20
-0.1197
 30
0.2146
 70
192
 0
VERTEX
 8
CUBE_1
 10
0.0293
 20
-0.1194
 30
0.2146
 70
192
 0
VERTEX
 8
CUBE_1
 10
0.0259
 20
-0.1193
 30
0.2146
 70
192
 0
VERTEX
 8
CUBE_1
 10
0.0241
 20
-0.1194
 30
0.2146
 70
192
 0
VERTEX
 8
CUBE_1
 10
0.0224
 20
-0.1198
 30
0.2146
 70
192
 0
VERTEX
 8
CUBE_1
 10
0.0211
 20
-0.1206
 30
0.2146
 70
192
 0
VERTEX
 8
CUBE_1
 10
0.0202
 20
-0.1216
 30
0.2146
 70
192
 0
VERTEX
 8
CUBE_1
 10
0.0198
 20
-0.1227
 30
0.2146
 70
192
 0
VERTEX
 8
CUBE_1
 10
0.0197
 20
-0.1248
 30
0.2146
 70
192
 0
VERTEX
 8
CUBE_1
 10
0.02
 20
-0.1259
 30
0.2146
 70
192
 0
VERTEX
 8
CUBE_1
 10
0.0208
 20
-0.1269
 30
0.2146
 70
192
 0
VERTEX
 8
CUBE_1
 10
0.0221
 20
-0.1278
 30
0.2146
 70
192
 0
VERTEX
 8
CUBE_1
 10
0.0237
 20
-0.1284
 30
0.2146
 70
192
 0
VERTEX
 8
CUBE_1
 10
0.0256
 20
-0.1277
 30
0.2163
 70
192
 0
VERTEX
 8
CUBE_1
 10
0.0289
 20
-0.1278
 30
0.2163
 70
192
 0
VERTEX
 8
CUBE_1
 10
0.0303
 20
-0.1277
 30
0.2163
 70
192
 0
VERTEX
 8
CUBE_1
 10
0.0315
 20
-0.1274
 30
0.2163
 70
192
 0
VERTEX
 8
CUBE_1
 10
0.0325
 20
-0.1269
 30
0.2163
 70
192
 0
VERTEX
 8
CUBE_1
 10
0.0331
 20
-0.1261
 30
0.2163
 70
192
 0
VERTEX
 8
CUBE_1
 10
0.0334
 20
-0.1253
 30
0.2163
 70
192
 0
VERTEX
 8
CUBE_1
 10
0.0334
 20
-0.1233
 30
0.2163
 70
192
 0
VERTEX
 8
CUBE_1
 10
0.0333
 20
-0.1224
 30
0.2163
 70
192
 0
VERTEX
 8
CUBE_1
 10
0.0327
 20
-0.1217
 30
0.2163
 70
192
 0
VERTEX
 8
CUBE_1
 10
0.0318
 20
-0.121
 30
0.2163
 70
192
 0
VERTEX
 8
CUBE_1
 10
0.0306
 20
-0.1206
 30
0.2163
 70
192
 0
VERTEX
 8
CUBE_1
 10
0.0292
 20
-0.1204
 30
0.2163
 70
192
 0
VERTEX
 8
CUBE_1
 10
0.0259
 20
-0.1203
 30
0.2163
 70
192
 0
VERTEX
 8
CUBE_1
 10
0.0245
 20
-0.1204
 30
0.2163
 70
192
 0
VERTEX
 8
CUBE_1
 10
0.0233
 20
-0.1207
 30
0.2163
 70
192
 0
VERTEX
 8
CUBE_1
 10
0.0223
 20
-0.1212
 30
0.2163
 70
192
 0
VERTEX
 8
CUBE_1
 10
0.0217
 20
-0.1219
 30
0.2163
 70
192
 0
VERTEX
 8
CUBE_1
 10
0.0215
 20
-0.1227
 30
0.2163
 70
192
 0
VERTEX
 8
CUBE_1
 10
0.0214
 20
-0.1248
 30
0.2163
 70
192
 0
VERTEX
 8
CUBE_1
 10
0.0215
 20
-0.1257
 30
0.2163
 70
192
 0
VERTEX
 8
CUBE_1
 10
0.0221
 20
-0.1264
 30
0.2163
 70
192
 0
VERTEX
 8
CUBE_1
 10
0.0231
 20
-0.127
 30
0.2163
 70
192
 0
VERTEX
 8
CUBE_1
 10
0.0242
 20
-0.1275
 30
0.2163
 70
192
 0
VERTEX
 8
CUBE_1
 10
0.0256
 20
-0.1264
 30
0.2173
 70
192
 0
VERTEX
 8
CUBE_1
 10
0.029
 20
-0.1265
 30
0.2173
 70
192
 0
VERTEX
 8
CUBE_1
 10
0.0297
 20
-0.1265
 30
0.2173
 70
192
 0
VERTEX
 8
CUBE_1
 10
0.0303
 20
-0.1263
 30
0.2173
 70
192
 0
VERTEX
 8
CUBE_1
 10
0.0308
 20
-0.126
 30
0.2173
 70
192
 0
VERTEX
 8
CUBE_1
 10
0.0312
 20
-0.1257
 30
0.2173
 70
192
 0
VERTEX
 8
CUBE_1
 10
0.0313
 20
-0.1252
 30
0.2173
 70
192
 0
VERTEX
 8
CUBE_1
 10
0.0314
 20
-0.1232
 30
0.2173
 70
192
 0
VERTEX
 8
CUBE_1
 10
0.0313
 20
-0.1227
 30
0.2173
 70
192
 0
VERTEX
 8
CUBE_1
 10
0.031
 20
-0.1223
 30
0.2173
 70
192
 0
VERTEX
 8
CUBE_1
 10
0.0305
 20
-0.122
 30
0.2173
 70
192
 0
VERTEX
 8
CUBE_1
 10
0.0299
 20
-0.1218
 30
0.2173
 70
192
 0
VERTEX
 8
CUBE_1
 10
0.0292
 20
-0.1217
 30
0.2173
 70
192
 0
VERTEX
 8
CUBE_1
 10
0.0258
 20
-0.1215
 30
0.2173
 70
192
 0
VERTEX
 8
CUBE_1
 10
0.0251
 20
-0.1216
 30
0.2173
 70
192
 0
VERTEX
 8
CUBE_1
 10
0.0245
 20
-0.1217
 30
0.2173
 70
192
 0
VERTEX
 8
CUBE_1
 10
0.024
 20
-0.122
 30
0.2173
 70
192
 0
VERTEX
 8
CUBE_1
 10
0.0236
 20
-0.1224
 30
0.2173
 70
192
 0
VERTEX
 8
CUBE_1
 10
0.0235
 20
-0.1228
 30
0.2173
 70
192
 0
VERTEX
 8
CUBE_1
 10
0.0234
 20
-0.1249
 30
0.2173
 70
192
 0
VERTEX
 8
CUBE_1
 10
0.0235
 20
-0.1253
 30
0.2173
 70
192
 0
VERTEX
 8
CUBE_1
 10
0.0238
 20
-0.1257
 30
0.2173
 70
192
 0
VERTEX
 8
CUBE_1
 10
0.0243
 20
-0.1261
 30
0.2173
 70
192
 0
VERTEX
 8
CUBE_1
 10
0.0249
 20
-0.1263
 30
0.2173
 70
192
 0
VERTEX
 8
CUBE_1
 10
0.0257
 20
-0.125
 30
0.2177
 70
192
 0
VERTEX
 8
CUBE_1
 10
0.029
 20
-0.1251
 30
0.2177
 70
192
 0
VERTEX
 8
CUBE_1
 10
0.0291
 20
-0.1231
 30
0.2177
 70
192
 0
VERTEX
 8
CUBE_1
 10
0.0258
 20
-0.1229
 30
0.2177
 70
192
 0
VERTEX
 8
CUBE_1
 10
0
 20
0
 30
0
 70
128
 71
1
 72
5
 73
6
 74
2
 0
VERTEX
 8
CUBE_1
 10
0
 20
0
 30
0
 70
128
 71
5
 72
29
 73
30
 74
6
 0
VERTEX
 8
CUBE_1
 10
0
 20
0
 30
0
 70
128
 71
29
 72
53
 73
54
 74
30
 0
VERTEX
 8
CUBE_1
 10
0
 20
0
 30
0
 70
128
 71
53
 72
77
 73
78
 74
54
 0
VERTEX
 8
CUBE_1
 10
0
 20
0
 30
0
 70
128
 71
77
 72
101
 73
102
 74
78
 0
VERTEX
 8
CUBE_1
 10
0
 20
0
 30
0
 70
128
 71
101
 72
125
 73
126
 74
102
 0
VERTEX
 8
CUBE_1
 10
0
 20
0
 30
0
 70
128
 71
125
 72
149
 73
150
 74
126
 0
VERTEX
 8
CUBE_1
 10
0
 20
0
 30
0
 70
128
 71
149
 72
173
 73
174
 74
150
 0
VERTEX
 8
CUBE_1
 10
0
 20
0
 30
0
 70
128
 71
173
 72
197
 73
198
 74
174
 0
VERTEX
 8
CUBE_1
 10
0
 20
0
 30
0
 70
128
 71
197
 72
221
 73
222
 74
198
 0
VERTEX
 8
CUBE_1
 10
0
 20
0
 30
0
 70
128
 71
221
 72
245
 73
246
 74
222
 0
VERTEX
 8
CUBE_1
 10
0
 20
0
 30
0
 70
128
 71
2
 72
6
 73
7
 74
7
 0
VERTEX
 8
CUBE_1
 10
0
 20
0
 30
0
 70
128
 71
6
 72
30
 73
31
 74
7
 0
VERTEX
 8
CUBE_1
 10
0
 20
0
 30
0
 70
128
 71
30
 72
54
 73
55
 74
31
 0
VERTEX
 8
CUBE_1
 10
0
 20
0
 30
0
 70
128
 71
54
 72
78
 73
79
 74
55
 0
VERTEX
 8
CUBE_1
 10
0
 20
0
 30
0
 70
128
 71
78
 72
102
 73
103
 74
79
 0
VERTEX
 8
CUBE_1
 10
0
 20
0
 30
0
 70
128
 71
102
 72
126
 73
127
 74
103
 0
VERTEX
 8
CUBE_1
 10
0
 20
0
 30
0
 70
128
 71
126
 72
150
 73
151
 74
127
 0
VERTEX
 8
CUBE_1
 10
0
 20
0
 30
0
 70
128
 71
150
 72
174
 73
175
 74
151
 0
VERTEX
 8
CUBE_1
 10
0
 20
0
 30
0
 70
128
 71
174
 72
198
 73
199
 74
175
 0
VERTEX
 8
CUBE_1
 10
0
 20
0
 30
0
 70
128
 71
198
 72
222
 73
223
 74
199
 0
VERTEX
 8
CUBE_1
 10
0
 20
0
 30
0
 70
128
 71
222
 72
246
 73
223
 74
223
 0
VERTEX
 8
CUBE_1
 10
0
 20
0
 30
0
 70
128
 71
2
 72
7
 73
8
 74
8
 0
VERTEX
 8
CUBE_1
 10
0
 20
0
 30
0
 70
128
 71
7
 72
31
 73
32
 74
8
 0
VERTEX
 8
CUBE_1
 10
0
 20
0
 30
0
 70
128
 71
31
 72
55
 73
56
 74
32
 0
VERTEX
 8
CUBE_1
 10
0
 20
0
 30
0
 70
128
 71
55
 72
79
 73
80
 74
56
 0
VERTEX
 8
CUBE_1
 10
0
 20
0
 30
0
 70
128
 71
79
 72
103
 73
104
 74
80
 0
VERTEX
 8
CUBE_1
 10
0
 20
0
 30
0
 70
128
 71
103
 72
127
 73
128
 74
104
 0
VERTEX
 8
CUBE_1
 10
0
 20
0
 30
0
 70
128
 71
127
 72
151
 73
152
 74
128
 0
VERTEX
 8
CUBE_1
 10
0
 20
0
 30
0
 70
128
 71
151
 72
175
 73
176
 74
152
 0
VERTEX
 8
CUBE_1
 10
0
 20
0
 30
0
 70
128
 71
175
 72
199
 73
200
 74
176
 0
VERTEX
 8
CUBE_1
 10
0
 20
0
 30
0
 70
128
 71
199
 72
223
 73
224
 74
200
 0
VERTEX
 8
CUBE_1
 10
0
 20
0
 30
0
 70
128
 71
223
 72
246
 73
224
 74
224
 0
VERTEX
 8
CUBE_1
 10
0
 20
0
 30
0
 70
128
 71
2
 72
8
 73
9
 74
9
 0
VERTEX
 8
CUBE_1
 10
0
 20
0
 30
0
 70
128
 71
8
 72
32
 73
33
 74
9
 0
VERTEX
 8
CUBE_1
 10
0
 20
0
 30
0
 70
128
 71
32
 72
56
 73
57
 74
33
 0
VERTEX
 8
CUBE_1
 10
0
 20
0
 30
0
 70
128
 71
56
 72
80
 73
81
 74
57
 0
VERTEX
 8
CUBE_1
 10
0
 20
0
 30
0
 70
128
 71
80
 72
104
 73
105
 74
81
 0
VERTEX
 8
CUBE_1
 10
0
 20
0
 30
0
 70
128
 71
104
 72
128
 73
129
 74
105
 0
VERTEX
 8
CUBE_1
 10
0
 20
0
 30
0
 70
128
 71
128
 72
152
 73
153
 74
129
 0
VERTEX
 8
CUBE_1
 10
0
 20
0
 30
0
 70
128
 71
152
 72
176
 73
177
 74
153
 0
VERTEX
 8
CUBE_1
 10
0
 20
0
 30
0
 70
128
 71
176
 72
200
 73
201
 74
177
 0
VERTEX
 8
CUBE_1
 10
0
 20
0
 30
0
 70
128
 71
200
 72
224
 73
225
 74
201
 0
VERTEX
 8
CUBE_1
 10
0
 20
0
 30
0
 70
128
 71
224
 72
246
 73
225
 74
225
 0
VERTEX
 8
CUBE_1
 10
0
 20
0
 30
0
 70
128
 71
2
 72
9
 73
10
 74
10
 0
VERTEX
 8
CUBE_1
 10
0
 20
0
 30
0
 70
128
 71
9
 72
33
 73
34
 74
10
 0
VERTEX
 8
CUBE_1
 10
0
 20
0
 30
0
 70
128
 71
33
 72
57
 73
58
 74
34
 0
VERTEX
 8
CUBE_1
 10
0
 20
0
 30
0
 70
128
 71
57
 72
81
 73
82
 74
58
 0
VERTEX
 8
CUBE_1
 10
0
 20
0
 30
0
 70
128
 71
81
 72
105
 73
106
 74
82
 0
VERTEX
 8
CUBE_1
 10
0
 20
0
 30
0
 70
128
 71
105
 72
129
 73
130
 74
106
 0
VERTEX
 8
CUBE_1
 10
0
 20
0
 30
0
 70
128
 71
129
 72
153
 73
154
 74
130
 0
VERTEX
 8
CUBE_1
 10
0
 20
0
 30
0
 70
128
 71
153
 72
177
 73
178
 74
154
 0
VERTEX
 8
CUBE_1
 10
0
 20
0
 30
0
 70
128
 71
177
 72
201
 73
202
 74
178
 0
VERTEX
 8
CUBE_1
 10
0
 20
0
 30
0
 70
128
 71
201
 72
225
 73
226
 74
202
 0
VERTEX
 8
CUBE_1
 10
0
 20
0
 30
0
 70
128
 71
225
 72
246
 73
226
 74
226
 0
VERTEX
 8
CUBE_1
 10
0
 20
0
 30
0
 70
128
 71
2
 72
10
 73
11
 74
11
 0
VERTEX
 8
CUBE_1
 10
0
 20
0
 30
0
 70
128
 71
10
 72
34
 73
35
 74
11
 0
VERTEX
 8
CUBE_1
 10
0
 20
0
 30
0
 70
128
 71
34
 72
58
 73
59
 74
35
 0
VERTEX
 8
CUBE_1
 10
0
 20
0
 30
0
 70
128
 71
58
 72
82
 73
83
 74
59
 0
VERTEX
 8
CUBE_1
 10
0
 20
0
 30
0
 70
128
 71
82
 72
106
 73
107
 74
83
 0
VERTEX
 8
CUBE_1
 10
0
 20
0
 30
0
 70
128
 71
106
 72
130
 73
131
 74
107
 0
VERTEX
 8
CUBE_1
 10
0
 20
0
 30
0
 70
128
 71
130
 72
154
 73
155
 74
131
 0
VERTEX
 8
CUBE_1
 10
0
 20
0
 30
0
 70
128
 71
154
 72
178
 73
179
 74
155
 0
VERTEX
 8
CUBE_1
 10
0
 20
0
 30
0
 70
128
 71
178
 72
202
 73
203
 74
179
 0
VERTEX
 8
CUBE_1
 10
0
 20
0
 30
0
 70
128
 71
202
 72
226
 73
227
 74
203
 0
VERTEX
 8
CUBE_1
 10
0
 20
0
 30
0
 70
128
 71
226
 72
246
 73
227
 74
227
 0
VERTEX
 8
CUBE_1
 10
0
 20
0
 30
0
 70
128
 71
2
 72
11
 73
12
 74
3
 0
VERTEX
 8
CUBE_1
 10
0
 20
0
 30
0
 70
128
 71
11
 72
35
 73
36
 74
12
 0
VERTEX
 8
CUBE_1
 10
0
 20
0
 30
0
 70
128
 71
35
 72
59
 73
60
 74
36
 0
VERTEX
 8
CUBE_1
 10
0
 20
0
 30
0
 70
128
 71
59
 72
83
 73
84
 74
60
 0
VERTEX
 8
CUBE_1
 10
0
 20
0
 30
0
 70
128
 71
83
 72
107
 73
108
 74
84
 0
VERTEX
 8
CUBE_1
 10
0
 20
0
 30
0
 70
128
 71
107
 72
131
 73
132
 74
108
 0
VERTEX
 8
CUBE_1
 10
0
 20
0
 30
0
 70
128
 71
131
 72
155
 73
156
 74
132
 0
VERTEX
 8
CUBE_1
 10
0
 20
0
 30
0
 70
128
 71
155
 72
179
 73
180
 74
156
 0
VERTEX
 8
CUBE_1
 10
0
 20
0
 30
0
 70
128
 71
179
 72
203
 73
204
 74
180
 0
VERTEX
 8
CUBE_1
 10
0
 20
0
 30
0
 70
128
 71
203
 72
227
 73
228
 74
204
 0
VERTEX
 8
CUBE_1
 10
0
 20
0
 30
0
 70
128
 71
227
 72
246
 73
247
 74
228
 0
VERTEX
 8
CUBE_1
 10
0
 20
0
 30
0
 70
128
 71
3
 72
12
 73
13
 74
13
 0
VERTEX
 8
CUBE_1
 10
0
 20
0
 30
0
 70
128
 71
12
 72
36
 73
37
 74
13
 0
VERTEX
 8
CUBE_1
 10
0
 20
0
 30
0
 70
128
 71
36
 72
60
 73
61
 74
37
 0
VERTEX
 8
CUBE_1
 10
0
 20
0
 30
0
 70
128
 71
60
 72
84
 73
85
 74
61
 0
VERTEX
 8
CUBE_1
 10
0
 20
0
 30
0
 70
128
 71
84
 72
108
 73
109
 74
85
 0
VERTEX
 8
CUBE_1
 10
0
 20
0
 30
0
 70
128
 71
108
 72
132
 73
133
 74
109
 0
VERTEX
 8
CUBE_1
 10
0
 20
0
 30
0
 70
128
 71
132
 72
156
 73
157
 74
133
 0
VERTEX
 8
CUBE_1
 10
0
 20
0
 30
0
 70
128
 71
156
 72
180
 73
181
 74
157
 0
VERTEX
 8
CUBE_1
 10
0
 20
0
 30
0
 70
128
 71
180
 72
204
 73
205
 74
181
 0
VERTEX
 8
CUBE_1
 10
0
 20
0
 30
0
 70
128
 71
204
 72
228
 73
229
 74
205
 0
VERTEX
 8
CUBE_1
 10
0
 20
0
 30
0
 70
128
 71
228
 72
247
 73
229
 74
229
 0
VERTEX
 8
CUBE_1
 10
0
 20
0
 30
0
 70
128
 71
3
 72
13
 73
14
 74
14
 0
VERTEX
 8
CUBE_1
 10
0
 20
0
 30
0
 70
128
 71
13
 72
37
 73
38
 74
14
 0
VERTEX
 8
CUBE_1
 10
0
 20
0
 30
0
 70
128
 71
37
 72
61
 73
62
 74
38
 0
VERTEX
 8
CUBE_1
 10
0
 20
0
 30
0
 70
128
 71
61
 72
85
 73
86
 74
62
 0
VERTEX
 8
CUBE_1
 10
0
 20
0
 30
0
 70
128
 71
85
 72
109
 73
110
 74
86
 0
VERTEX
 8
CUBE_1
 10
0
 20
0
 30
0
 70
128
 71
109
 72
133
 73
134
 74
110
 0
VERTEX
 8
CUBE_1
 10
0
 20
0
 30
0
 70
128
 71
133
 72
157
 73
158
 74
134
 0
VERTEX
 8
CUBE_1
 10
0
 20
0
 30
0
 70
128
 71
157
 72
181
 73
182
 74
158
 0
VERTEX
 8
CUBE_1
 10
0
 20
0
 30
0
 70
128
 71
181
 72
205
 73
206
 74
182
 0
VERTEX
 8
CUBE_1
 10
0
 20
0
 30
0
 70
128
 71
205
 72
229
 73
230
 74
206
 0
VERTEX
 8
CUBE_1
 10
0
 20
0
 30
0
 70
128
 71
229
 72
247
 73
230
 74
230
 0
VERTEX
 8
CUBE_1
 10
0
 20
0
 30
0
 70
128
 71
3
 72
14
 73
15
 74
15
 0
VERTEX
 8
CUBE_1
 10
0
 20
0
 30
0
 70
128
 71
14
 72
38
 73
39
 74
15
 0
VERTEX
 8
CUBE_1
 10
0
 20
0
 30
0
 70
128
 71
38
 72
62
 73
63
 74
39
 0
VERTEX
 8
CUBE_1
 10
0
 20
0
 30
0
 70
128
 71
62
 72
86
 73
87
 74
63
 0
VERTEX
 8
CUBE_1
 10
0
 20
0
 30
0
 70
128
 71
86
 72
110
 73
111
 74
87
 0
VERTEX
 8
CUBE_1
 10
0
 20
0
 30
0
 70
128
 71
110
 72
134
 73
135
 74
111
 0
VERTEX
 8
CUBE_1
 10
0
 20
0
 30
0
 70
128
 71
134
 72
158
 73
159
 74
135
 0
VERTEX
 8
CUBE_1
 10
0
 20
0
 30
0
 70
128
 71
158
 72
182
 73
183
 74
159
 0
VERTEX
 8
CUBE_1
 10
0
 20
0
 30
0
 70
128
 71
182
 72
206
 73
207
 74
183
 0
VERTEX
 8
CUBE_1
 10
0
 20
0
 30
0
 70
128
 71
206
 72
230
 73
231
 74
207
 0
VERTEX
 8
CUBE_1
 10
0
 20
0
 30
0
 70
128
 71
230
 72
247
 73
231
 74
231
 0
VERTEX
 8
CUBE_1
 10
0
 20
0
 30
0
 70
128
 71
3
 72
15
 73
16
 74
16
 0
VERTEX
 8
CUBE_1
 10
0
 20
0
 30
0
 70
128
 71
15
 72
39
 73
40
 74
16
 0
VERTEX
 8
CUBE_1
 10
0
 20
0
 30
0
 70
128
 71
39
 72
63
 73
64
 74
40
 0
VERTEX
 8
CUBE_1
 10
0
 20
0
 30
0
 70
128
 71
63
 72
87
 73
88
 74
64
 0
VERTEX
 8
CUBE_1
 10
0
 20
0
 30
0
 70
128
 71
87
 72
111
 73
112
 74
88
 0
VERTEX
 8
CUBE_1
 10
0
 20
0
 30
0
 70
128
 71
111
 72
135
 73
136
 74
112
 0
VERTEX
 8
CUBE_1
 10
0
 20
0
 30
0
 70
128
 71
135
 72
159
 73
160
 74
136
 0
VERTEX
 8
CUBE_1
 10
0
 20
0
 30
0
 70
128
 71
159
 72
183
 73
184
 74
160
 0
VERTEX
 8
CUBE_1
 10
0
 20
0
 30
0
 70
128
 71
183
 72
207
 73
208
 74
184
 0
VERTEX
 8
CUBE_1
 10
0
 20
0
 30
0
 70
128
 71
207
 72
231
 73
232
 74
208
 0
VERTEX
 8
CUBE_1
 10
0
 20
0
 30
0
 70
128
 71
231
 72
247
 73
232
 74
232
 0
VERTEX
 8
CUBE_1
 10
0
 20
0
 30
0
 70
128
 71
3
 72
16
 73
17
 74
17
 0
VERTEX
 8
CUBE_1
 10
0
 20
0
 30
0
 70
128
 71
16
 72
40
 73
41
 74
17
 0
VERTEX
 8
CUBE_1
 10
0
 20
0
 30
0
 70
128
 71
40
 72
64
 73
65
 74
41
 0
VERTEX
 8
CUBE_1
 10
0
 20
0
 30
0
 70
128
 71
64
 72
88
 73
89
 74
65
 0
VERTEX
 8
CUBE_1
 10
0
 20
0
 30
0
 70
128
 71
88
 72
112
 73
113
 74
89
 0
VERTEX
 8
CUBE_1
 10
0
 20
0
 30
0
 70
128
 71
112
 72
136
 73
137
 74
113
 0
VERTEX
 8
CUBE_1
 10
0
 20
0
 30
0
 70
128
 71
136
 72
160
 73
161
 74
137
 0
VERTEX
 8
CUBE_1
 10
0
 20
0
 30
0
 70
128
 71
160
 72
184
 73
185
 74
161
 0
VERTEX
 8
CUBE_1
 10
0
 20
0
 30
0
 70
128
 71
184
 72
208
 73
209
 74
185
 0
VERTEX
 8
CUBE_1
 10
0
 20
0
 30
0
 70
128
 71
208
 72
232
 73
233
 74
209
 0
VERTEX
 8
CUBE_1
 10
0
 20
0
 30
0
 70
128
 71
232
 72
247
 73
233
 74
233
 0
VERTEX
 8
CUBE_1
 10
0
 20
0
 30
0
 70
128
 71
3
 72
17
 73
18
 74
4
 0
VERTEX
 8
CUBE_1
 10
0
 20
0
 30
0
 70
128
 71
17
 72
41
 73
42
 74
18
 0
VERTEX
 8
CUBE_1
 10
0
 20
0
 30
0
 70
128
 71
41
 72
65
 73
66
 74
42
 0
VERTEX
 8
CUBE_1
 10
0
 20
0
 30
0
 70
128
 71
65
 72
89
 73
90
 74
66
 0
VERTEX
 8
CUBE_1
 10
0
 20
0
 30
0
 70
128
 71
89
 72
113
 73
114
 74
90
 0
VERTEX
 8
CUBE_1
 10
0
 20
0
 30
0
 70
128
 71
113
 72
137
 73
138
 74
114
 0
VERTEX
 8
CUBE_1
 10
0
 20
0
 30
0
 70
128
 71
137
 72
161
 73
162
 74
138
 0
VERTEX
 8
CUBE_1
 10
0
 20
0
 30
0
 70
128
 71
161
 72
185
 73
186
 74
162
 0
VERTEX
 8
CUBE_1
 10
0
 20
0
 30
0
 70
128
 71
185
 72
209
 73
210
 74
186
 0
VERTEX
 8
CUBE_1
 10
0
 20
0
 30
0
 70
128
 71
209
 72
233
 73
234
 74
210
 0
VERTEX
 8
CUBE_1
 10
0
 20
0
 30
0
 70
128
 71
233
 72
247
 73
248
 74
234
 0
VERTEX
 8
CUBE_1
 10
0
 20
0
 30
0
 70
128
 71
4
 72
18
 73
19
 74
19
 0
VERTEX
 8
CUBE_1
 10
0
 20
0
 30
0
 70
128
 71
18
 72
42
 73
43
 74
19
 0
VERTEX
 8
CUBE_1
 10
0
 20
0
 30
0
 70
128
 71
42
 72
66
 73
67
 74
43
 0
VERTEX
 8
CUBE_1
 10
0
 20
0
 30
0
 70
128
 71
66
 72
90
 73
91
 74
67
 0
VERTEX
 8
CUBE_1
 10
0
 20
0
 30
0
 70
128
 71
90
 72
114
 73
115
 74
91
 0
VERTEX
 8
CUBE_1
 10
0
 20
0
 30
0
 70
128
 71
114
 72
138
 73
139
 74
115
 0
VERTEX
 8
CUBE_1
 10
0
 20
0
 30
0
 70
128
 71
138
 72
162
 73
163
 74
139
 0
VERTEX
 8
CUBE_1
 10
0
 20
0
 30
0
 70
128
 71
162
 72
186
 73
187
 74
163
 0
VERTEX
 8
CUBE_1
 10
0
 20
0
 30
0
 70
128
 71
186
 72
210
 73
211
 74
187
 0
VERTEX
 8
CUBE_1
 10
0
 20
0
 30
0
 70
128
 71
210
 72
234
 73
235
 74
211
 0
VERTEX
 8
CUBE_1
 10
0
 20
0
 30
0
 70
128
 71
234
 72
248
 73
235
 74
235
 0
VERTEX
 8
CUBE_1
 10
0
 20
0
 30
0
 70
128
 71
4
 72
19
 73
20
 74
20
 0
VERTEX
 8
CUBE_1
 10
0
 20
0
 30
0
 70
128
 71
19
 72
43
 73
44
 74
20
 0
VERTEX
 8
CUBE_1
 10
0
 20
0
 30
0
 70
128
 71
43
 72
67
 73
68
 74
44
 0
VERTEX
 8
CUBE_1
 10
0
 20
0
 30
0
 70
128
 71
67
 72
91
 73
92
 74
68
 0
VERTEX
 8
CUBE_1
 10
0
 20
0
 30
0
 70
128
 71
91
 72
115
 73
116
 74
92
 0
VERTEX
 8
CUBE_1
 10
0
 20
0
 30
0
 70
128
 71
115
 72
139
 73
140
 74
116
 0
VERTEX
 8
CUBE_1
 10
0
 20
0
 30
0
 70
128
 71
139
 72
163
 73
164
 74
140
 0
VERTEX
 8
CUBE_1
 10
0
 20
0
 30
0
 70
128
 71
163
 72
187
 73
188
 74
164
 0
VERTEX
 8
CUBE_1
 10
0
 20
0
 30
0
 70
128
 71
187
 72
211
 73
212
 74
188
 0
VERTEX
 8
CUBE_1
 10
0
 20
0
 30
0
 70
128
 71
211
 72
235
 73
236
 74
212
 0
VERTEX
 8
CUBE_1
 10
0
 20
0
 30
0
 70
128
 71
235
 72
248
 73
236
 74
236
 0
VERTEX
 8
CUBE_1
 10
0
 20
0
 30
0
 70
128
 71
4
 72
20
 73
21
 74
21
 0
VERTEX
 8
CUBE_1
 10
0
 20
0
 30
0
 70
128
 71
20
 72
44
 73
45
 74
21
 0
VERTEX
 8
CUBE_1
 10
0
 20
0
 30
0
 70
128
 71
44
 72
68
 73
69
 74
45
 0
VERTEX
 8
CUBE_1
 10
0
 20
0
 30
0
 70
128
 71
68
 72
92
 73
93
 74
69
 0
VERTEX
 8
CUBE_1
 10
0
 20
0
 30
0
 70
128
 71
92
 72
116
 73
117
 74
93
 0
VERTEX
 8
CUBE_1
 10
0
 20
0
 30
0
 70
128
 71
116
 72
140
 73
141
 74
117
 0
VERTEX
 8
CUBE_1
 10
0
 20
0
 30
0
 70
128
 71
140
 72
164
 73
165
 74
141
 0
VERTEX
 8
CUBE_1
 10
0
 20
0
 30
0
 70
128
 71
164
 72
188
 73
189
 74
165
 0
VERTEX
 8
CUBE_1
 10
0
 20
0
 30
0
 70
128
 71
188
 72
212
 73
213
 74
189
 0
VERTEX
 8
CUBE_1
 10
0
 20
0
 30
0
 70
128
 71
212
 72
236
 73
237
 74
213
 0
VERTEX
 8
CUBE_1
 10
0
 20
0
 30
0
 70
128
 71
236
 72
248
 73
237
 74
237
 0
VERTEX
 8
CUBE_1
 10
0
 20
0
 30
0
 70
128
 71
4
 72
21
 73
22
 74
22
 0
VERTEX
 8
CUBE_1
 10
0
 20
0
 30
0
 70
128
 71
21
 72
45
 73
46
 74
22
 0
VERTEX
 8
CUBE_1
 10
0
 20
0
 30
0
 70
128
 71
45
 72
69
 73
70
 74
46
 0
VERTEX
 8
CUBE_1
 10
0
 20
0
 30
0
 70
128
 71
69
 72
93
 73
94
 74
70
 0
VERTEX
 8
CUBE_1
 10
0
 20
0
 30
0
 70
128
 71
93
 72
117
 73
118
 74
94
 0
VERTEX
 8
CUBE_1
 10
0
 20
0
 30
0
 70
128
 71
117
 72
141
 73
142
 74
118
 0
VERTEX
 8
CUBE_1
 10
0
 20
0
 30
0
 70
128
 71
141
 72
165
 73
166
 74
142
 0
VERTEX
 8
CUBE_1
 10
0
 20
0
 30
0
 70
128
 71
165
 72
189
 73
190
 74
166
 0
VERTEX
 8
CUBE_1
 10
0
 20
0
 30
0
 70
128
 71
189
 72
213
 73
214
 74
190
 0
VERTEX
 8
CUBE_1
 10
0
 20
0
 30
0
 70
128
 71
213
 72
237
 73
238
 74
214
 0
VERTEX
 8
CUBE_1
 10
0
 20
0
 30
0
 70
128
 71
237
 72
248
 73
238
 74
238
 0
VERTEX
 8
CUBE_1
 10
0
 20
0
 30
0
 70
128
 71
4
 72
22
 73
23
 74
23
 0
VERTEX
 8
CUBE_1
 10
0
 20
0
 30
0
 70
128
 71
22
 72
46
 73
47
 74
23
 0
VERTEX
 8
CUBE_1
 10
0
 20
0
 30
0
 70
128
 71
46
 72
70
 73
71
 74
47
 0
VERTEX
 8
CUBE_1
 10
0
 20
0
 30
0
 70
128
 71
70
 72
94
 73
95
 74
71
 0
VERTEX
 8
CUBE_1
 10
0
 20
0
 30
0
 70
128
 71
94
 72
118
 73
119
 74
95
 0
VERTEX
 8
CUBE_1
 10
0
 20
0
 30
0
 70
128
 71
118
 72
142
 73
143
 74
119
 0
VERTEX
 8
CUBE_1
 10
0
 20
0
 30
0
 70
128
 71
142
 72
166
 73
167
 74
143
 0
VERTEX
 8
CUBE_1
 10
0
 20
0
 30
0
 70
128
 71
166
 72
190
 73
191
 74
167
 0
VERTEX
 8
CUBE_1
 10
0
 20
0
 30
0
 70
128
 71
190
 72
214
 73
215
 74
191
 0
VERTEX
 8
CUBE_1
 10
0
 20
0
 30
0
 70
128
 71
214
 72
238
 73
239
 74
215
 0
VERTEX
 8
CUBE_1
 10
0
 20
0
 30
0
 70
128
 71
238
 72
248
 73
239
 74
239
 0
VERTEX
 8
CUBE_1
 10
0
 20
0
 30
0
 70
128
 71
4
 72
23
 73
24
 74
1
 0
VERTEX
 8
CUBE_1
 10
0
 20
0
 30
0
 70
128
 71
23
 72
47
 73
48
 74
24
 0
VERTEX
 8
CUBE_1
 10
0
 20
0
 30
0
 70
128
 71
47
 72
71
 73
72
 74
48
 0
VERTEX
 8
CUBE_1
 10
0
 20
0
 30
0
 70
128
 71
71
 72
95
 73
96
 74
72
 0
VERTEX
 8
CUBE_1
 10
0
 20
0
 30
0
 70
128
 71
95
 72
119
 73
120
 74
96
 0
VERTEX
 8
CUBE_1
 10
0
 20
0
 30
0
 70
128
 71
119
 72
143
 73
144
 74
120
 0
VERTEX
 8
CUBE_1
 10
0
 20
0
 30
0
 70
128
 71
143
 72
167
 73
168
 74
144
 0
VERTEX
 8
CUBE_1
 10
0
 20
0
 30
0
 70
128
 71
167
 72
191
 73
192
 74
168
 0
VERTEX
 8
CUBE_1
 10
0
 20
0
 30
0
 70
128
 71
191
 72
215
 73
216
 74
192
 0
VERTEX
 8
CUBE_1
 10
0
 20
0
 30
0
 70
128
 71
215
 72
239
 73
240
 74
216
 0
VERTEX
 8
CUBE_1
 10
0
 20
0
 30
0
 70
128
 71
239
 72
248
 73
245
 74
240
 0
VERTEX
 8
CUBE_1
 10
0
 20
0
 30
0
 70
128
 71
1
 72
24
 73
25
 74
25
 0
VERTEX
 8
CUBE_1
 10
0
 20
0
 30
0
 70
128
 71
24
 72
48
 73
49
 74
25
 0
VERTEX
 8
CUBE_1
 10
0
 20
0
 30
0
 70
128
 71
48
 72
72
 73
73
 74
49
 0
VERTEX
 8
CUBE_1
 10
0
 20
0
 30
0
 70
128
 71
72
 72
96
 73
97
 74
73
 0
VERTEX
 8
CUBE_1
 10
0
 20
0
 30
0
 70
128
 71
96
 72
120
 73
121
 74
97
 0
VERTEX
 8
CUBE_1
 10
0
 20
0
 30
0
 70
128
 71
120
 72
144
 73
145
 74
121
 0
VERTEX
 8
CUBE_1
 10
0
 20
0
 30
0
 70
128
 71
144
 72
168
 73
169
 74
145
 0
VERTEX
 8
CUBE_1
 10
0
 20
0
 30
0
 70
128
 71
168
 72
192
 73
193
 74
169
 0
VERTEX
 8
CUBE_1
 10
0
 20
0
 30
0
 70
128
 71
192
 72
216
 73
217
 74
193
 0
VERTEX
 8
CUBE_1
 10
0
 20
0
 30
0
 70
128
 71
216
 72
240
 73
241
 74
217
 0
VERTEX
 8
CUBE_1
 10
0
 20
0
 30
0
 70
128
 71
240
 72
245
 73
241
 74
241
 0
VERTEX
 8
CUBE_1
 10
0
 20
0
 30
0
 70
128
 71
1
 72
25
 73
26
 74
26
 0
VERTEX
 8
CUBE_1
 10
0
 20
0
 30
0
 70
128
 71
25
 72
49
 73
50
 74
26
 0
VERTEX
 8
CUBE_1
 10
0
 20
0
 30
0
 70
128
 71
49
 72
73
 73
74
 74
50
 0
VERTEX
 8
CUBE_1
 10
0
 20
0
 30
0
 70
128
 71
73
 72
97
 73
98
 74
74
 0
VERTEX
 8
CUBE_1
 10
0
 20
0
 30
0
 70
128
 71
97
 72
121
 73
122
 74
98
 0
VERTEX
 8
CUBE_1
 10
0
 20
0
 30
0
 70
128
 71
121
 72
145
 73
146
 74
122
 0
VERTEX
 8
CUBE_1
 10
0
 20
0
 30
0
 70
128
 71
145
 72
169
 73
170
 74
146
 0
VERTEX
 8
CUBE_1
 10
0
 20
0
 30
0
 70
128
 71
169
 72
193
 73
194
 74
170
 0
VERTEX
 8
CUBE_1
 10
0
 20
0
 30
0
 70
128
 71
193
 72
217
 73
218
 74
194
 0
VERTEX
 8
CUBE_1
 10
0
 20
0
 30
0
 70
128
 71
217
 72
241
 73
242
 74
218
 0
VERTEX
 8
CUBE_1
 10
0
 20
0
 30
0
 70
128
 71
241
 72
245
 73
242
 74
242
 0
VERTEX
 8
CUBE_1
 10
0
 20
0
 30
0
 70
128
 71
1
 72
26
 73
27
 74
27
 0
VERTEX
 8
CUBE_1
 10
0
 20
0
 30
0
 70
128
 71
26
 72
50
 73
51
 74
27
 0
VERTEX
 8
CUBE_1
 10
0
 20
0
 30
0
 70
128
 71
50
 72
74
 73
75
 74
51
 0
VERTEX
 8
CUBE_1
 10
0
 20
0
 30
0
 70
128
 71
74
 72
98
 73
99
 74
75
 0
VERTEX
 8
CUBE_1
 10
0
 20
0
 30
0
 70
128
 71
98
 72
122
 73
123
 74
99
 0
VERTEX
 8
CUBE_1
 10
0
 20
0
 30
0
 70
128
 71
122
 72
146
 73
147
 74
123
 0
VERTEX
 8
CUBE_1
 10
0
 20
0
 30
0
 70
128
 71
146
 72
170
 73
171
 74
147
 0
VERTEX
 8
CUBE_1
 10
0
 20
0
 30
0
 70
128
 71
170
 72
194
 73
195
 74
171
 0
VERTEX
 8
CUBE_1
 10
0
 20
0
 30
0
 70
128
 71
194
 72
218
 73
219
 74
195
 0
VERTEX
 8
CUBE_1
 10
0
 20
0
 30
0
 70
128
 71
218
 72
242
 73
243
 74
219
 0
VERTEX
 8
CUBE_1
 10
0
 20
0
 30
0
 70
128
 71
242
 72
245
 73
243
 74
243
 0
VERTEX
 8
CUBE_1
 10
0
 20
0
 30
0
 70
128
 71
1
 72
27
 73
28
 74
28
 0
VERTEX
 8
CUBE_1
 10
0
 20
0
 30
0
 70
128
 71
27
 72
51
 73
52
 74
28
 0
VERTEX
 8
CUBE_1
 10
0
 20
0
 30
0
 70
128
 71
51
 72
75
 73
76
 74
52
 0
VERTEX
 8
CUBE_1
 10
0
 20
0
 30
0
 70
128
 71
75
 72
99
 73
100
 74
76
 0
VERTEX
 8
CUBE_1
 10
0
 20
0
 30
0
 70
128
 71
99
 72
123
 73
124
 74
100
 0
VERTEX
 8
CUBE_1
 10
0
 20
0
 30
0
 70
128
 71
123
 72
147
 73
148
 74
124
 0
VERTEX
 8
CUBE_1
 10
0
 20
0
 30
0
 70
128
 71
147
 72
171
 73
172
 74
148
 0
VERTEX
 8
CUBE_1
 10
0
 20
0
 30
0
 70
128
 71
171
 72
195
 73
196
 74
172
 0
VERTEX
 8
CUBE_1
 10
0
 20
0
 30
0
 70
128
 71
195
 72
219
 73
220
 74
196
 0
VERTEX
 8
CUBE_1
 10
0
 20
0
 30
0
 70
128
 71
219
 72
243
 73
244
 74
220
 0
VERTEX
 8
CUBE_1
 10
0
 20
0
 30
0
 70
128
 71
243
 72
245
 73
244
 74
244
 0
VERTEX
 8
CUBE_1
 10
0
 20
0
 30
0
 70
128
 71
1
 72
28
 73
5
 74
5
 0
VERTEX
 8
CUBE_1
 10
0
 20
0
 30
0
 70
128
 71
28
 72
52
 73
29
 74
5
 0
VERTEX
 8
CUBE_1
 10
0
 20
0
 30
0
 70
128
 71
52
 72
76
 73
53
 74
29
 0
VERTEX
 8
CUBE_1
 10
0
 20
0
 30
0
 70
128
 71
76
 72
100
 73
77
 74
53
 0
VERTEX
 8
CUBE_1
 10
0
 20
0
 30
0
 70
128
 71
100
 72
124
 73
101
 74
77
 0
VERTEX
 8
CUBE_1
 10
0
 20
0
 30
0
 70
128
 71
124
 72
148
 73
125
 74
101
 0
VERTEX
 8
CUBE_1
 10
0
 20
0
 30
0
 70
128
 71
148
 72
172
 73
149
 74
125
 0
VERTEX
 8
CUBE_1
 10
0
 20
0
 30
0
 70
128
 71
172
 72
196
 73
173
 74
149
 0
VERTEX
 8
CUBE_1
 10
0
 20
0
 30
0
 70
128
 71
196
 72
220
 73
197
 74
173
 0
VERTEX
 8
CUBE_1
 10
0
 20
0
 30
0
 70
128
 71
220
 72
244
 73
221
 74
197
 0
VERTEX
 8
CUBE_1
 10
0
 20
0
 30
0
 70
128
 71
244
 72
245
 73
221
 74
221
 0
VERTEX
 8
CUBE_1
 10
0
 20
0
 30
0
 70
128
 71
245
 72
248
 73
247
 74
246
 0
VERTEX
 8
CUBE_1
 10
0
 20
0
 30
0
 70
128
 71
1
 72
2
 73
3
 74
4
 0
SEQEND
 0
POLYLINE
 8
CUBE
 66
1
 10
0.0
 20
0.0
 30
0.0
 70
64
 71
248
 72
266
 0
VERTEX
 8
CUBE
 10
-0.0928
 20
-0.12
 30
0.1996
 70
192
 0
VERTEX
 8
CUBE
 10
-0.0894
 20
-0.1202
 30
0.1996
 70
192
 0
VERTEX
 8
CUBE
 10
-0.0893
 20
-0.1181
 30
0.1996
 70
192
 0
VERTEX
 8
CUBE
 10
-0.0927
 20
-0.118
 30
0.1996
 70
192
 0
VERTEX
 8
CUBE
 10
-0.0928
 20
-0.1214
 30
0.2
 70
192
 0
VERTEX
 8
CUBE
 10
-0.0894
 20
-0.1216
 30
0.2
 70
192
 0
VERTEX
 8
CUBE
 10
-0.0887
 20
-0.1215
 30
0.2
 70
192
 0
VERTEX
 8
CUBE
 10
-0.0881
 20
-0.1214
 30
0.2
 70
192
 0
VERTEX
 8
CUBE
 10
-0.0876
 20
-0.1211
 30
0.2
 70
192
 0
VERTEX
 8
CUBE
 10
-0.0872
 20
-0.1207
 30
0.2
 70
192
 0
VERTEX
 8
CUBE
 10
-0.0871
 20
-0.1203
 30
0.2
 70
192
 0
VERTEX
 8
CUBE
 10
-0.087
 20
-0.1182
 30
0.2
 70
192
 0
VERTEX
 8
CUBE
 10
-0.0871
 20
-0.1178
 30
0.2
 70
192
 0
VERTEX
 8
CUBE
 10
-0.0874
 20
-0.1174
 30
0.2
 70
192
 0
VERTEX
 8
CUBE
 10
-0.0879
 20
-0.117
 30
0.2
 70
192
 0
VERTEX
 8
CUBE
 10
-0.0885
 20
-0.1168
 30
0.2
 70
192
 0
VERTEX
 8
CUBE
 10
-0.0892
 20
-0.1167
 30
0.2
 70
192
 0
VERTEX
 8
CUBE
 10
-0.0926
 20
-0.1166
 30
0.2
 70
192
 0
VERTEX
 8
CUBE
 10
-0.0933
 20
-0.1166
 30
0.2
 70
192
 0
VERTEX
 8
CUBE
 10
-0.094
 20
-0.1168
 30
0.2
 70
192
 0
VERTEX
 8
CUBE
 10
-0.0945
 20
-0.1171
 30
0.2
 70
192
 0
VERTEX
 8
CUBE
 10
-0.0948
 20
-0.1174
 30
0.2
 70
192
 0
VERTEX
 8
CUBE
 10
-0.0949
 20
-0.1179
 30
0.2
 70
192
 0
VERTEX
 8
CUBE
 10
-0.095
 20
-0.1199
 30
0.2
 70
192
 0
VERTEX
 8
CUBE
 10
-0.0949
 20
-0.1204
 30
0.2
 70
192
 0
VERTEX
 8
CUBE
 10
-0.0946
 20
-0.1208
 30
0.2
 70
192
 0
VERTEX
 8
CUBE
 10
-0.0941
 20
-0.1211
 30
0.2
 70
192
 0
VERTEX
 8
CUBE
 10
-0.0935
 20
-0.1213
 30
0.2
 70
192
 0
VERTEX
 8
CUBE
 10
-0.0929
 20
-0.1227
 30
0.201
 70
192
 0
VERTEX
 8
CUBE
 10
-0.0895
 20
-0.1228
 30
0.201
 70
192
 0
VERTEX
 8
CUBE
 10
-0.0882
 20
-0.1228
 30
0.201
 70
192
 0
VERTEX
 8
CUBE
 10
-0.0869
 20
-0.1224
 30
0.201
 70
192
 0
VERTEX
 8
CUBE
 10
-0.086
 20
-0.1219
 30
0.201
 70
192
 0
VERTEX
 8
CUBE
 10
-0.0853
 20
-0.1212
 30
0.201
 70
192
 0
VERTEX
 8
CUBE
 10
-0.0851
 20
-0.1204
 30
0.201
 70
192
 0
VERTEX
 8
CUBE
 10
-0.085
 20
-0.1183
 30
0.201
 70
192
 0
VERTEX
 8
CUBE
 10
-0.0852
 20
-0.1175
 30
0.201
 70
192
 0
VERTEX
 8
CUBE
 10
-0.0857
 20
-0.1167
 30
0.201
 70
192
 0
VERTEX
 8
CUBE
 10
-0.0867
 20
-0.1161
 30
0.201
 70
192
 0
VERTEX
 8
CUBE
 10
-0.0879
 20
-0.1156
 30
0.201
 70
192
 0
VERTEX
 8
CUBE
 10
-0.0892
 20
-0.1155
 30
0.201
 70
192
 0
VERTEX
 8
CUBE
 10
-0.0926
 20
-0.1153
 30
0.201
 70
192
 0
VERTEX
 8
CUBE
 10
-0.0939
 20
-0.1154
 30
0.201
 70
192
 0
VERTEX
 8
CUBE
 10
-0.0951
 20
-0.1157
 30
0.201
 70
192
 0
VERTEX
 8
CUBE
 10
-0.0961
 20
-0.1163
 30
0.201
 70
192
 0
VERTEX
 8
CUBE
 10
-0.0967
 20
-0.117
 30
0.201
 70
192
 0
VERTEX
 8
CUBE
 10
-0.097
 20
-0.1178
 30
0.201
 70
192
 0
VERTEX
 8
CUBE
 10
-0.0971
 20
-0.1199
 30
0.201
 70
192
 0
VERTEX
 8
CUBE
 10
-0.0969
 20
-0.1207
 30
0.201
 70
192
 0
VERTEX
 8
CUBE
 10
-0.0963
 20
-0.1215
 30
0.201
 70
192
 0
VERTEX
 8
CUBE
 10
-0.0954
 20
-0.1221
 30
0.201
 70
192
 0
VERTEX
 8
CUBE
 10
-0.0942
 20
-0.1225
 30
0.201
 70
192
 0
VERTEX
 8
CUBE
 10
-0.0929
 20
-0.1237
 30
0.2027
 70
192
 0
VERTEX
 8
CUBE
 10
-0.0895
 20
-0.1238
 30
0.2027
 70
192
 0
VERTEX
 8
CUBE
 10
-0.0877
 20
-0.1237
 30
0.2027
 70
192
 0
VERTEX
 8
CUBE
 10
-0.086
 20
-0.1233
 30
0.2027
 70
192
 0
VERTEX
 8
CUBE
 10
-0.0847
 20
-0.1225
 30
0.2027
 70
192
 0
VERTEX
 8
CUBE
 10
-0.0838
 20
-0.1215
 30
0.2027
 70
192
 0
VERTEX
 8
CUBE
 10
-0.0835
 20
-0.1204
 30
0.2027
 70
192
 0
VERTEX
 8
CUBE
 10
-0.0834
 20
-0.1184
 30
0.2027
 70
192
 0
VERTEX
 8
CUBE
 10
-0.0836
 20
-0.1172
 30
0.2027
 70
192
 0
VERTEX
 8
CUBE
 10
-0.0844
 20
-0.1162
 30
0.2027
 70
192
 0
VERTEX
 8
CUBE
 10
-0.0857
 20
-0.1153
 30
0.2027
 70
192
 0
VERTEX
 8
CUBE
 10
-0.0873
 20
-0.1147
 30
0.2027
 70
192
 0
VERTEX
 8
CUBE
 10
-0.0891
 20
-0.1145
 30
0.2027
 70
192
 0
VERTEX
 8
CUBE
 10
-0.0925
 20
-0.1143
 30
0.2027
 70
192
 0
VERTEX
 8
CUBE
 10
-0.0944
 20
-0.1144
 30
0.2027
 70
192
 0
VERTEX
 8
CUBE
 10
-0.096
 20
-0.1149
 30
0.2027
 70
192
 0
VERTEX
 8
CUBE
 10
-0.0974
 20
-0.1156
 30
0.2027
 70
192
 0
VERTEX
 8
CUBE
 10
-0.0983
 20
-0.1166
 30
0.2027
 70
192
 0
VERTEX
 8
CUBE
 10
-0.0986
 20
-0.1177
 30
0.2027
 70
192
 0
VERTEX
 8
CUBE
 10
-0.0987
 20
-0.1198
 30
0.2027
 70
192
 0
VERTEX
 8
CUBE
 10
-0.0984
 20
-0.1209
 30
0.2027
 70
192
 0
VERTEX
 8
CUBE
 10
-0.0976
 20
-0.122
 30
0.2027
 70
192
 0
VERTEX
 8
CUBE
 10
-0.0964
 20
-0.1228
 30
0.2027
 70
192
 0
VERTEX
 8
CUBE
 10
-0.0947
 20
-0.1234
 30
0.2027
 70
192
 0
VERTEX
 8
CUBE
 10
-0.0929
 20
-0.1243
 30
0.2047
 70
192
 0
VERTEX
 8
CUBE
 10
-0.0896
 20
-0.1245
 30
0.2047
 70
192
 0
VERTEX
 8
CUBE
 10
-0.0874
 20
-0.1243
 30
0.2047
 70
192
 0
VERTEX
 8
CUBE
 10
-0.0854
 20
-0.1238
 30
0.2047
 70
192
 0
VERTEX
 8
CUBE
 10
-0.0839
 20
-0.1229
 30
0.2047
 70
192
 0
VERTEX
 8
CUBE
 10
-0.0828
 20
-0.1218
 30
0.2047
 70
192
 0
VERTEX
 8
CUBE
 10
-0.0824
 20
-0.1205
 30
0.2047
 70
192
 0
VERTEX
 8
CUBE
 10
-0.0823
 20
-0.1184
 30
0.2047
 70
192
 0
VERTEX
 8
CUBE
 10
-0.0826
 20
-0.1171
 30
0.2047
 70
192
 0
VERTEX
 8
CUBE
 10
-0.0836
 20
-0.1158
 30
0.2047
 70
192
 0
VERTEX
 8
CUBE
 10
-0.0851
 20
-0.1148
 30
0.2047
 70
192
 0
VERTEX
 8
CUBE
 10
-0.087
 20
-0.1141
 30
0.2047
 70
192
 0
VERTEX
 8
CUBE
 10
-0.0891
 20
-0.1138
 30
0.2047
 70
192
 0
VERTEX
 8
CUBE
 10
-0.0925
 20
-0.1137
 30
0.2047
 70
192
 0
VERTEX
 8
CUBE
 10
-0.0947
 20
-0.1138
 30
0.2047
 70
192
 0
VERTEX
 8
CUBE
 10
-0.0966
 20
-0.1143
 30
0.2047
 70
192
 0
VERTEX
 8
CUBE
 10
-0.0982
 20
-0.1152
 30
0.2047
 70
192
 0
VERTEX
 8
CUBE
 10
-0.0992
 20
-0.1164
 30
0.2047
 70
192
 0
VERTEX
 8
CUBE
 10
-0.0996
 20
-0.1177
 30
0.2047
 70
192
 0
VERTEX
 8
CUBE
 10
-0.0997
 20
-0.1198
 30
0.2047
 70
192
 0
VERTEX
 8
CUBE
 10
-0.0994
 20
-0.1211
 30
0.2047
 70
192
 0
VERTEX
 8
CUBE
 10
-0.0985
 20
-0.1223
 30
0.2047
 70
192
 0
VERTEX
 8
CUBE
 10
-0.097
 20
-0.1233
 30
0.2047
 70
192
 0
VERTEX
 8
CUBE
 10
-0.0951
 20
-0.124
 30
0.2047
 70
192
 0
VERTEX
 8
CUBE
 10
-0.0929
 20
-0.1245
 30
0.207
 70
192
 0
VERTEX
 8
CUBE
 10
-0.0896
 20
-0.1247
 30
0.207
 70
192
 0
VERTEX
 8
CUBE
 10
-0.0873
 20
-0.1246
 30
0.207
 70
192
 0
VERTEX
 8
CUBE
 10
-0.0852
 20
-0.124
 30
0.207
 70
192
 0
VERTEX
 8
CUBE
 10
-0.0836
 20
-0.1231
 30
0.207
 70
192
 0
VERTEX
 8
CUBE
 10
-0.0825
 20
-0.1219
 30
0.207
 70
192
 0
VERTEX
 8
CUBE
 10
-0.0821
 20
-0.1205
 30
0.207
 70
192
 0
VERTEX
 8
CUBE
 10
-0.082
 20
-0.1184
 30
0.207
 70
192
 0
VERTEX
 8
CUBE
 10
-0.0823
 20
-0.117
 30
0.207
 70
192
 0
VERTEX
 8
CUBE
 10
-0.0833
 20
-0.1157
 30
0.207
 70
192
 0
VERTEX
 8
CUBE
 10
-0.0848
 20
-0.1146
 30
0.207
 70
192
 0
VERTEX
 8
CUBE
 10
-0.0869
 20
-0.1139
 30
0.207
 70
192
 0
VERTEX
 8
CUBE
 10
-0.0891
 20
-0.1136
 30
0.207
 70
192
 0
VERTEX
 8
CUBE
 10
-0.0925
 20
-0.1135
 30
0.207
 70
192
 0
VERTEX
 8
CUBE
 10
-0.0948
 20
-0.1136
 30
0.207
 70
192
 0
VERTEX
 8
CUBE
 10
-0.0968
 20
-0.1141
 30
0.207
 70
192
 0
VERTEX
 8
CUBE
 10
-0.0985
 20
-0.1151
 30
0.207
 70
192
 0
VERTEX
 8
CUBE
 10
-0.0996
 20
-0.1163
 30
0.207
 70
192
 0
VERTEX
 8
CUBE
 10
-0.1
 20
-0.1177
 30
0.207
 70
192
 0
VERTEX
 8
CUBE
 10
-0.1001
 20
-0.1197
 30
0.207
 70
192
 0
VERTEX
 8
CUBE
 10
-0.0998
 20
-0.1211
 30
0.207
 70
192
 0
VERTEX
 8
CUBE
 10
-0.0988
 20
-0.1224
 30
0.207
 70
192
 0
VERTEX
 8
CUBE
 10
-0.0972
 20
-0.1235
 30
0.207
 70
192
 0
VERTEX
 8
CUBE
 10
-0.0952
 20
-0.1242
 30
0.207
 70
192
 0
VERTEX
 8
CUBE
 10
-0.0929
 20
-0.1245
 30
0.2103
 70
192
 0
VERTEX
 8
CUBE
 10
-0.0896
 20
-0.1247
 30
0.2103
 70
192
 0
VERTEX
 8
CUBE
 10
-0.0873
 20
-0.1246
 30
0.2103
 70
192
 0
VERTEX
 8
CUBE
 10
-0.0852
 20
-0.124
 30
0.2103
 70
192
 0
VERTEX
 8
CUBE
 10
-0.0836
 20
-0.1231
 30
0.2103
 70
192
 0
VERTEX
 8
CUBE
 10
-0.0825
 20
-0.1219
 30
0.2103
 70
192
 0
VERTEX
 8
CUBE
 10
-0.0821
 20
-0.1205
 30
0.2103
 70
192
 0
VERTEX
 8
CUBE
 10
-0.082
 20
-0.1184
 30
0.2103
 70
192
 0
VERTEX
 8
CUBE
 10
-0.0823
 20
-0.117
 30
0.2103
 70
192
 0
VERTEX
 8
CUBE
 10
-0.0833
 20
-0.1157
 30
0.2103
 70
192
 0
VERTEX
 8
CUBE
 10
-0.0848
 20
-0.1146
 30
0.2103
 70
192
 0
VERTEX
 8
CUBE
 10
-0.0869
 20
-0.1139
 30
0.2103
 70
192
 0
VERTEX
 8
CUBE
 10
-0.0891
 20
-0.1136
 30
0.2103
 70
192
 0
VERTEX
 8
CUBE
 10
-0.0925
 20
-0.1135
 30
0.2103
 70
192
 0
VERTEX
 8
CUBE
 10
-0.0948
 20
-0.1136
 30
0.2103
 70
192
 0
VERTEX
 8
CUBE
 10
-0.0968
 20
-0.1141
 30
0.2103
 70
192
 0
VERTEX
 8
CUBE
 10
-0.0985
 20
-0.1151
 30
0.2103
 70
192
 0
VERTEX
 8
CUBE
 10
-0.0996
 20
-0.1163
 30
0.2103
 70
192
 0
VERTEX
 8
CUBE
 10
-0.1
 20
-0.1177
 30
0.2103
 70
192
 0
VERTEX
 8
CUBE
 10
-0.1001
 20
-0.1197
 30
0.2103
 70
192
 0
VERTEX
 8
CUBE
 10
-0.0998
 20
-0.1211
 30
0.2103
 70
192
 0
VERTEX
 8
CUBE
 10
-0.0988
 20
-0.1224
 30
0.2103
 70
192
 0
VERTEX
 8
CUBE
 10
-0.0972
 20
-0.1235
 30
0.2103
 70
192
 0
VERTEX
 8
CUBE
 10
-0.0952
 20
-0.1242
 30
0.2103
 70
192
 0
VERTEX
 8
CUBE
 10
-0.0929
 20
-0.1243
 30
0.2126
 70
192
 0
VERTEX
 8
CUBE
 10
-0.0896
 20
-0.1245
 30
0.2126
 70
192
 0
VERTEX
 8
CUBE
 10
-0.0874
 20
-0.1243
 30
0.2126
 70
192
 0
VERTEX
 8
CUBE
 10
-0.0854
 20
-0.1238
 30
0.2126
 70
192
 0
VERTEX
 8
CUBE
 10
-0.0839
 20
-0.1229
 30
0.2126
 70
192
 0
VERTEX
 8
CUBE
 10
-0.0828
 20
-0.1218
 30
0.2126
 70
192
 0
VERTEX
 8
CUBE
 10
-0.0824
 20
-0.1205
 30
0.2126
 70
192
 0
VERTEX
 8
CUBE
 10
-0.0823
 20
-0.1184
 30
0.2126
 70
192
 0
VERTEX
 8
CUBE
 10
-0.0826
 20
-0.1171
 30
0.2126
 70
192
 0
VERTEX
 8
CUBE
 10
-0.0836
 20
-0.1158
 30
0.2126
 70
192
 0
VERTEX
 8
CUBE
 10
-0.0851
 20
-0.1148
 30
0.2126
 70
192
 0
VERTEX
 8
CUBE
 10
-0.087
 20
-0.1141
 30
0.2126
 70
192
 0
VERTEX
 8
CUBE
 10
-0.0891
 20
-0.1138
 30
0.2126
 70
192
 0
VERTEX
 8
CUBE
 10
-0.0925
 20
-0.1137
 30
0.2126
 70
192
 0
VERTEX
 8
CUBE
 10
-0.0947
 20
-0.1138
 30
0.2126
 70
192
 0
VERTEX
 8
CUBE
 10
-0.0966
 20
-0.1143
 30
0.2126
 70
192
 0
VERTEX
 8
CUBE
 10
-0.0982
 20
-0.1152
 30
0.2126
 70
192
 0
VERTEX
 8
CUBE
 10
-0.0992
 20
-0.1164
 30
0.2126
 70
192
 0
VERTEX
 8
CUBE
 10
-0.0996
 20
-0.1177
 30
0.2126
 70
192
 0
VERTEX
 8
CUBE
 10
-0.0997
 20
-0.1198
 30
0.2126
 70
192
 0
VERTEX
 8
CUBE
 10
-0.0994
 20
-0.1211
 30
0.2126
 70
192
 0
VERTEX
 8
CUBE
 10
-0.0985
 20
-0.1223
 30
0.2126
 70
192
 0
VERTEX
 8
CUBE
 10
-0.097
 20
-0.1233
 30
0.2126
 70
192
 0
VERTEX
 8
CUBE
 10
-0.0951
 20
-0.124
 30
0.2126
 70
192
 0
VERTEX
 8
CUBE
 10
-0.0929
 20
-0.1237
 30
0.2146
 70
192
 0
VERTEX
 8
CUBE
 10
-0.0895
 20
-0.1238
 30
0.2146
 70
192
 0
VERTEX
 8
CUBE
 10
-0.0877
 20
-0.1237
 30
0.2146
 70
192
 0
VERTEX
 8
CUBE
 10
-0.086
 20
-0.1233
 30
0.2146
 70
192
 0
VERTEX
 8
CUBE
 10
-0.0847
 20
-0.1225
 30
0.2146
 70
192
 0
VERTEX
 8
CUBE
 10
-0.0838
 20
-0.1215
 30
0.2146
 70
192
 0
VERTEX
 8
CUBE
 10
-0.0835
 20
-0.1204
 30
0.2146
 70
192
 0
VERTEX
 8
CUBE
 10
-0.0834
 20
-0.1184
 30
0.2146
 70
192
 0
VERTEX
 8
CUBE
 10
-0.0836
 20
-0.1172
 30
0.2146
 70
192
 0
VERTEX
 8
CUBE
 10
-0.0844
 20
-0.1162
 30
0.2146
 70
192
 0
VERTEX
 8
CUBE
 10
-0.0857
 20
-0.1153
 30
0.2146
 70
192
 0
VERTEX
 8
CUBE
 10
-0.0873
 20
-0.1147
 30
0.2146
 70
192
 0
VERTEX
 8
CUBE
 10
-0.0891
 20
-0.1145
 30
0.2146
 70
192
 0
VERTEX
 8
CUBE
 10
-0.0925
 20
-0.1143
 30
0.2146
 70
192
 0
VERTEX
 8
CUBE
 10
-0.0944
 20
-0.1144
 30
0.2146
 70
192
 0
VERTEX
 8
CUBE
 10
-0.096
 20
-0.1149
 30
0.2146
 70
192
 0
VERTEX
 8
CUBE
 10
-0.0974
 20
-0.1156
 30
0.2146
 70
192
 0
VERTEX
 8
CUBE
 10
-0.0983
 20
-0.1166
 30
0.2146
 70
192
 0
VERTEX
 8
CUBE
 10
-0.0986
 20
-0.1177
 30
0.2146
 70
192
 0
VERTEX
 8
CUBE
 10
-0.0987
 20
-0.1198
 30
0.2146
 70
192
 0
VERTEX
 8
CUBE
 10
-0.0984
 20
-0.1209
 30
0.2146
 70
192
 0
VERTEX
 8
CUBE
 10
-0.0976
 20
-0.122
 30
0.2146
 70
192
 0
VERTEX
 8
CUBE
 10
-0.0964
 20
-0.1228
 30
0.2146
 70
192
 0
VERTEX
 8
CUBE
 10
-0.0947
 20
-0.1234
 30
0.2146
 70
192
 0
VERTEX
 8
CUBE
 10
-0.0929
 20
-0.1227
 30
0.2163
 70
192
 0
VERTEX
 8
CUBE
 10
-0.0895
 20
-0.1228
 30
0.2163
 70
192
 0
VERTEX
 8
CUBE
 10
-0.0882
 20
-0.1228
 30
0.2163
 70
192
 0
VERTEX
 8
CUBE
 10
-0.0869
 20
-0.1224
 30
0.2163
 70
192
 0
VERTEX
 8
CUBE
 10
-0.086
 20
-0.1219
 30
0.2163
 70
192
 0
VERTEX
 8
CUBE
 10
-0.0853
 20
-0.1212
 30
0.2163
 70
192
 0
VERTEX
 8
CUBE
 10
-0.0851
 20
-0.1204
 30
0.2163
 70
192
 0
VERTEX
 8
CUBE
 10
-0.085
 20
-0.1183
 30
0.2163
 70
192
 0
VERTEX
 8
CUBE
 10
-0.0852
 20
-0.1175
 30
0.2163
 70
192
 0
VERTEX
 8
CUBE
 10
-0.0857
 20
-0.1167
 30
0.2163
 70
192
 0
VERTEX
 8
CUBE
 10
-0.0867
 20
-0.1161
 30
0.2163
 70
192
 0
VERTEX
 8
CUBE
 10
-0.0879
 20
-0.1156
 30
0.2163
 70
192
 0
VERTEX
 8
CUBE
 10
-0.0892
 20
-0.1155
 30
0.2163
 70
192
 0
VERTEX
 8
CUBE
 10
-0.0926
 20
-0.1153
 30
0.2163
 70
192
 0
VERTEX
 8
CUBE
 10
-0.0939
 20
-0.1154
 30
0.2163
 70
192
 0
VERTEX
 8
CUBE
 10
-0.0951
 20
-0.1157
 30
0.2163
 70
192
 0
VERTEX
 8
CUBE
 10
-0.0961
 20
-0.1163
 30
0.2163
 70
192
 0
VERTEX
 8
CUBE
 10
-0.0967
 20
-0.117
 30
0.2163
 70
192
 0
VERTEX
 8
CUBE
 10
-0.097
 20
-0.1178
 30
0.2163
 70
192
 0
VERTEX
 8
CUBE
 10
-0.0971
 20
-0.1199
 30
0.2163
 70
192
 0
VERTEX
 8
CUBE
 10
-0.0969
 20
-0.1207
 30
0.2163
 70
192
 0
VERTEX
 8
CUBE
 10
-0.0963
 20
-0.1215
 30
0.2163
 70
192
 0
VERTEX
 8
CUBE
 10
-0.0954
 20
-0.1221
 30
0.2163
 70
192
 0
VERTEX
 8
CUBE
 10
-0.0942
 20
-0.1225
 30
0.2163
 70
192
 0
VERTEX
 8
CUBE
 10
-0.0928
 20
-0.1214
 30
0.2173
 70
192
 0
VERTEX
 8
CUBE
 10
-0.0894
 20
-0.1216
 30
0.2173
 70
192
 0
VERTEX
 8
CUBE
 10
-0.0887
 20
-0.1215
 30
0.2173
 70
192
 0
VERTEX
 8
CUBE
 10
-0.0881
 20
-0.1214
 30
0.2173
 70
192
 0
VERTEX
 8
CUBE
 10
-0.0876
 20
-0.1211
 30
0.2173
 70
192
 0
VERTEX
 8
CUBE
 10
-0.0872
 20
-0.1207
 30
0.2173
 70
192
 0
VERTEX
 8
CUBE
 10
-0.0871
 20
-0.1203
 30
0.2173
 70
192
 0
VERTEX
 8
CUBE
 10
-0.087
 20
-0.1182
 30
0.2173
 70
192
 0
VERTEX
 8
CUBE
 10
-0.0871
 20
-0.1178
 30
0.2173
 70
192
 0
VERTEX
 8
CUBE
 10
-0.0874
 20
-0.1174
 30
0.2173
 70
192
 0
VERTEX
 8
CUBE
 10
-0.0879
 20
-0.117
 30
0.2173
 70
192
 0
VERTEX
 8
CUBE
 10
-0.0885
 20
-0.1168
 30
0.2173
 70
192
 0
VERTEX
 8
CUBE
 10
-0.0892
 20
-0.1167
 30
0.2173
 70
192
 0
VERTEX
 8
CUBE
 10
-0.0926
 20
-0.1166
 30
0.2173
 70
192
 0
VERTEX
 8
CUBE
 10
-0.0933
 20
-0.1166
 30
0.2173
 70
192
 0
VERTEX
 8
CUBE
 10
-0.094
 20
-0.1168
 30
0.2173
 70
192
 0
VERTEX
 8
CUBE
 10
-0.0945
 20
-0.1171
 30
0.2173
 70
192
 0
VERTEX
 8
CUBE
 10
-0.0948
 20
-0.1174
 30
0.2173
 70
192
 0
VERTEX
 8
CUBE
 10
-0.0949
 20
-0.1179
 30
0.2173
 70
192
 0
VERTEX
 8
CUBE
 10
-0.095
 20
-0.1199
 30
0.2173
 70
192
 0
VERTEX
 8
CUBE
 10
-0.0949
 20
-0.1204
 30
0.2173
 70
192
 0
VERTEX
 8
CUBE
 10
-0.0946
 20
-0.1208
 30
0.2173
 70
192
 0
VERTEX
 8
CUBE
 10
-0.0941
 20
-0.1211
 30
0.2173
 70
192
 0
VERTEX
 8
CUBE
 10
-0.0935
 20
-0.1213
 30
0.2173
 70
192
 0
VERTEX
 8
CUBE
 10
-0.0928
 20
-0.12
 30
0.2177
 70
192
 0
VERTEX
 8
CUBE
 10
-0.0894
 20
-0.1202
 30
0.2177
 70
192
 0
VERTEX
 8
CUBE
 10
-0.0893
 20
-0.1181
 30
0.2177
 70
192
 0
VERTEX
 8
CUBE
 10
-0.0927
 20
-0.118
 30
0.2177
 70
192
 0
VERTEX
 8
CUBE
 10
0
 20
0
 30
0
 70
128
 71
1
 72
5
 73
6
 74
2
 0
VERTEX
 8
CUBE
 10
0
 20
0
 30
0
 70
128
 71
5
 72
29
 73
30
 74
6
 0
VERTEX
 8
CUBE
 10
0
 20
0
 30
0
 70
128
 71
29
 72
53
 73
54
 74
30
 0
VERTEX
 8
CUBE
 10
0
 20
0
 30
0
 70
128
 71
53
 72
77
 73
78
 74
54
 0
VERTEX
 8
CUBE
 10
0
 20
0
 30
0
 70
128
 71
77
 72
101
 73
102
 74
78
 0
VERTEX
 8
CUBE
 10
0
 20
0
 30
0
 70
128
 71
101
 72
125
 73
126
 74
102
 0
VERTEX
 8
CUBE
 10
0
 20
0
 30
0
 70
128
 71
125
 72
149
 73
150
 74
126
 0
VERTEX
 8
CUBE
 10
0
 20
0
 30
0
 70
128
 71
149
 72
173
 73
174
 74
150
 0
VERTEX
 8
CUBE
 10
0
 20
0
 30
0
 70
128
 71
173
 72
197
 73
198
 74
174
 0
VERTEX
 8
CUBE
 10
0
 20
0
 30
0
 70
128
 71
197
 72
221
 73
222
 74
198
 0
VERTEX
 8
CUBE
 10
0
 20
0
 30
0
 70
128
 71
221
 72
245
 73
246
 74
222
 0
VERTEX
 8
CUBE
 10
0
 20
0
 30
0
 70
128
 71
2
 72
6
 73
7
 74
7
 0
VERTEX
 8
CUBE
 10
0
 20
0
 30
0
 70
128
 71
6
 72
30
 73
31
 74
7
 0
VERTEX
 8
CUBE
 10
0
 20
0
 30
0
 70
128
 71
30
 72
54
 73
55
 74
31
 0
VERTEX
 8
CUBE
 10
0
 20
0
 30
0
 70
128
 71
54
 72
78
 73
79
 74
55
 0
VERTEX
 8
CUBE
 10
0
 20
0
 30
0
 70
128
 71
78
 72
102
 73
103
 74
79
 0
VERTEX
 8
CUBE
 10
0
 20
0
 30
0
 70
128
 71
102
 72
126
 73
127
 74
103
 0
VERTEX
 8
CUBE
 10
0
 20
0
 30
0
 70
128
 71
126
 72
150
 73
151
 74
127
 0
VERTEX
 8
CUBE
 10
0
 20
0
 30
0
 70
128
 71
150
 72
174
 73
175
 74
151
 0
VERTEX
 8
CUBE
 10
0
 20
0
 30
0
 70
128
 71
174
 72
198
 73
199
 74
175
 0
VERTEX
 8
CUBE
 10
0
 20
0
 30
0
 70
128
 71
198
 72
222
 73
223
 74
199
 0
VERTEX
 8
CUBE
 10
0
 20
0
 30
0
 70
128
 71
222
 72
246
 73
223
 74
223
 0
VERTEX
 8
CUBE
 10
0
 20
0
 30
0
 70
128
 71
2
 72
7
 73
8
 74
8
 0
VERTEX
 8
CUBE
 10
0
 20
0
 30
0
 70
128
 71
7
 72
31
 73
32
 74
8
 0
VERTEX
 8
CUBE
 10
0
 20
0
 30
0
 70
128
 71
31
 72
55
 73
56
 74
32
 0
VERTEX
 8
CUBE
 10
0
 20
0
 30
0
 70
128
 71
55
 72
79
 73
80
 74
56
 0
VERTEX
 8
CUBE
 10
0
 20
0
 30
0
 70
128
 71
79
 72
103
 73
104
 74
80
 0
VERTEX
 8
CUBE
 10
0
 20
0
 30
0
 70
128
 71
103
 72
127
 73
128
 74
104
 0
VERTEX
 8
CUBE
 10
0
 20
0
 30
0
 70
128
 71
127
 72
151
 73
152
 74
128
 0
VERTEX
 8
CUBE
 10
0
 20
0
 30
0
 70
128
 71
151
 72
175
 73
176
 74
152
 0
VERTEX
 8
CUBE
 10
0
 20
0
 30
0
 70
128
 71
175
 72
199
 73
200
 74
176
 0
VERTEX
 8
CUBE
 10
0
 20
0
 30
0
 70
128
 71
199
 72
223
 73
224
 74
200
 0
VERTEX
 8
CUBE
 10
0
 20
0
 30
0
 70
128
 71
223
 72
246
 73
224
 74
224
 0
VERTEX
 8
CUBE
 10
0
 20
0
 30
0
 70
128
 71
2
 72
8
 73
9
 74
9
 0
VERTEX
 8
CUBE
 10
0
 20
0
 30
0
 70
128
 71
8
 72
32
 73
33
 74
9
 0
VERTEX
 8
CUBE
 10
0
 20
0
 30
0
 70
128
 71
32
 72
56
 73
57
 74
33
 0
VERTEX
 8
CUBE
 10
0
 20
0
 30
0
 70
128
 71
56
 72
80
 73
81
 74
57
 0
VERTEX
 8
CUBE
 10
0
 20
0
 30
0
 70
128
 71
80
 72
104
 73
105
 74
81
 0
VERTEX
 8
CUBE
 10
0
 20
0
 30
0
 70
128
 71
104
 72
128
 73
129
 74
105
 0
VERTEX
 8
CUBE
 10
0
 20
0
 30
0
 70
128
 71
128
 72
152
 73
153
 74
129
 0
VERTEX
 8
CUBE
 10
0
 20
0
 30
0
 70
128
 71
152
 72
176
 73
177
 74
153
 0
VERTEX
 8
CUBE
 10
0
 20
0
 30
0
 70
128
 71
176
 72
200
 73
201
 74
177
 0
VERTEX
 8
CUBE
 10
0
 20
0
 30
0
 70
128
 71
200
 72
224
 73
225
 74
201
 0
VERTEX
 8
CUBE
 10
0
 20
0
 30
0
 70
128
 71
224
 72
246
 73
225
 74
225
 0
VERTEX
 8
CUBE
 10
0
 20
0
 30
0
 70
128
 71
2
 72
9
 73
10
 74
10
 0
VERTEX
 8
CUBE
 10
0
 20
0
 30
0
 70
128
 71
9
 72
33
 73
34
 74
10
 0
VERTEX
 8
CUBE
 10
0
 20
0
 30
0
 70
128
 71
33
 72
57
 73
58
 74
34
 0
VERTEX
 8
CUBE
 10
0
 20
0
 30
0
 70
128
 71
57
 72
81
 73
82
 74
58
 0
VERTEX
 8
CUBE
 10
0
 20
0
 30
0
 70
128
 71
81
 72
105
 73
106
 74
82
 0
VERTEX
 8
CUBE
 10
0
 20
0
 30
0
 70
128
 71
105
 72
129
 73
130
 74
106
 0
VERTEX
 8
CUBE
 10
0
 20
0
 30
0
 70
128
 71
129
 72
153
 73
154
 74
130
 0
VERTEX
 8
CUBE
 10
0
 20
0
 30
0
 70
128
 71
153
 72
177
 73
178
 74
154
 0
VERTEX
 8
CUBE
 10
0
 20
0
 30
0
 70
128
 71
177
 72
201
 73
202
 74
178
 0
VERTEX
 8
CUBE
 10
0
 20
0
 30
0
 70
128
 71
201
 72
225
 73
226
 74
202
 0
VERTEX
 8
CUBE
 10
0
 20
0
 30
0
 70
128
 71
225
 72
246
 73
226
 74
226
 0
VERTEX
 8
CUBE
 10
0
 20
0
 30
0
 70
128
 71
2
 72
10
 73
11
 74
11
 0
VERTEX
 8
CUBE
 10
0
 20
0
 30
0
 70
128
 71
10
 72
34
 73
35
 74
11
 0
VERTEX
 8
CUBE
 10
0
 20
0
 30
0
 70
128
 71
34
 72
58
 73
59
 74
35
 0
VERTEX
 8
CUBE
 10
0
 20
0
 30
0
 70
128
 71
58
 72
82
 73
83
 74
59
 0
VERTEX
 8
CUBE
 10
0
 20
0
 30
0
 70
128
 71
82
 72
106
 73
107
 74
83
 0
VERTEX
 8
CUBE
 10
0
 20
0
 30
0
 70
128
 71
106
 72
130
 73
131
 74
107
 0
VERTEX
 8
CUBE
 10
0
 20
0
 30
0
 70
128
 71
130
 72
154
 73
155
 74
131
 0
VERTEX
 8
CUBE
 10
0
 20
0
 30
0
 70
128
 71
154
 72
178
 73
179
 74
155
 0
VERTEX
 8
CUBE
 10
0
 20
0
 30
0
 70
128
 71
178
 72
202
 73
203
 74
179
 0
VERTEX
 8
CUBE
 10
0
 20
0
 30
0
 70
128
 71
202
 72
226
 73
227
 74
203
 0
VERTEX
 8
CUBE
 10
0
 20
0
 30
0
 70
128
 71
226
 72
246
 73
227
 74
227
 0
VERTEX
 8
CUBE
 10
0
 20
0
 30
0
 70
128
 71
2
 72
11
 73
12
 74
3
 0
VERTEX
 8
CUBE
 10
0
 20
0
 30
0
 70
128
 71
11
 72
35
 73
36
 74
12
 0
VERTEX
 8
CUBE
 10
0
 20
0
 30
0
 70
128
 71
35
 72
59
 73
60
 74
36
 0
VERTEX
 8
CUBE
 10
0
 20
0
 30
0
 70
128
 71
59
 72
83
 73
84
 74
60
 0
VERTEX
 8
CUBE
 10
0
 20
0
 30
0
 70
128
 71
83
 72
107
 73
108
 74
84
 0
VERTEX
 8
CUBE
 10
0
 20
0
 30
0
 70
128
 71
107
 72
131
 73
132
 74
108
 0
VERTEX
 8
CUBE
 10
0
 20
0
 30
0
 70
128
 71
131
 72
155
 73
156
 74
132
 0
VERTEX
 8
CUBE
 10
0
 20
0
 30
0
 70
128
 71
155
 72
179
 73
180
 74
156
 0
VERTEX
 8
CUBE
 10
0
 20
0
 30
0
 70
128
 71
179
 72
203
 73
204
 74
180
 0
VERTEX
 8
CUBE
 10
0
 20
0
 30
0
 70
128
 71
203
 72
227
 73
228
 74
204
 0
VERTEX
 8
CUBE
 10
0
 20
0
 30
0
 70
128
 71
227
 72
246
 73
247
 74
228
 0
VERTEX
 8
CUBE
 10
0
 20
0
 30
0
 70
128
 71
3
 72
12
 73
13
 74
13
 0
VERTEX
 8
CUBE
 10
0
 20
0
 30
0
 70
128
 71
12
 72
36
 73
37
 74
13
 0
VERTEX
 8
CUBE
 10
0
 20
0
 30
0
 70
128
 71
36
 72
60
 73
61
 74
37
 0
VERTEX
 8
CUBE
 10
0
 20
0
 30
0
 70
128
 71
60
 72
84
 73
85
 74
61
 0
VERTEX
 8
CUBE
 10
0
 20
0
 30
0
 70
128
 71
84
 72
108
 73
109
 74
85
 0
VERTEX
 8
CUBE
 10
0
 20
0
 30
0
 70
128
 71
108
 72
132
 73
133
 74
109
 0
VERTEX
 8
CUBE
 10
0
 20
0
 30
0
 70
128
 71
132
 72
156
 73
157
 74
133
 0
VERTEX
 8
CUBE
 10
0
 20
0
 30
0
 70
128
 71
156
 72
180
 73
181
 74
157
 0
VERTEX
 8
CUBE
 10
0
 20
0
 30
0
 70
128
 71
180
 72
204
 73
205
 74
181
 0
VERTEX
 8
CUBE
 10
0
 20
0
 30
0
 70
128
 71
204
 72
228
 73
229
 74
205
 0
VERTEX
 8
CUBE
 10
0
 20
0
 30
0
 70
128
 71
228
 72
247
 73
229
 74
229
 0
VERTEX
 8
CUBE
 10
0
 20
0
 30
0
 70
128
 71
3
 72
13
 73
14
 74
14
 0
VERTEX
 8
CUBE
 10
0
 20
0
 30
0
 70
128
 71
13
 72
37
 73
38
 74
14
 0
VERTEX
 8
CUBE
 10
0
 20
0
 30
0
 70
128
 71
37
 72
61
 73
62
 74
38
 0
VERTEX
 8
CUBE
 10
0
 20
0
 30
0
 70
128
 71
61
 72
85
 73
86
 74
62
 0
VERTEX
 8
CUBE
 10
0
 20
0
 30
0
 70
128
 71
85
 72
109
 73
110
 74
86
 0
VERTEX
 8
CUBE
 10
0
 20
0
 30
0
 70
128
 71
109
 72
133
 73
134
 74
110
 0
VERTEX
 8
CUBE
 10
0
 20
0
 30
0
 70
128
 71
133
 72
157
 73
158
 74
134
 0
VERTEX
 8
CUBE
 10
0
 20
0
 30
0
 70
128
 71
157
 72
181
 73
182
 74
158
 0
VERTEX
 8
CUBE
 10
0
 20
0
 30
0
 70
128
 71
181
 72
205
 73
206
 74
182
 0
VERTEX
 8
CUBE
 10
0
 20
0
 30
0
 70
128
 71
205
 72
229
 73
230
 74
206
 0
VERTEX
 8
CUBE
 10
0
 20
0
 30
0
 70
128
 71
229
 72
247
 73
230
 74
230
 0
VERTEX
 8
CUBE
 10
0
 20
0
 30
0
 70
128
 71
3
 72
14
 73
15
 74
15
 0
VERTEX
 8
CUBE
 10
0
 20
0
 30
0
 70
128
 71
14
 72
38
 73
39
 74
15
 0
VERTEX
 8
CUBE
 10
0
 20
0
 30
0
 70
128
 71
38
 72
62
 73
63
 74
39
 0
VERTEX
 8
CUBE
 10
0
 20
0
 30
0
 70
128
 71
62
 72
86
 73
87
 74
63
 0
VERTEX
 8
CUBE
 10
0
 20
0
 30
0
 70
128
 71
86
 72
110
 73
111
 74
87
 0
VERTEX
 8
CUBE
 10
0
 20
0
 30
0
 70
128
 71
110
 72
134
 73
135
 74
111
 0
VERTEX
 8
CUBE
 10
0
 20
0
 30
0
 70
128
 71
134
 72
158
 73
159
 74
135
 0
VERTEX
 8
CUBE
 10
0
 20
0
 30
0
 70
128
 71
158
 72
182
 73
183
 74
159
 0
VERTEX
 8
CUBE
 10
0
 20
0
 30
0
 70
128
 71
182
 72
206
 73
207
 74
183
 0
VERTEX
 8
CUBE
 10
0
 20
0
 30
0
 70
128
 71
206
 72
230
 73
231
 74
207
 0
VERTEX
 8
CUBE
 10
0
 20
0
 30
0
 70
128
 71
230
 72
247
 73
231
 74
231
 0
VERTEX
 8
CUBE
 10
0
 20
0
 30
0
 70
128
 71
3
 72
15
 73
16
 74
16
 0
VERTEX
 8
CUBE
 10
0
 20
0
 30
0
 70
128
 71
15
 72
39
 73
40
 74
16
 0
VERTEX
 8
CUBE
 10
0
 20
0
 30
0
 70
128
 71
39
 72
63
 73
64
 74
40
 0
VERTEX
 8
CUBE
 10
0
 20
0
 30
0
 70
128
 71
63
 72
87
 73
88
 74
64
 0
VERTEX
 8
CUBE
 10
0
 20
0
 30
0
 70
128
 71
87
 72
111
 73
112
 74
88
 0
VERTEX
 8
CUBE
 10
0
 20
0
 30
0
 70
128
 71
111
 72
135
 73
136
 74
112
 0
VERTEX
 8
CUBE
 10
0
 20
0
 30
0
 70
128
 71
135
 72
159
 73
160
 74
136
 0
VERTEX
 8
CUBE
 10
0
 20
0
 30
0
 70
128
 71
159
 72
183
 73
184
 74
160
 0
VERTEX
 8
CUBE
 10
0
 20
0
 30
0
 70
128
 71
183
 72
207
 73
208
 74
184
 0
VERTEX
 8
CUBE
 10
0
 20
0
 30
0
 70
128
 71
207
 72
231
 73
232
 74
208
 0
VERTEX
 8
CUBE
 10
0
 20
0
 30
0
 70
128
 71
231
 72
247
 73
232
 74
232
 0
VERTEX
 8
CUBE
 10
0
 20
0
 30
0
 70
128
 71
3
 72
16
 73
17
 74
17
 0
VERTEX
 8
CUBE
 10
0
 20
0
 30
0
 70
128
 71
16
 72
40
 73
41
 74
17
 0
VERTEX
 8
CUBE
 10
0
 20
0
 30
0
 70
128
 71
40
 72
64
 73
65
 74
41
 0
VERTEX
 8
CUBE
 10
0
 20
0
 30
0
 70
128
 71
64
 72
88
 73
89
 74
65
 0
VERTEX
 8
CUBE
 10
0
 20
0
 30
0
 70
128
 71
88
 72
112
 73
113
 74
89
 0
VERTEX
 8
CUBE
 10
0
 20
0
 30
0
 70
128
 71
112
 72
136
 73
137
 74
113
 0
VERTEX
 8
CUBE
 10
0
 20
0
 30
0
 70
128
 71
136
 72
160
 73
161
 74
137
 0
VERTEX
 8
CUBE
 10
0
 20
0
 30
0
 70
128
 71
160
 72
184
 73
185
 74
161
 0
VERTEX
 8
CUBE
 10
0
 20
0
 30
0
 70
128
 71
184
 72
208
 73
209
 74
185
 0
VERTEX
 8
CUBE
 10
0
 20
0
 30
0
 70
128
 71
208
 72
232
 73
233
 74
209
 0
VERTEX
 8
CUBE
 10
0
 20
0
 30
0
 70
128
 71
232
 72
247
 73
233
 74
233
 0
VERTEX
 8
CUBE
 10
0
 20
0
 30
0
 70
128
 71
3
 72
17
 73
18
 74
4
 0
VERTEX
 8
CUBE
 10
0
 20
0
 30
0
 70
128
 71
17
 72
41
 73
42
 74
18
 0
VERTEX
 8
CUBE
 10
0
 20
0
 30
0
 70
128
 71
41
 72
65
 73
66
 74
42
 0
VERTEX
 8
CUBE
 10
0
 20
0
 30
0
 70
128
 71
65
 72
89
 73
90
 74
66
 0
VERTEX
 8
CUBE
 10
0
 20
0
 30
0
 70
128
 71
89
 72
113
 73
114
 74
90
 0
VERTEX
 8
CUBE
 10
0
 20
0
 30
0
 70
128
 71
113
 72
137
 73
138
 74
114
 0
VERTEX
 8
CUBE
 10
0
 20
0
 30
0
 70
128
 71
137
 72
161
 73
162
 74
138
 0
VERTEX
 8
CUBE
 10
0
 20
0
 30
0
 70
128
 71
161
 72
185
 73
186
 74
162
 0
VERTEX
 8
CUBE
 10
0
 20
0
 30
0
 70
128
 71
185
 72
209
 73
210
 74
186
 0
VERTEX
 8
CUBE
 10
0
 20
0
 30
0
 70
128
 71
209
 72
233
 73
234
 74
210
 0
VERTEX
 8
CUBE
 10
0
 20
0
 30
0
 70
128
 71
233
 72
247
 73
248
 74
234
 0
VERTEX
 8
CUBE
 10
0
 20
0
 30
0
 70
128
 71
4
 72
18
 73
19
 74
19
 0
VERTEX
 8
CUBE
 10
0
 20
0
 30
0
 70
128
 71
18
 72
42
 73
43
 74
19
 0
VERTEX
 8
CUBE
 10
0
 20
0
 30
0
 70
128
 71
42
 72
66
 73
67
 74
43
 0
VERTEX
 8
CUBE
 10
0
 20
0
 30
0
 70
128
 71
66
 72
90
 73
91
 74
67
 0
VERTEX
 8
CUBE
 10
0
 20
0
 30
0
 70
128
 71
90
 72
114
 73
115
 74
91
 0
VERTEX
 8
CUBE
 10
0
 20
0
 30
0
 70
128
 71
114
 72
138
 73
139
 74
115
 0
VERTEX
 8
CUBE
 10
0
 20
0
 30
0
 70
128
 71
138
 72
162
 73
163
 74
139
 0
VERTEX
 8
CUBE
 10
0
 20
0
 30
0
 70
128
 71
162
 72
186
 73
187
 74
163
 0
VERTEX
 8
CUBE
 10
0
 20
0
 30
0
 70
128
 71
186
 72
210
 73
211
 74
187
 0
VERTEX
 8
CUBE
 10
0
 20
0
 30
0
 70
128
 71
210
 72
234
 73
235
 74
211
 0
VERTEX
 8
CUBE
 10
0
 20
0
 30
0
 70
128
 71
234
 72
248
 73
235
 74
235
 0
VERTEX
 8
CUBE
 10
0
 20
0
 30
0
 70
128
 71
4
 72
19
 73
20
 74
20
 0
VERTEX
 8
CUBE
 10
0
 20
0
 30
0
 70
128
 71
19
 72
43
 73
44
 74
20
 0
VERTEX
 8
CUBE
 10
0
 20
0
 30
0
 70
128
 71
43
 72
67
 73
68
 74
44
 0
VERTEX
 8
CUBE
 10
0
 20
0
 30
0
 70
128
 71
67
 72
91
 73
92
 74
68
 0
VERTEX
 8
CUBE
 10
0
 20
0
 30
0
 70
128
 71
91
 72
115
 73
116
 74
92
 0
VERTEX
 8
CUBE
 10
0
 20
0
 30
0
 70
128
 71
115
 72
139
 73
140
 74
116
 0
VERTEX
 8
CUBE
 10
0
 20
0
 30
0
 70
128
 71
139
 72
163
 73
164
 74
140
 0
VERTEX
 8
CUBE
 10
0
 20
0
 30
0
 70
128
 71
163
 72
187
 73
188
 74
164
 0
VERTEX
 8
CUBE
 10
0
 20
0
 30
0
 70
128
 71
187
 72
211
 73
212
 74
188
 0
VERTEX
 8
CUBE
 10
0
 20
0
 30
0
 70
128
 71
211
 72
235
 73
236
 74
212
 0
VERTEX
 8
CUBE
 10
0
 20
0
 30
0
 70
128
 71
235
 72
248
 73
236
 74
236
 0
VERTEX
 8
CUBE
 10
0
 20
0
 30
0
 70
128
 71
4
 72
20
 73
21
 74
21
 0
VERTEX
 8
CUBE
 10
0
 20
0
 30
0
 70
128
 71
20
 72
44
 73
45
 74
21
 0
VERTEX
 8
CUBE
 10
0
 20
0
 30
0
 70
128
 71
44
 72
68
 73
69
 74
45
 0
VERTEX
 8
CUBE
 10
0
 20
0
 30
0
 70
128
 71
68
 72
92
 73
93
 74
69
 0
VERTEX
 8
CUBE
 10
0
 20
0
 30
0
 70
128
 71
92
 72
116
 73
117
 74
93
 0
VERTEX
 8
CUBE
 10
0
 20
0
 30
0
 70
128
 71
116
 72
140
 73
141
 74
117
 0
VERTEX
 8
CUBE
 10
0
 20
0
 30
0
 70
128
 71
140
 72
164
 73
165
 74
141
 0
VERTEX
 8
CUBE
 10
0
 20
0
 30
0
 70
128
 71
164
 72
188
 73
189
 74
165
 0
VERTEX
 8
CUBE
 10
0
 20
0
 30
0
 70
128
 71
188
 72
212
 73
213
 74
189
 0
VERTEX
 8
CUBE
 10
0
 20
0
 30
0
 70
128
 71
212
 72
236
 73
237
 74
213
 0
VERTEX
 8
CUBE
 10
0
 20
0
 30
0
 70
128
 71
236
 72
248
 73
237
 74
237
 0
VERTEX
 8
CUBE
 10
0
 20
0
 30
0
 70
128
 71
4
 72
21
 73
22
 74
22
 0
VERTEX
 8
CUBE
 10
0
 20
0
 30
0
 70
128
 71
21
 72
45
 73
46
 74
22
 0
VERTEX
 8
CUBE
 10
0
 20
0
 30
0
 70
128
 71
45
 72
69
 73
70
 74
46
 0
VERTEX
 8
CUBE
 10
0
 20
0
 30
0
 70
128
 71
69
 72
93
 73
94
 74
70
 0
VERTEX
 8
CUBE
 10
0
 20
0
 30
0
 70
128
 71
93
 72
117
 73
118
 74
94
 0
VERTEX
 8
CUBE
 10
0
 20
0
 30
0
 70
128
 71
117
 72
141
 73
142
 74
118
 0
VERTEX
 8
CUBE
 10
0
 20
0
 30
0
 70
128
 71
141
 72
165
 73
166
 74
142
 0
VERTEX
 8
CUBE
 10
0
 20
0
 30
0
 70
128
 71
165
 72
189
 73
190
 74
166
 0
VERTEX
 8
CUBE
 10
0
 20
0
 30
0
 70
128
 71
189
 72
213
 73
214
 74
190
 0
VERTEX
 8
CUBE
 10
0
 20
0
 30
0
 70
128
 71
213
 72
237
 73
238
 74
214
 0
VERTEX
 8
CUBE
 10
0
 20
0
 30
0
 70
128
 71
237
 72
248
 73
238
 74
238
 0
VERTEX
 8
CUBE
 10
0
 20
0
 30
0
 70
128
 71
4
 72
22
 73
23
 74
23
 0
VERTEX
 8
CUBE
 10
0
 20
0
 30
0
 70
128
 71
22
 72
46
 73
47
 74
23
 0
VERTEX
 8
CUBE
 10
0
 20
0
 30
0
 70
128
 71
46
 72
70
 73
71
 74
47
 0
VERTEX
 8
CUBE
 10
0
 20
0
 30
0
 70
128
 71
70
 72
94
 73
95
 74
71
 0
VERTEX
 8
CUBE
 10
0
 20
0
 30
0
 70
128
 71
94
 72
118
 73
119
 74
95
 0
VERTEX
 8
CUBE
 10
0
 20
0
 30
0
 70
128
 71
118
 72
142
 73
143
 74
119
 0
VERTEX
 8
CUBE
 10
0
 20
0
 30
0
 70
128
 71
142
 72
166
 73
167
 74
143
 0
VERTEX
 8
CUBE
 10
0
 20
0
 30
0
 70
128
 71
166
 72
190
 73
191
 74
167
 0
VERTEX
 8
CUBE
 10
0
 20
0
 30
0
 70
128
 71
190
 72
214
 73
215
 74
191
 0
VERTEX
 8
CUBE
 10
0
 20
0
 30
0
 70
128
 71
214
 72
238
 73
239
 74
215
 0
VERTEX
 8
CUBE
 10
0
 20
0
 30
0
 70
128
 71
238
 72
248
 73
239
 74
239
 0
VERTEX
 8
CUBE
 10
0
 20
0
 30
0
 70
128
 71
4
 72
23
 73
24
 74
1
 0
VERTEX
 8
CUBE
 10
0
 20
0
 30
0
 70
128
 71
23
 72
47
 73
48
 74
24
 0
VERTEX
 8
CUBE
 10
0
 20
0
 30
0
 70
128
 71
47
 72
71
 73
72
 74
48
 0
VERTEX
 8
CUBE
 10
0
 20
0
 30
0
 70
128
 71
71
 72
95
 73
96
 74
72
 0
VERTEX
 8
CUBE
 10
0
 20
0
 30
0
 70
128
 71
95
 72
119
 73
120
 74
96
 0
VERTEX
 8
CUBE
 10
0
 20
0
 30
0
 70
128
 71
119
 72
143
 73
144
 74
120
 0
VERTEX
 8
CUBE
 10
0
 20
0
 30
0
 70
128
 71
143
 72
167
 73
168
 74
144
 0
VERTEX
 8
CUBE
 10
0
 20
0
 30
0
 70
128
 71
167
 72
191
 73
192
 74
168
 0
VERTEX
 8
CUBE
 10
0
 20
0
 30
0
 70
128
 71
191
 72
215
 73
216
 74
192
 0
VERTEX
 8
CUBE
 10
0
 20
0
 30
0
 70
128
 71
215
 72
239
 73
240
 74
216
 0
VERTEX
 8
CUBE
 10
0
 20
0
 30
0
 70
128
 71
239
 72
248
 73
245
 74
240
 0
VERTEX
 8
CUBE
 10
0
 20
0
 30
0
 70
128
 71
1
 72
24
 73
25
 74
25
 0
VERTEX
 8
CUBE
 10
0
 20
0
 30
0
 70
128
 71
24
 72
48
 73
49
 74
25
 0
VERTEX
 8
CUBE
 10
0
 20
0
 30
0
 70
128
 71
48
 72
72
 73
73
 74
49
 0
VERTEX
 8
CUBE
 10
0
 20
0
 30
0
 70
128
 71
72
 72
96
 73
97
 74
73
 0
VERTEX
 8
CUBE
 10
0
 20
0
 30
0
 70
128
 71
96
 72
120
 73
121
 74
97
 0
VERTEX
 8
CUBE
 10
0
 20
0
 30
0
 70
128
 71
120
 72
144
 73
145
 74
121
 0
VERTEX
 8
CUBE
 10
0
 20
0
 30
0
 70
128
 71
144
 72
168
 73
169
 74
145
 0
VERTEX
 8
CUBE
 10
0
 20
0
 30
0
 70
128
 71
168
 72
192
 73
193
 74
169
 0
VERTEX
 8
CUBE
 10
0
 20
0
 30
0
 70
128
 71
192
 72
216
 73
217
 74
193
 0
VERTEX
 8
CUBE
 10
0
 20
0
 30
0
 70
128
 71
216
 72
240
 73
241
 74
217
 0
VERTEX
 8
CUBE
 10
0
 20
0
 30
0
 70
128
 71
240
 72
245
 73
241
 74
241
 0
VERTEX
 8
CUBE
 10
0
 20
0
 30
0
 70
128
 71
1
 72
25
 73
26
 74
26
 0
VERTEX
 8
CUBE
 10
0
 20
0
 30
0
 70
128
 71
25
 72
49
 73
50
 74
26
 0
VERTEX
 8
CUBE
 10
0
 20
0
 30
0
 70
128
 71
49
 72
73
 73
74
 74
50
 0
VERTEX
 8
CUBE
 10
0
 20
0
 30
0
 70
128
 71
73
 72
97
 73
98
 74
74
 0
VERTEX
 8
CUBE
 10
0
 20
0
 30
0
 70
128
 71
97
 72
121
 73
122
 74
98
 0
VERTEX
 8
CUBE
 10
0
 20
0
 30
0
 70
128
 71
121
 72
145
 73
146
 74
122
 0
VERTEX
 8
CUBE
 10
0
 20
0
 30
0
 70
128
 71
145
 72
169
 73
170
 74
146
 0
VERTEX
 8
CUBE
 10
0
 20
0
 30
0
 70
128
 71
169
 72
193
 73
194
 74
170
 0
VERTEX
 8
CUBE
 10
0
 20
0
 30
0
 70
128
 71
193
 72
217
 73
218
 74
194
 0
VERTEX
 8
CUBE
 10
0
 20
0
 30
0
 70
128
 71
217
 72
241
 73
242
 74
218
 0
VERTEX
 8
CUBE
 10
0
 20
0
 30
0
 70
128
 71
241
 72
245
 73
242
 74
242
 0
VERTEX
 8
CUBE
 10
0
 20
0
 30
0
 70
128
 71
1
 72
26
 73
27
 74
27
 0
VERTEX
 8
CUBE
 10
0
 20
0
 30
0
 70
128
 71
26
 72
50
 73
51
 74
27
 0
VERTEX
 8
CUBE
 10
0
 20
0
 30
0
 70
128
 71
50
 72
74
 73
75
 74
51
 0
VERTEX
 8
CUBE
 10
0
 20
0
 30
0
 70
128
 71
74
 72
98
 73
99
 74
75
 0
VERTEX
 8
CUBE
 10
0
 20
0
 30
0
 70
128
 71
98
 72
122
 73
123
 74
99
 0
VERTEX
 8
CUBE
 10
0
 20
0
 30
0
 70
128
 71
122
 72
146
 73
147
 74
123
 0
VERTEX
 8
CUBE
 10
0
 20
0
 30
0
 70
128
 71
146
 72
170
 73
171
 74
147
 0
VERTEX
 8
CUBE
 10
0
 20
0
 30
0
 70
128
 71
170
 72
194
 73
195
 74
171
 0
VERTEX
 8
CUBE
 10
0
 20
0
 30
0
 70
128
 71
194
 72
218
 73
219
 74
195
 0
VERTEX
 8
CUBE
 10
0
 20
0
 30
0
 70
128
 71
218
 72
242
 73
243
 74
219
 0
VERTEX
 8
CUBE
 10
0
 20
0
 30
0
 70
128
 71
242
 72
245
 73
243
 74
243
 0
VERTEX
 8
CUBE
 10
0
 20
0
 30
0
 70
128
 71
1
 72
27
 73
28
 74
28
 0
VERTEX
 8
CUBE
 10
0
 20
0
 30
0
 70
128
 71
27
 72
51
 73
52
 74
28
 0
VERTEX
 8
CUBE
 10
0
 20
0
 30
0
 70
128
 71
51
 72
75
 73
76
 74
52
 0
VERTEX
 8
CUBE
 10
0
 20
0
 30
0
 70
128
 71
75
 72
99
 73
100
 74
76
 0
VERTEX
 8
CUBE
 10
0
 20
0
 30
0
 70
128
 71
99
 72
123
 73
124
 74
100
 0
VERTEX
 8
CUBE
 10
0
 20
0
 30
0
 70
128
 71
123
 72
147
 73
148
 74
124
 0
VERTEX
 8
CUBE
 10
0
 20
0
 30
0
 70
128
 71
147
 72
171
 73
172
 74
148
 0
VERTEX
 8
CUBE
 10
0
 20
0
 30
0
 70
128
 71
171
 72
195
 73
196
 74
172
 0
VERTEX
 8
CUBE
 10
0
 20
0
 30
0
 70
128
 71
195
 72
219
 73
220
 74
196
 0
VERTEX
 8
CUBE
 10
0
 20
0
 30
0
 70
128
 71
219
 72
243
 73
244
 74
220
 0
VERTEX
 8
CUBE
 10
0
 20
0
 30
0
 70
128
 71
243
 72
245
 73
244
 74
244
 0
VERTEX
 8
CUBE
 10
0
 20
0
 30
0
 70
128
 71
1
 72
28
 73
5
 74
5
 0
VERTEX
 8
CUBE
 10
0
 20
0
 30
0
 70
128
 71
28
 72
52
 73
29
 74
5
 0
VERTEX
 8
CUBE
 10
0
 20
0
 30
0
 70
128
 71
52
 72
76
 73
53
 74
29
 0
VERTEX
 8
CUBE
 10
0
 20
0
 30
0
 70
128
 71
76
 72
100
 73
77
 74
53
 0
VERTEX
 8
CUBE
 10
0
 20
0
 30
0
 70
128
 71
100
 72
124
 73
101
 74
77
 0
VERTEX
 8
CUBE
 10
0
 20
0
 30
0
 70
128
 71
124
 72
148
 73
125
 74
101
 0
VERTEX
 8
CUBE
 10
0
 20
0
 30
0
 70
128
 71
148
 72
172
 73
149
 74
125
 0
VERTEX
 8
CUBE
 10
0
 20
0
 30
0
 70
128
 71
172
 72
196
 73
173
 74
149
 0
VERTEX
 8
CUBE
 10
0
 20
0
 30
0
 70
128
 71
196
 72
220
 73
197
 74
173
 0
VERTEX
 8
CUBE
 10
0
 20
0
 30
0
 70
128
 71
220
 72
244
 73
221
 74
197
 0
VERTEX
 8
CUBE
 10
0
 20
0
 30
0
 70
128
 71
244
 72
245
 73
221
 74
221
 0
VERTEX
 8
CUBE
 10
0
 20
0
 30
0
 70
128
 71
245
 72
248
 73
247
 74
246
 0
VERTEX
 8
CUBE
 10
0
 20
0
 30
0
 70
128
 71
1
 72
2
 73
3
 74
4
 0
SEQEND
 0
POLYLINE
 8
HEAD_1
 66
1
 10
0.0
 20
0.0
 30
0.0
 70
64
 71
248
 72
266
 0
VERTEX
 8
HEAD_1
 10
-0.0888
 20
-0.0777
 30
0.121
 70
192
 0
VERTEX
 8
HEAD_1
 10
0.031
 20
-0.0827
 30
0.121
 70
192
 0
VERTEX
 8
HEAD_1
 10
0.0361
 20
0.0372
 30
0.121
 70
192
 0
VERTEX
 8
HEAD_1
 10
-0.0838
 20
0.0422
 30
0.121
 70
192
 0
VERTEX
 8
HEAD_1
 10
-0.0894
 20
-0.09
 30
0.123
 70
192
 0
VERTEX
 8
HEAD_1
 10
0.0305
 20
-0.0951
 30
0.123
 70
192
 0
VERTEX
 8
HEAD_1
 10
0.0344
 20
-0.0946
 30
0.123
 70
192
 0
VERTEX
 8
HEAD_1
 10
0.0379
 20
-0.093
 30
0.123
 70
192
 0
VERTEX
 8
HEAD_1
 10
0.0407
 20
-0.0904
 30
0.123
 70
192
 0
VERTEX
 8
HEAD_1
 10
0.0426
 20
-0.087
 30
0.123
 70
192
 0
VERTEX
 8
HEAD_1
 10
0.0434
 20
-0.0832
 30
0.123
 70
192
 0
VERTEX
 8
HEAD_1
 10
0.0484
 20
0.0367
 30
0.123
 70
192
 0
VERTEX
 8
HEAD_1
 10
0.048
 20
0.0405
 30
0.123
 70
192
 0
VERTEX
 8
HEAD_1
 10
0.0464
 20
0.044
 30
0.123
 70
192
 0
VERTEX
 8
HEAD_1
 10
0.0437
 20
0.0469
 30
0.123
 70
192
 0
VERTEX
 8
HEAD_1
 10
0.0404
 20
0.0488
 30
0.123
 70
192
 0
VERTEX
 8
HEAD_1
 10
0.0366
 20
0.0495
 30
0.123
 70
192
 0
VERTEX
 8
HEAD_1
 10
-0.0833
 20
0.0546
 30
0.123
 70
192
 0
VERTEX
 8
HEAD_1
 10
-0.0871
 20
0.0541
 30
0.123
 70
192
 0
VERTEX
 8
HEAD_1
 10
-0.0907
 20
0.0525
 30
0.123
 70
192
 0
VERTEX
 8
HEAD_1
 10
-0.0935
 20
0.0499
 30
0.123
 70
192
 0
VERTEX
 8
HEAD_1
 10
-0.0954
 20
0.0465
 30
0.123
 70
192
 0
VERTEX
 8
HEAD_1
 10
-0.0962
 20
0.0427
 30
0.123
 70
192
 0
VERTEX
 8
HEAD_1
 10
-0.1012
 20
-0.0772
 30
0.123
 70
192
 0
VERTEX
 8
HEAD_1
 10
-0.1008
 20
-0.081
 30
0.123
 70
192
 0
VERTEX
 8
HEAD_1
 10
-0.0991
 20
-0.0845
 30
0.123
 70
192
 0
VERTEX
 8
HEAD_1
 10
-0.0965
 20
-0.0874
 30
0.123
 70
192
 0
VERTEX
 8
HEAD_1
 10
-0.0932
 20
-0.0893
 30
0.123
 70
192
 0
VERTEX
 8
HEAD_1
 10
-0.0898
 20
-0.1012
 30
0.1287
 70
192
 0
VERTEX
 8
HEAD_1
 10
0.0301
 20
-0.1062
 30
0.1287
 70
192
 0
VERTEX
 8
HEAD_1
 10
0.0374
 20
-0.1054
 30
0.1287
 70
192
 0
VERTEX
 8
HEAD_1
 10
0.0441
 20
-0.1023
 30
0.1287
 70
192
 0
VERTEX
 8
HEAD_1
 10
0.0495
 20
-0.0973
 30
0.1287
 70
192
 0
VERTEX
 8
HEAD_1
 10
0.0531
 20
-0.0909
 30
0.1287
 70
192
 0
VERTEX
 8
HEAD_1
 10
0.0545
 20
-0.0837
 30
0.1287
 70
192
 0
VERTEX
 8
HEAD_1
 10
0.0596
 20
0.0362
 30
0.1287
 70
192
 0
VERTEX
 8
HEAD_1
 10
0.0587
 20
0.0435
 30
0.1287
 70
192
 0
VERTEX
 8
HEAD_1
 10
0.0557
 20
0.0502
 30
0.1287
 70
192
 0
VERTEX
 8
HEAD_1
 10
0.0507
 20
0.0556
 30
0.1287
 70
192
 0
VERTEX
 8
HEAD_1
 10
0.0443
 20
0.0592
 30
0.1287
 70
192
 0
VERTEX
 8
HEAD_1
 10
0.0371
 20
0.0607
 30
0.1287
 70
192
 0
VERTEX
 8
HEAD_1
 10
-0.0828
 20
0.0657
 30
0.1287
 70
192
 0
VERTEX
 8
HEAD_1
 10
-0.0901
 20
0.0649
 30
0.1287
 70
192
 0
VERTEX
 8
HEAD_1
 10
-0.0968
 20
0.0618
 30
0.1287
 70
192
 0
VERTEX
 8
HEAD_1
 10
-0.1023
 20
0.0568
 30
0.1287
 70
192
 0
VERTEX
 8
HEAD_1
 10
-0.1059
 20
0.0504
 30
0.1287
 70
192
 0
VERTEX
 8
HEAD_1
 10
-0.1073
 20
0.0432
 30
0.1287
 70
192
 0
VERTEX
 8
HEAD_1
 10
-0.1123
 20
-0.0767
 30
0.1287
 70
192
 0
VERTEX
 8
HEAD_1
 10
-0.1115
 20
-0.084
 30
0.1287
 70
192
 0
VERTEX
 8
HEAD_1
 10
-0.1084
 20
-0.0907
 30
0.1287
 70
192
 0
VERTEX
 8
HEAD_1
 10
-0.1035
 20
-0.0961
 30
0.1287
 70
192
 0
VERTEX
 8
HEAD_1
 10
-0.097
 20
-0.0997
 30
0.1287
 70
192
 0
VERTEX
 8
HEAD_1
 10
-0.0902
 20
-0.11
 30
0.1375
 70
192
 0
VERTEX
 8
HEAD_1
 10
0.0297
 20
-0.115
 30
0.1375
 70
192
 0
VERTEX
 8
HEAD_1
 10
0.0397
 20
-0.1139
 30
0.1375
 70
192
 0
VERTEX
 8
HEAD_1
 10
0.049
 20
-0.1097
 30
0.1375
 70
192
 0
VERTEX
 8
HEAD_1
 10
0.0564
 20
-0.1028
 30
0.1375
 70
192
 0
VERTEX
 8
HEAD_1
 10
0.0614
 20
-0.094
 30
0.1375
 70
192
 0
VERTEX
 8
HEAD_1
 10
0.0634
 20
-0.0841
 30
0.1375
 70
192
 0
VERTEX
 8
HEAD_1
 10
0.0684
 20
0.0358
 30
0.1375
 70
192
 0
VERTEX
 8
HEAD_1
 10
0.0672
 20
0.0459
 30
0.1375
 70
192
 0
VERTEX
 8
HEAD_1
 10
0.063
 20
0.0551
 30
0.1375
 70
192
 0
VERTEX
 8
HEAD_1
 10
0.0562
 20
0.0625
 30
0.1375
 70
192
 0
VERTEX
 8
HEAD_1
 10
0.0474
 20
0.0675
 30
0.1375
 70
192
 0
VERTEX
 8
HEAD_1
 10
0.0374
 20
0.0695
 30
0.1375
 70
192
 0
VERTEX
 8
HEAD_1
 10
-0.0825
 20
0.0745
 30
0.1375
 70
192
 0
VERTEX
 8
HEAD_1
 10
-0.0925
 20
0.0734
 30
0.1375
 70
192
 0
VERTEX
 8
HEAD_1
 10
-0.1017
 20
0.0692
 30
0.1375
 70
192
 0
VERTEX
 8
HEAD_1
 10
-0.1092
 20
0.0623
 30
0.1375
 70
192
 0
VERTEX
 8
HEAD_1
 10
-0.1142
 20
0.0535
 30
0.1375
 70
192
 0
VERTEX
 8
HEAD_1
 10
-0.1162
 20
0.0436
 30
0.1375
 70
192
 0
VERTEX
 8
HEAD_1
 10
-0.1212
 20
-0.0763
 30
0.1375
 70
192
 0
VERTEX
 8
HEAD_1
 10
-0.12
 20
-0.0864
 30
0.1375
 70
192
 0
VERTEX
 8
HEAD_1
 10
-0.1158
 20
-0.0956
 30
0.1375
 70
192
 0
VERTEX
 8
HEAD_1
 10
-0.109
 20
-0.103
 30
0.1375
 70
192
 0
VERTEX
 8
HEAD_1
 10
-0.1001
 20
-0.108
 30
0.1375
 70
192
 0
VERTEX
 8
HEAD_1
 10
-0.0904
 20
-0.1157
 30
0.1487
 70
192
 0
VERTEX
 8
HEAD_1
 10
0.0295
 20
-0.1207
 30
0.1487
 70
192
 0
VERTEX
 8
HEAD_1
 10
0.0413
 20
-0.1193
 30
0.1487
 70
192
 0
VERTEX
 8
HEAD_1
 10
0.0521
 20
-0.1144
 30
0.1487
 70
192
 0
VERTEX
 8
HEAD_1
 10
0.0609
 20
-0.1063
 30
0.1487
 70
192
 0
VERTEX
 8
HEAD_1
 10
0.0667
 20
-0.096
 30
0.1487
 70
192
 0
VERTEX
 8
HEAD_1
 10
0.0691
 20
-0.0843
 30
0.1487
 70
192
 0
VERTEX
 8
HEAD_1
 10
0.0741
 20
0.0356
 30
0.1487
 70
192
 0
VERTEX
 8
HEAD_1
 10
0.0727
 20
0.0474
 30
0.1487
 70
192
 0
VERTEX
 8
HEAD_1
 10
0.0678
 20
0.0582
 30
0.1487
 70
192
 0
VERTEX
 8
HEAD_1
 10
0.0597
 20
0.067
 30
0.1487
 70
192
 0
VERTEX
 8
HEAD_1
 10
0.0493
 20
0.0728
 30
0.1487
 70
192
 0
VERTEX
 8
HEAD_1
 10
0.0377
 20
0.0752
 30
0.1487
 70
192
 0
VERTEX
 8
HEAD_1
 10
-0.0822
 20
0.0802
 30
0.1487
 70
192
 0
VERTEX
 8
HEAD_1
 10
-0.0941
 20
0.0789
 30
0.1487
 70
192
 0
VERTEX
 8
HEAD_1
 10
-0.1049
 20
0.0739
 30
0.1487
 70
192
 0
VERTEX
 8
HEAD_1
 10
-0.1136
 20
0.0658
 30
0.1487
 70
192
 0
VERTEX
 8
HEAD_1
 10
-0.1195
 20
0.0555
 30
0.1487
 70
192
 0
VERTEX
 8
HEAD_1
 10
-0.1218
 20
0.0438
 30
0.1487
 70
192
 0
VERTEX
 8
HEAD_1
 10
-0.1269
 20
-0.0761
 30
0.1487
 70
192
 0
VERTEX
 8
HEAD_1
 10
-0.1255
 20
-0.0879
 30
0.1487
 70
192
 0
VERTEX
 8
HEAD_1
 10
-0.1205
 20
-0.0987
 30
0.1487
 70
192
 0
VERTEX
 8
HEAD_1
 10
-0.1125
 20
-0.1075
 30
0.1487
 70
192
 0
VERTEX
 8
HEAD_1
 10
-0.1021
 20
-0.1133
 30
0.1487
 70
192
 0
VERTEX
 8
HEAD_1
 10
-0.0905
 20
-0.1176
 30
0.161
 70
192
 0
VERTEX
 8
HEAD_1
 10
0.0294
 20
-0.1227
 30
0.161
 70
192
 0
VERTEX
 8
HEAD_1
 10
0.0418
 20
-0.1212
 30
0.161
 70
192
 0
VERTEX
 8
HEAD_1
 10
0.0532
 20
-0.116
 30
0.161
 70
192
 0
VERTEX
 8
HEAD_1
 10
0.0624
 20
-0.1076
 30
0.161
 70
192
 0
VERTEX
 8
HEAD_1
 10
0.0685
 20
-0.0967
 30
0.161
 70
192
 0
VERTEX
 8
HEAD_1
 10
0.071
 20
-0.0844
 30
0.161
 70
192
 0
VERTEX
 8
HEAD_1
 10
0.076
 20
0.0355
 30
0.161
 70
192
 0
VERTEX
 8
HEAD_1
 10
0.0746
 20
0.0479
 30
0.161
 70
192
 0
VERTEX
 8
HEAD_1
 10
0.0694
 20
0.0593
 30
0.161
 70
192
 0
VERTEX
 8
HEAD_1
 10
0.0609
 20
0.0685
 30
0.161
 70
192
 0
VERTEX
 8
HEAD_1
 10
0.05
 20
0.0747
 30
0.161
 70
192
 0
VERTEX
 8
HEAD_1
 10
0.0377
 20
0.0772
 30
0.161
 70
192
 0
VERTEX
 8
HEAD_1
 10
-0.0821
 20
0.0822
 30
0.161
 70
192
 0
VERTEX
 8
HEAD_1
 10
-0.0946
 20
0.0807
 30
0.161
 70
192
 0
VERTEX
 8
HEAD_1
 10
-0.106
 20
0.0755
 30
0.161
 70
192
 0
VERTEX
 8
HEAD_1
 10
-0.1152
 20
0.0671
 30
0.161
 70
192
 0
VERTEX
 8
HEAD_1
 10
-0.1213
 20
0.0562
 30
0.161
 70
192
 0
VERTEX
 8
HEAD_1
 10
-0.1238
 20
0.0439
 30
0.161
 70
192
 0
VERTEX
 8
HEAD_1
 10
-0.1288
 20
-0.076
 30
0.161
 70
192
 0
VERTEX
 8
HEAD_1
 10
-0.1274
 20
-0.0884
 30
0.161
 70
192
 0
VERTEX
 8
HEAD_1
 10
-0.1222
 20
-0.0998
 30
0.161
 70
192
 0
VERTEX
 8
HEAD_1
 10
-0.1137
 20
-0.109
 30
0.161
 70
192
 0
VERTEX
 8
HEAD_1
 10
-0.1028
 20
-0.1152
 30
0.161
 70
192
 0
VERTEX
 8
HEAD_1
 10
-0.0905
 20
-0.1176
 30
0.281
 70
192
 0
VERTEX
 8
HEAD_1
 10
0.0294
 20
-0.1227
 30
0.281
 70
192
 0
VERTEX
 8
HEAD_1
 10
0.0418
 20
-0.1212
 30
0.281
 70
192
 0
VERTEX
 8
HEAD_1
 10
0.0532
 20
-0.116
 30
0.281
 70
192
 0
VERTEX
 8
HEAD_1
 10
0.0624
 20
-0.1076
 30
0.281
 70
192
 0
VERTEX
 8
HEAD_1
 10
0.0685
 20
-0.0967
 30
0.281
 70
192
 0
VERTEX
 8
HEAD_1
 10
0.071
 20
-0.0844
 30
0.281
 70
192
 0
VERTEX
 8
HEAD_1
 10
0.076
 20
0.0355
 30
0.281
 70
192
 0
VERTEX
 8
HEAD_1
 10
0.0746
 20
0.0479
 30
0.281
 70
192
 0
VERTEX
 8
HEAD_1
 10
0.0694
 20
0.0593
 30
0.281
 70
192
 0
VERTEX
 8
HEAD_1
 10
0.0609
 20
0.0685
 30
0.281
 70
192
 0
VERTEX
 8
HEAD_1
 10
0.05
 20
0.0747
 30
0.281
 70
192
 0
VERTEX
 8
HEAD_1
 10
0.0377
 20
0.0772
 30
0.281
 70
192
 0
VERTEX
 8
HEAD_1
 10
-0.0821
 20
0.0822
 30
0.281
 70
192
 0
VERTEX
 8
HEAD_1
 10
-0.0946
 20
0.0807
 30
0.281
 70
192
 0
VERTEX
 8
HEAD_1
 10
-0.106
 20
0.0755
 30
0.281
 70
192
 0
VERTEX
 8
HEAD_1
 10
-0.1152
 20
0.0671
 30
0.281
 70
192
 0
VERTEX
 8
HEAD_1
 10
-0.1213
 20
0.0562
 30
0.281
 70
192
 0
VERTEX
 8
HEAD_1
 10
-0.1238
 20
0.0439
 30
0.281
 70
192
 0
VERTEX
 8
HEAD_1
 10
-0.1288
 20
-0.076
 30
0.281
 70
192
 0
VERTEX
 8
HEAD_1
 10
-0.1274
 20
-0.0884
 30
0.281
 70
192
 0
VERTEX
 8
HEAD_1
 10
-0.1222
 20
-0.0998
 30
0.281
 70
192
 0
VERTEX
 8
HEAD_1
 10
-0.1137
 20
-0.109
 30
0.281
 70
192
 0
VERTEX
 8
HEAD_1
 10
-0.1028
 20
-0.1152
 30
0.281
 70
192
 0
VERTEX
 8
HEAD_1
 10
-0.0904
 20
-0.1157
 30
0.2934
 70
192
 0
VERTEX
 8
HEAD_1
 10
0.0295
 20
-0.1207
 30
0.2934
 70
192
 0
VERTEX
 8
HEAD_1
 10
0.0413
 20
-0.1193
 30
0.2934
 70
192
 0
VERTEX
 8
HEAD_1
 10
0.0521
 20
-0.1144
 30
0.2934
 70
192
 0
VERTEX
 8
HEAD_1
 10
0.0609
 20
-0.1063
 30
0.2934
 70
192
 0
VERTEX
 8
HEAD_1
 10
0.0667
 20
-0.096
 30
0.2934
 70
192
 0
VERTEX
 8
HEAD_1
 10
0.0691
 20
-0.0843
 30
0.2934
 70
192
 0
VERTEX
 8
HEAD_1
 10
0.0741
 20
0.0356
 30
0.2934
 70
192
 0
VERTEX
 8
HEAD_1
 10
0.0727
 20
0.0474
 30
0.2934
 70
192
 0
VERTEX
 8
HEAD_1
 10
0.0678
 20
0.0582
 30
0.2934
 70
192
 0
VERTEX
 8
HEAD_1
 10
0.0597
 20
0.067
 30
0.2934
 70
192
 0
VERTEX
 8
HEAD_1
 10
0.0493
 20
0.0728
 30
0.2934
 70
192
 0
VERTEX
 8
HEAD_1
 10
0.0377
 20
0.0752
 30
0.2934
 70
192
 0
VERTEX
 8
HEAD_1
 10
-0.0822
 20
0.0802
 30
0.2934
 70
192
 0
VERTEX
 8
HEAD_1
 10
-0.0941
 20
0.0789
 30
0.2934
 70
192
 0
VERTEX
 8
HEAD_1
 10
-0.1049
 20
0.0739
 30
0.2934
 70
192
 0
VERTEX
 8
HEAD_1
 10
-0.1136
 20
0.0658
 30
0.2934
 70
192
 0
VERTEX
 8
HEAD_1
 10
-0.1195
 20
0.0555
 30
0.2934
 70
192
 0
VERTEX
 8
HEAD_1
 10
-0.1218
 20
0.0438
 30
0.2934
 70
192
 0
VERTEX
 8
HEAD_1
 10
-0.1269
 20
-0.0761
 30
0.2934
 70
192
 0
VERTEX
 8
HEAD_1
 10
-0.1255
 20
-0.0879
 30
0.2934
 70
192
 0
VERTEX
 8
HEAD_1
 10
-0.1205
 20
-0.0987
 30
0.2934
 70
192
 0
VERTEX
 8
HEAD_1
 10
-0.1125
 20
-0.1075
 30
0.2934
 70
192
 0
VERTEX
 8
HEAD_1
 10
-0.1021
 20
-0.1133
 30
0.2934
 70
192
 0
VERTEX
 8
HEAD_1
 10
-0.0902
 20
-0.11
 30
0.3046
 70
192
 0
VERTEX
 8
HEAD_1
 10
0.0297
 20
-0.115
 30
0.3046
 70
192
 0
VERTEX
 8
HEAD_1
 10
0.0397
 20
-0.1139
 30
0.3046
 70
192
 0
VERTEX
 8
HEAD_1
 10
0.049
 20
-0.1097
 30
0.3046
 70
192
 0
VERTEX
 8
HEAD_1
 10
0.0564
 20
-0.1028
 30
0.3046
 70
192
 0
VERTEX
 8
HEAD_1
 10
0.0614
 20
-0.094
 30
0.3046
 70
192
 0
VERTEX
 8
HEAD_1
 10
0.0634
 20
-0.0841
 30
0.3046
 70
192
 0
VERTEX
 8
HEAD_1
 10
0.0684
 20
0.0358
 30
0.3046
 70
192
 0
VERTEX
 8
HEAD_1
 10
0.0672
 20
0.0459
 30
0.3046
 70
192
 0
VERTEX
 8
HEAD_1
 10
0.063
 20
0.0551
 30
0.3046
 70
192
 0
VERTEX
 8
HEAD_1
 10
0.0562
 20
0.0625
 30
0.3046
 70
192
 0
VERTEX
 8
HEAD_1
 10
0.0474
 20
0.0675
 30
0.3046
 70
192
 0
VERTEX
 8
HEAD_1
 10
0.0374
 20
0.0695
 30
0.3046
 70
192
 0
VERTEX
 8
HEAD_1
 10
-0.0825
 20
0.0745
 30
0.3046
 70
192
 0
VERTEX
 8
HEAD_1
 10
-0.0925
 20
0.0734
 30
0.3046
 70
192
 0
VERTEX
 8
HEAD_1
 10
-0.1017
 20
0.0692
 30
0.3046
 70
192
 0
VERTEX
 8
HEAD_1
 10
-0.1092
 20
0.0623
 30
0.3046
 70
192
 0
VERTEX
 8
HEAD_1
 10
-0.1142
 20
0.0535
 30
0.3046
 70
192
 0
VERTEX
 8
HEAD_1
 10
-0.1162
 20
0.0436
 30
0.3046
 70
192
 0
VERTEX
 8
HEAD_1
 10
-0.1212
 20
-0.0763
 30
0.3046
 70
192
 0
VERTEX
 8
HEAD_1
 10
-0.12
 20
-0.0864
 30
0.3046
 70
192
 0
VERTEX
 8
HEAD_1
 10
-0.1158
 20
-0.0956
 30
0.3046
 70
192
 0
VERTEX
 8
HEAD_1
 10
-0.109
 20
-0.103
 30
0.3046
 70
192
 0
VERTEX
 8
HEAD_1
 10
-0.1001
 20
-0.108
 30
0.3046
 70
192
 0
VERTEX
 8
HEAD_1
 10
-0.0898
 20
-0.1012
 30
0.3134
 70
192
 0
VERTEX
 8
HEAD_1
 10
0.0301
 20
-0.1062
 30
0.3134
 70
192
 0
VERTEX
 8
HEAD_1
 10
0.0374
 20
-0.1054
 30
0.3134
 70
192
 0
VERTEX
 8
HEAD_1
 10
0.0441
 20
-0.1023
 30
0.3134
 70
192
 0
VERTEX
 8
HEAD_1
 10
0.0495
 20
-0.0973
 30
0.3134
 70
192
 0
VERTEX
 8
HEAD_1
 10
0.0531
 20
-0.0909
 30
0.3134
 70
192
 0
VERTEX
 8
HEAD_1
 10
0.0545
 20
-0.0837
 30
0.3134
 70
192
 0
VERTEX
 8
HEAD_1
 10
0.0596
 20
0.0362
 30
0.3134
 70
192
 0
VERTEX
 8
HEAD_1
 10
0.0587
 20
0.0435
 30
0.3134
 70
192
 0
VERTEX
 8
HEAD_1
 10
0.0557
 20
0.0502
 30
0.3134
 70
192
 0
VERTEX
 8
HEAD_1
 10
0.0507
 20
0.0556
 30
0.3134
 70
192
 0
VERTEX
 8
HEAD_1
 10
0.0443
 20
0.0592
 30
0.3134
 70
192
 0
VERTEX
 8
HEAD_1
 10
0.0371
 20
0.0607
 30
0.3134
 70
192
 0
VERTEX
 8
HEAD_1
 10
-0.0828
 20
0.0657
 30
0.3134
 70
192
 0
VERTEX
 8
HEAD_1
 10
-0.0901
 20
0.0649
 30
0.3134
 70
192
 0
VERTEX
 8
HEAD_1
 10
-0.0968
 20
0.0618
 30
0.3134
 70
192
 0
VERTEX
 8
HEAD_1
 10
-0.1023
 20
0.0568
 30
0.3134
 70
192
 0
VERTEX
 8
HEAD_1
 10
-0.1059
 20
0.0504
 30
0.3134
 70
192
 0
VERTEX
 8
HEAD_1
 10
-0.1073
 20
0.0432
 30
0.3134
 70
192
 0
VERTEX
 8
HEAD_1
 10
-0.1123
 20
-0.0767
 30
0.3134
 70
192
 0
VERTEX
 8
HEAD_1
 10
-0.1115
 20
-0.084
 30
0.3134
 70
192
 0
VERTEX
 8
HEAD_1
 10
-0.1084
 20
-0.0907
 30
0.3134
 70
192
 0
VERTEX
 8
HEAD_1
 10
-0.1035
 20
-0.0961
 30
0.3134
 70
192
 0
VERTEX
 8
HEAD_1
 10
-0.097
 20
-0.0997
 30
0.3134
 70
192
 0
VERTEX
 8
HEAD_1
 10
-0.0894
 20
-0.09
 30
0.3191
 70
192
 0
VERTEX
 8
HEAD_1
 10
0.0305
 20
-0.0951
 30
0.3191
 70
192
 0
VERTEX
 8
HEAD_1
 10
0.0344
 20
-0.0946
 30
0.3191
 70
192
 0
VERTEX
 8
HEAD_1
 10
0.0379
 20
-0.093
 30
0.3191
 70
192
 0
VERTEX
 8
HEAD_1
 10
0.0407
 20
-0.0904
 30
0.3191
 70
192
 0
VERTEX
 8
HEAD_1
 10
0.0426
 20
-0.087
 30
0.3191
 70
192
 0
VERTEX
 8
HEAD_1
 10
0.0434
 20
-0.0832
 30
0.3191
 70
192
 0
VERTEX
 8
HEAD_1
 10
0.0484
 20
0.0367
 30
0.3191
 70
192
 0
VERTEX
 8
HEAD_1
 10
0.048
 20
0.0405
 30
0.3191
 70
192
 0
VERTEX
 8
HEAD_1
 10
0.0464
 20
0.044
 30
0.3191
 70
192
 0
VERTEX
 8
HEAD_1
 10
0.0437
 20
0.0469
 30
0.3191
 70
192
 0
VERTEX
 8
HEAD_1
 10
0.0404
 20
0.0488
 30
0.3191
 70
192
 0
VERTEX
 8
HEAD_1
 10
0.0366
 20
0.0495
 30
0.3191
 70
192
 0
VERTEX
 8
HEAD_1
 10
-0.0833
 20
0.0546
 30
0.3191
 70
192
 0
VERTEX
 8
HEAD_1
 10
-0.0871
 20
0.0541
 30
0.3191
 70
192
 0
VERTEX
 8
HEAD_1
 10
-0.0907
 20
0.0525
 30
0.3191
 70
192
 0
VERTEX
 8
HEAD_1
 10
-0.0935
 20
0.0499
 30
0.3191
 70
192
 0
VERTEX
 8
HEAD_1
 10
-0.0954
 20
0.0465
 30
0.3191
 70
192
 0
VERTEX
 8
HEAD_1
 10
-0.0962
 20
0.0427
 30
0.3191
 70
192
 0
VERTEX
 8
HEAD_1
 10
-0.1012
 20
-0.0772
 30
0.3191
 70
192
 0
VERTEX
 8
HEAD_1
 10
-0.1008
 20
-0.081
 30
0.3191
 70
192
 0
VERTEX
 8
HEAD_1
 10
-0.0991
 20
-0.0845
 30
0.3191
 70
192
 0
VERTEX
 8
HEAD_1
 10
-0.0965
 20
-0.0874
 30
0.3191
 70
192
 0
VERTEX
 8
HEAD_1
 10
-0.0932
 20
-0.0893
 30
0.3191
 70
192
 0
VERTEX
 8
HEAD_1
 10
-0.0888
 20
-0.0777
 30
0.321
 70
192
 0
VERTEX
 8
HEAD_1
 10
0.031
 20
-0.0827
 30
0.321
 70
192
 0
VERTEX
 8
HEAD_1
 10
0.0361
 20
0.0372
 30
0.321
 70
192
 0
VERTEX
 8
HEAD_1
 10
-0.0838
 20
0.0422
 30
0.321
 70
192
 0
VERTEX
 8
HEAD_1
 10
0
 20
0
 30
0
 70
128
 71
1
 72
5
 73
6
 74
2
 0
VERTEX
 8
HEAD_1
 10
0
 20
0
 30
0
 70
128
 71
5
 72
29
 73
30
 74
6
 0
VERTEX
 8
HEAD_1
 10
0
 20
0
 30
0
 70
128
 71
29
 72
53
 73
54
 74
30
 0
VERTEX
 8
HEAD_1
 10
0
 20
0
 30
0
 70
128
 71
53
 72
77
 73
78
 74
54
 0
VERTEX
 8
HEAD_1
 10
0
 20
0
 30
0
 70
128
 71
77
 72
101
 73
102
 74
78
 0
VERTEX
 8
HEAD_1
 10
0
 20
0
 30
0
 70
128
 71
101
 72
125
 73
126
 74
102
 0
VERTEX
 8
HEAD_1
 10
0
 20
0
 30
0
 70
128
 71
125
 72
149
 73
150
 74
126
 0
VERTEX
 8
HEAD_1
 10
0
 20
0
 30
0
 70
128
 71
149
 72
173
 73
174
 74
150
 0
VERTEX
 8
HEAD_1
 10
0
 20
0
 30
0
 70
128
 71
173
 72
197
 73
198
 74
174
 0
VERTEX
 8
HEAD_1
 10
0
 20
0
 30
0
 70
128
 71
197
 72
221
 73
222
 74
198
 0
VERTEX
 8
HEAD_1
 10
0
 20
0
 30
0
 70
128
 71
221
 72
245
 73
246
 74
222
 0
VERTEX
 8
HEAD_1
 10
0
 20
0
 30
0
 70
128
 71
2
 72
6
 73
7
 74
7
 0
VERTEX
 8
HEAD_1
 10
0
 20
0
 30
0
 70
128
 71
6
 72
30
 73
31
 74
7
 0
VERTEX
 8
HEAD_1
 10
0
 20
0
 30
0
 70
128
 71
30
 72
54
 73
55
 74
31
 0
VERTEX
 8
HEAD_1
 10
0
 20
0
 30
0
 70
128
 71
54
 72
78
 73
79
 74
55
 0
VERTEX
 8
HEAD_1
 10
0
 20
0
 30
0
 70
128
 71
78
 72
102
 73
103
 74
79
 0
VERTEX
 8
HEAD_1
 10
0
 20
0
 30
0
 70
128
 71
102
 72
126
 73
127
 74
103
 0
VERTEX
 8
HEAD_1
 10
0
 20
0
 30
0
 70
128
 71
126
 72
150
 73
151
 74
127
 0
VERTEX
 8
HEAD_1
 10
0
 20
0
 30
0
 70
128
 71
150
 72
174
 73
175
 74
151
 0
VERTEX
 8
HEAD_1
 10
0
 20
0
 30
0
 70
128
 71
174
 72
198
 73
199
 74
175
 0
VERTEX
 8
HEAD_1
 10
0
 20
0
 30
0
 70
128
 71
198
 72
222
 73
223
 74
199
 0
VERTEX
 8
HEAD_1
 10
0
 20
0
 30
0
 70
128
 71
222
 72
246
 73
223
 74
223
 0
VERTEX
 8
HEAD_1
 10
0
 20
0
 30
0
 70
128
 71
2
 72
7
 73
8
 74
8
 0
VERTEX
 8
HEAD_1
 10
0
 20
0
 30
0
 70
128
 71
7
 72
31
 73
32
 74
8
 0
VERTEX
 8
HEAD_1
 10
0
 20
0
 30
0
 70
128
 71
31
 72
55
 73
56
 74
32
 0
VERTEX
 8
HEAD_1
 10
0
 20
0
 30
0
 70
128
 71
55
 72
79
 73
80
 74
56
 0
VERTEX
 8
HEAD_1
 10
0
 20
0
 30
0
 70
128
 71
79
 72
103
 73
104
 74
80
 0
VERTEX
 8
HEAD_1
 10
0
 20
0
 30
0
 70
128
 71
103
 72
127
 73
128
 74
104
 0
VERTEX
 8
HEAD_1
 10
0
 20
0
 30
0
 70
128
 71
127
 72
151
 73
152
 74
128
 0
VERTEX
 8
HEAD_1
 10
0
 20
0
 30
0
 70
128
 71
151
 72
175
 73
176
 74
152
 0
VERTEX
 8
HEAD_1
 10
0
 20
0
 30
0
 70
128
 71
175
 72
199
 73
200
 74
176
 0
VERTEX
 8
HEAD_1
 10
0
 20
0
 30
0
 70
128
 71
199
 72
223
 73
224
 74
200
 0
VERTEX
 8
HEAD_1
 10
0
 20
0
 30
0
 70
128
 71
223
 72
246
 73
224
 74
224
 0
VERTEX
 8
HEAD_1
 10
0
 20
0
 30
0
 70
128
 71
2
 72
8
 73
9
 74
9
 0
VERTEX
 8
HEAD_1
 10
0
 20
0
 30
0
 70
128
 71
8
 72
32
 73
33
 74
9
 0
VERTEX
 8
HEAD_1
 10
0
 20
0
 30
0
 70
128
 71
32
 72
56
 73
57
 74
33
 0
VERTEX
 8
HEAD_1
 10
0
 20
0
 30
0
 70
128
 71
56
 72
80
 73
81
 74
57
 0
VERTEX
 8
HEAD_1
 10
0
 20
0
 30
0
 70
128
 71
80
 72
104
 73
105
 74
81
 0
VERTEX
 8
HEAD_1
 10
0
 20
0
 30
0
 70
128
 71
104
 72
128
 73
129
 74
105
 0
VERTEX
 8
HEAD_1
 10
0
 20
0
 30
0
 70
128
 71
128
 72
152
 73
153
 74
129
 0
VERTEX
 8
HEAD_1
 10
0
 20
0
 30
0
 70
128
 71
152
 72
176
 73
177
 74
153
 0
VERTEX
 8
HEAD_1
 10
0
 20
0
 30
0
 70
128
 71
176
 72
200
 73
201
 74
177
 0
VERTEX
 8
HEAD_1
 10
0
 20
0
 30
0
 70
128
 71
200
 72
224
 73
225
 74
201
 0
VERTEX
 8
HEAD_1
 10
0
 20
0
 30
0
 70
128
 71
224
 72
246
 73
225
 74
225
 0
VERTEX
 8
HEAD_1
 10
0
 20
0
 30
0
 70
128
 71
2
 72
9
 73
10
 74
10
 0
VERTEX
 8
HEAD_1
 10
0
 20
0
 30
0
 70
128
 71
9
 72
33
 73
34
 74
10
 0
VERTEX
 8
HEAD_1
 10
0
 20
0
 30
0
 70
128
 71
33
 72
57
 73
58
 74
34
 0
VERTEX
 8
HEAD_1
 10
0
 20
0
 30
0
 70
128
 71
57
 72
81
 73
82
 74
58
 0
VERTEX
 8
HEAD_1
 10
0
 20
0
 30
0
 70
128
 71
81
 72
105
 73
106
 74
82
 0
VERTEX
 8
HEAD_1
 10
0
 20
0
 30
0
 70
128
 71
105
 72
129
 73
130
 74
106
 0
VERTEX
 8
HEAD_1
 10
0
 20
0
 30
0
 70
128
 71
129
 72
153
 73
154
 74
130
 0
VERTEX
 8
HEAD_1
 10
0
 20
0
 30
0
 70
128
 71
153
 72
177
 73
178
 74
154
 0
VERTEX
 8
HEAD_1
 10
0
 20
0
 30
0
 70
128
 71
177
 72
201
 73
202
 74
178
 0
VERTEX
 8
HEAD_1
 10
0
 20
0
 30
0
 70
128
 71
201
 72
225
 73
226
 74
202
 0
VERTEX
 8
HEAD_1
 10
0
 20
0
 30
0
 70
128
 71
225
 72
246
 73
226
 74
226
 0
VERTEX
 8
HEAD_1
 10
0
 20
0
 30
0
 70
128
 71
2
 72
10
 73
11
 74
11
 0
VERTEX
 8
HEAD_1
 10
0
 20
0
 30
0
 70
128
 71
10
 72
34
 73
35
 74
11
 0
VERTEX
 8
HEAD_1
 10
0
 20
0
 30
0
 70
128
 71
34
 72
58
 73
59
 74
35
 0
VERTEX
 8
HEAD_1
 10
0
 20
0
 30
0
 70
128
 71
58
 72
82
 73
83
 74
59
 0
VERTEX
 8
HEAD_1
 10
0
 20
0
 30
0
 70
128
 71
82
 72
106
 73
107
 74
83
 0
VERTEX
 8
HEAD_1
 10
0
 20
0
 30
0
 70
128
 71
106
 72
130
 73
131
 74
107
 0
VERTEX
 8
HEAD_1
 10
0
 20
0
 30
0
 70
128
 71
130
 72
154
 73
155
 74
131
 0
VERTEX
 8
HEAD_1
 10
0
 20
0
 30
0
 70
128
 71
154
 72
178
 73
179
 74
155
 0
VERTEX
 8
HEAD_1
 10
0
 20
0
 30
0
 70
128
 71
178
 72
202
 73
203
 74
179
 0
VERTEX
 8
HEAD_1
 10
0
 20
0
 30
0
 70
128
 71
202
 72
226
 73
227
 74
203
 0
VERTEX
 8
HEAD_1
 10
0
 20
0
 30
0
 70
128
 71
226
 72
246
 73
227
 74
227
 0
VERTEX
 8
HEAD_1
 10
0
 20
0
 30
0
 70
128
 71
2
 72
11
 73
12
 74
3
 0
VERTEX
 8
HEAD_1
 10
0
 20
0
 30
0
 70
128
 71
11
 72
35
 73
36
 74
12
 0
VERTEX
 8
HEAD_1
 10
0
 20
0
 30
0
 70
128
 71
35
 72
59
 73
60
 74
36
 0
VERTEX
 8
HEAD_1
 10
0
 20
0
 30
0
 70
128
 71
59
 72
83
 73
84
 74
60
 0
VERTEX
 8
HEAD_1
 10
0
 20
0
 30
0
 70
128
 71
83
 72
107
 73
108
 74
84
 0
VERTEX
 8
HEAD_1
 10
0
 20
0
 30
0
 70
128
 71
107
 72
131
 73
132
 74
108
 0
VERTEX
 8
HEAD_1
 10
0
 20
0
 30
0
 70
128
 71
131
 72
155
 73
156
 74
132
 0
VERTEX
 8
HEAD_1
 10
0
 20
0
 30
0
 70
128
 71
155
 72
179
 73
180
 74
156
 0
VERTEX
 8
HEAD_1
 10
0
 20
0
 30
0
 70
128
 71
179
 72
203
 73
204
 74
180
 0
VERTEX
 8
HEAD_1
 10
0
 20
0
 30
0
 70
128
 71
203
 72
227
 73
228
 74
204
 0
VERTEX
 8
HEAD_1
 10
0
 20
0
 30
0
 70
128
 71
227
 72
246
 73
247
 74
228
 0
VERTEX
 8
HEAD_1
 10
0
 20
0
 30
0
 70
128
 71
3
 72
12
 73
13
 74
13
 0
VERTEX
 8
HEAD_1
 10
0
 20
0
 30
0
 70
128
 71
12
 72
36
 73
37
 74
13
 0
VERTEX
 8
HEAD_1
 10
0
 20
0
 30
0
 70
128
 71
36
 72
60
 73
61
 74
37
 0
VERTEX
 8
HEAD_1
 10
0
 20
0
 30
0
 70
128
 71
60
 72
84
 73
85
 74
61
 0
VERTEX
 8
HEAD_1
 10
0
 20
0
 30
0
 70
128
 71
84
 72
108
 73
109
 74
85
 0
VERTEX
 8
HEAD_1
 10
0
 20
0
 30
0
 70
128
 71
108
 72
132
 73
133
 74
109
 0
VERTEX
 8
HEAD_1
 10
0
 20
0
 30
0
 70
128
 71
132
 72
156
 73
157
 74
133
 0
VERTEX
 8
HEAD_1
 10
0
 20
0
 30
0
 70
128
 71
156
 72
180
 73
181
 74
157
 0
VERTEX
 8
HEAD_1
 10
0
 20
0
 30
0
 70
128
 71
180
 72
204
 73
205
 74
181
 0
VERTEX
 8
HEAD_1
 10
0
 20
0
 30
0
 70
128
 71
204
 72
228
 73
229
 74
205
 0
VERTEX
 8
HEAD_1
 10
0
 20
0
 30
0
 70
128
 71
228
 72
247
 73
229
 74
229
 0
VERTEX
 8
HEAD_1
 10
0
 20
0
 30
0
 70
128
 71
3
 72
13
 73
14
 74
14
 0
VERTEX
 8
HEAD_1
 10
0
 20
0
 30
0
 70
128
 71
13
 72
37
 73
38
 74
14
 0
VERTEX
 8
HEAD_1
 10
0
 20
0
 30
0
 70
128
 71
37
 72
61
 73
62
 74
38
 0
VERTEX
 8
HEAD_1
 10
0
 20
0
 30
0
 70
128
 71
61
 72
85
 73
86
 74
62
 0
VERTEX
 8
HEAD_1
 10
0
 20
0
 30
0
 70
128
 71
85
 72
109
 73
110
 74
86
 0
VERTEX
 8
HEAD_1
 10
0
 20
0
 30
0
 70
128
 71
109
 72
133
 73
134
 74
110
 0
VERTEX
 8
HEAD_1
 10
0
 20
0
 30
0
 70
128
 71
133
 72
157
 73
158
 74
134
 0
VERTEX
 8
HEAD_1
 10
0
 20
0
 30
0
 70
128
 71
157
 72
181
 73
182
 74
158
 0
VERTEX
 8
HEAD_1
 10
0
 20
0
 30
0
 70
128
 71
181
 72
205
 73
206
 74
182
 0
VERTEX
 8
HEAD_1
 10
0
 20
0
 30
0
 70
128
 71
205
 72
229
 73
230
 74
206
 0
VERTEX
 8
HEAD_1
 10
0
 20
0
 30
0
 70
128
 71
229
 72
247
 73
230
 74
230
 0
VERTEX
 8
HEAD_1
 10
0
 20
0
 30
0
 70
128
 71
3
 72
14
 73
15
 74
15
 0
VERTEX
 8
HEAD_1
 10
0
 20
0
 30
0
 70
128
 71
14
 72
38
 73
39
 74
15
 0
VERTEX
 8
HEAD_1
 10
0
 20
0
 30
0
 70
128
 71
38
 72
62
 73
63
 74
39
 0
VERTEX
 8
HEAD_1
 10
0
 20
0
 30
0
 70
128
 71
62
 72
86
 73
87
 74
63
 0
VERTEX
 8
HEAD_1
 10
0
 20
0
 30
0
 70
128
 71
86
 72
110
 73
111
 74
87
 0
VERTEX
 8
HEAD_1
 10
0
 20
0
 30
0
 70
128
 71
110
 72
134
 73
135
 74
111
 0
VERTEX
 8
HEAD_1
 10
0
 20
0
 30
0
 70
128
 71
134
 72
158
 73
159
 74
135
 0
VERTEX
 8
HEAD_1
 10
0
 20
0
 30
0
 70
128
 71
158
 72
182
 73
183
 74
159
 0
VERTEX
 8
HEAD_1
 10
0
 20
0
 30
0
 70
128
 71
182
 72
206
 73
207
 74
183
 0
VERTEX
 8
HEAD_1
 10
0
 20
0
 30
0
 70
128
 71
206
 72
230
 73
231
 74
207
 0
VERTEX
 8
HEAD_1
 10
0
 20
0
 30
0
 70
128
 71
230
 72
247
 73
231
 74
231
 0
VERTEX
 8
HEAD_1
 10
0
 20
0
 30
0
 70
128
 71
3
 72
15
 73
16
 74
16
 0
VERTEX
 8
HEAD_1
 10
0
 20
0
 30
0
 70
128
 71
15
 72
39
 73
40
 74
16
 0
VERTEX
 8
HEAD_1
 10
0
 20
0
 30
0
 70
128
 71
39
 72
63
 73
64
 74
40
 0
VERTEX
 8
HEAD_1
 10
0
 20
0
 30
0
 70
128
 71
63
 72
87
 73
88
 74
64
 0
VERTEX
 8
HEAD_1
 10
0
 20
0
 30
0
 70
128
 71
87
 72
111
 73
112
 74
88
 0
VERTEX
 8
HEAD_1
 10
0
 20
0
 30
0
 70
128
 71
111
 72
135
 73
136
 74
112
 0
VERTEX
 8
HEAD_1
 10
0
 20
0
 30
0
 70
128
 71
135
 72
159
 73
160
 74
136
 0
VERTEX
 8
HEAD_1
 10
0
 20
0
 30
0
 70
128
 71
159
 72
183
 73
184
 74
160
 0
VERTEX
 8
HEAD_1
 10
0
 20
0
 30
0
 70
128
 71
183
 72
207
 73
208
 74
184
 0
VERTEX
 8
HEAD_1
 10
0
 20
0
 30
0
 70
128
 71
207
 72
231
 73
232
 74
208
 0
VERTEX
 8
HEAD_1
 10
0
 20
0
 30
0
 70
128
 71
231
 72
247
 73
232
 74
232
 0
VERTEX
 8
HEAD_1
 10
0
 20
0
 30
0
 70
128
 71
3
 72
16
 73
17
 74
17
 0
VERTEX
 8
HEAD_1
 10
0
 20
0
 30
0
 70
128
 71
16
 72
40
 73
41
 74
17
 0
VERTEX
 8
HEAD_1
 10
0
 20
0
 30
0
 70
128
 71
40
 72
64
 73
65
 74
41
 0
VERTEX
 8
HEAD_1
 10
0
 20
0
 30
0
 70
128
 71
64
 72
88
 73
89
 74
65
 0
VERTEX
 8
HEAD_1
 10
0
 20
0
 30
0
 70
128
 71
88
 72
112
 73
113
 74
89
 0
VERTEX
 8
HEAD_1
 10
0
 20
0
 30
0
 70
128
 71
112
 72
136
 73
137
 74
113
 0
VERTEX
 8
HEAD_1
 10
0
 20
0
 30
0
 70
128
 71
136
 72
160
 73
161
 74
137
 0
VERTEX
 8
HEAD_1
 10
0
 20
0
 30
0
 70
128
 71
160
 72
184
 73
185
 74
161
 0
VERTEX
 8
HEAD_1
 10
0
 20
0
 30
0
 70
128
 71
184
 72
208
 73
209
 74
185
 0
VERTEX
 8
HEAD_1
 10
0
 20
0
 30
0
 70
128
 71
208
 72
232
 73
233
 74
209
 0
VERTEX
 8
HEAD_1
 10
0
 20
0
 30
0
 70
128
 71
232
 72
247
 73
233
 74
233
 0
VERTEX
 8
HEAD_1
 10
0
 20
0
 30
0
 70
128
 71
3
 72
17
 73
18
 74
4
 0
VERTEX
 8
HEAD_1
 10
0
 20
0
 30
0
 70
128
 71
17
 72
41
 73
42
 74
18
 0
VERTEX
 8
HEAD_1
 10
0
 20
0
 30
0
 70
128
 71
41
 72
65
 73
66
 74
42
 0
VERTEX
 8
HEAD_1
 10
0
 20
0
 30
0
 70
128
 71
65
 72
89
 73
90
 74
66
 0
VERTEX
 8
HEAD_1
 10
0
 20
0
 30
0
 70
128
 71
89
 72
113
 73
114
 74
90
 0
VERTEX
 8
HEAD_1
 10
0
 20
0
 30
0
 70
128
 71
113
 72
137
 73
138
 74
114
 0
VERTEX
 8
HEAD_1
 10
0
 20
0
 30
0
 70
128
 71
137
 72
161
 73
162
 74
138
 0
VERTEX
 8
HEAD_1
 10
0
 20
0
 30
0
 70
128
 71
161
 72
185
 73
186
 74
162
 0
VERTEX
 8
HEAD_1
 10
0
 20
0
 30
0
 70
128
 71
185
 72
209
 73
210
 74
186
 0
VERTEX
 8
HEAD_1
 10
0
 20
0
 30
0
 70
128
 71
209
 72
233
 73
234
 74
210
 0
VERTEX
 8
HEAD_1
 10
0
 20
0
 30
0
 70
128
 71
233
 72
247
 73
248
 74
234
 0
VERTEX
 8
HEAD_1
 10
0
 20
0
 30
0
 70
128
 71
4
 72
18
 73
19
 74
19
 0
VERTEX
 8
HEAD_1
 10
0
 20
0
 30
0
 70
128
 71
18
 72
42
 73
43
 74
19
 0
VERTEX
 8
HEAD_1
 10
0
 20
0
 30
0
 70
128
 71
42
 72
66
 73
67
 74
43
 0
VERTEX
 8
HEAD_1
 10
0
 20
0
 30
0
 70
128
 71
66
 72
90
 73
91
 74
67
 0
VERTEX
 8
HEAD_1
 10
0
 20
0
 30
0
 70
128
 71
90
 72
114
 73
115
 74
91
 0
VERTEX
 8
HEAD_1
 10
0
 20
0
 30
0
 70
128
 71
114
 72
138
 73
139
 74
115
 0
VERTEX
 8
HEAD_1
 10
0
 20
0
 30
0
 70
128
 71
138
 72
162
 73
163
 74
139
 0
VERTEX
 8
HEAD_1
 10
0
 20
0
 30
0
 70
128
 71
162
 72
186
 73
187
 74
163
 0
VERTEX
 8
HEAD_1
 10
0
 20
0
 30
0
 70
128
 71
186
 72
210
 73
211
 74
187
 0
VERTEX
 8
HEAD_1
 10
0
 20
0
 30
0
 70
128
 71
210
 72
234
 73
235
 74
211
 0
VERTEX
 8
HEAD_1
 10
0
 20
0
 30
0
 70
128
 71
234
 72
248
 73
235
 74
235
 0
VERTEX
 8
HEAD_1
 10
0
 20
0
 30
0
 70
128
 71
4
 72
19
 73
20
 74
20
 0
VERTEX
 8
HEAD_1
 10
0
 20
0
 30
0
 70
128
 71
19
 72
43
 73
44
 74
20
 0
VERTEX
 8
HEAD_1
 10
0
 20
0
 30
0
 70
128
 71
43
 72
67
 73
68
 74
44
 0
VERTEX
 8
HEAD_1
 10
0
 20
0
 30
0
 70
128
 71
67
 72
91
 73
92
 74
68
 0
VERTEX
 8
HEAD_1
 10
0
 20
0
 30
0
 70
128
 71
91
 72
115
 73
116
 74
92
 0
VERTEX
 8
HEAD_1
 10
0
 20
0
 30
0
 70
128
 71
115
 72
139
 73
140
 74
116
 0
VERTEX
 8
HEAD_1
 10
0
 20
0
 30
0
 70
128
 71
139
 72
163
 73
164
 74
140
 0
VERTEX
 8
HEAD_1
 10
0
 20
0
 30
0
 70
128
 71
163
 72
187
 73
188
 74
164
 0
VERTEX
 8
HEAD_1
 10
0
 20
0
 30
0
 70
128
 71
187
 72
211
 73
212
 74
188
 0
VERTEX
 8
HEAD_1
 10
0
 20
0
 30
0
 70
128
 71
211
 72
235
 73
236
 74
212
 0
VERTEX
 8
HEAD_1
 10
0
 20
0
 30
0
 70
128
 71
235
 72
248
 73
236
 74
236
 0
VERTEX
 8
HEAD_1
 10
0
 20
0
 30
0
 70
128
 71
4
 72
20
 73
21
 74
21
 0
VERTEX
 8
HEAD_1
 10
0
 20
0
 30
0
 70
128
 71
20
 72
44
 73
45
 74
21
 0
VERTEX
 8
HEAD_1
 10
0
 20
0
 30
0
 70
128
 71
44
 72
68
 73
69
 74
45
 0
VERTEX
 8
HEAD_1
 10
0
 20
0
 30
0
 70
128
 71
68
 72
92
 73
93
 74
69
 0
VERTEX
 8
HEAD_1
 10
0
 20
0
 30
0
 70
128
 71
92
 72
116
 73
117
 74
93
 0
VERTEX
 8
HEAD_1
 10
0
 20
0
 30
0
 70
128
 71
116
 72
140
 73
141
 74
117
 0
VERTEX
 8
HEAD_1
 10
0
 20
0
 30
0
 70
128
 71
140
 72
164
 73
165
 74
141
 0
VERTEX
 8
HEAD_1
 10
0
 20
0
 30
0
 70
128
 71
164
 72
188
 73
189
 74
165
 0
VERTEX
 8
HEAD_1
 10
0
 20
0
 30
0
 70
128
 71
188
 72
212
 73
213
 74
189
 0
VERTEX
 8
HEAD_1
 10
0
 20
0
 30
0
 70
128
 71
212
 72
236
 73
237
 74
213
 0
VERTEX
 8
HEAD_1
 10
0
 20
0
 30
0
 70
128
 71
236
 72
248
 73
237
 74
237
 0
VERTEX
 8
HEAD_1
 10
0
 20
0
 30
0
 70
128
 71
4
 72
21
 73
22
 74
22
 0
VERTEX
 8
HEAD_1
 10
0
 20
0
 30
0
 70
128
 71
21
 72
45
 73
46
 74
22
 0
VERTEX
 8
HEAD_1
 10
0
 20
0
 30
0
 70
128
 71
45
 72
69
 73
70
 74
46
 0
VERTEX
 8
HEAD_1
 10
0
 20
0
 30
0
 70
128
 71
69
 72
93
 73
94
 74
70
 0
VERTEX
 8
HEAD_1
 10
0
 20
0
 30
0
 70
128
 71
93
 72
117
 73
118
 74
94
 0
VERTEX
 8
HEAD_1
 10
0
 20
0
 30
0
 70
128
 71
117
 72
141
 73
142
 74
118
 0
VERTEX
 8
HEAD_1
 10
0
 20
0
 30
0
 70
128
 71
141
 72
165
 73
166
 74
142
 0
VERTEX
 8
HEAD_1
 10
0
 20
0
 30
0
 70
128
 71
165
 72
189
 73
190
 74
166
 0
VERTEX
 8
HEAD_1
 10
0
 20
0
 30
0
 70
128
 71
189
 72
213
 73
214
 74
190
 0
VERTEX
 8
HEAD_1
 10
0
 20
0
 30
0
 70
128
 71
213
 72
237
 73
238
 74
214
 0
VERTEX
 8
HEAD_1
 10
0
 20
0
 30
0
 70
128
 71
237
 72
248
 73
238
 74
238
 0
VERTEX
 8
HEAD_1
 10
0
 20
0
 30
0
 70
128
 71
4
 72
22
 73
23
 74
23
 0
VERTEX
 8
HEAD_1
 10
0
 20
0
 30
0
 70
128
 71
22
 72
46
 73
47
 74
23
 0
VERTEX
 8
HEAD_1
 10
0
 20
0
 30
0
 70
128
 71
46
 72
70
 73
71
 74
47
 0
VERTEX
 8
HEAD_1
 10
0
 20
0
 30
0
 70
128
 71
70
 72
94
 73
95
 74
71
 0
VERTEX
 8
HEAD_1
 10
0
 20
0
 30
0
 70
128
 71
94
 72
118
 73
119
 74
95
 0
VERTEX
 8
HEAD_1
 10
0
 20
0
 30
0
 70
128
 71
118
 72
142
 73
143
 74
119
 0
VERTEX
 8
HEAD_1
 10
0
 20
0
 30
0
 70
128
 71
142
 72
166
 73
167
 74
143
 0
VERTEX
 8
HEAD_1
 10
0
 20
0
 30
0
 70
128
 71
166
 72
190
 73
191
 74
167
 0
VERTEX
 8
HEAD_1
 10
0
 20
0
 30
0
 70
128
 71
190
 72
214
 73
215
 74
191
 0
VERTEX
 8
HEAD_1
 10
0
 20
0
 30
0
 70
128
 71
214
 72
238
 73
239
 74
215
 0
VERTEX
 8
HEAD_1
 10
0
 20
0
 30
0
 70
128
 71
238
 72
248
 73
239
 74
239
 0
VERTEX
 8
HEAD_1
 10
0
 20
0
 30
0
 70
128
 71
4
 72
23
 73
24
 74
1
 0
VERTEX
 8
HEAD_1
 10
0
 20
0
 30
0
 70
128
 71
23
 72
47
 73
48
 74
24
 0
VERTEX
 8
HEAD_1
 10
0
 20
0
 30
0
 70
128
 71
47
 72
71
 73
72
 74
48
 0
VERTEX
 8
HEAD_1
 10
0
 20
0
 30
0
 70
128
 71
71
 72
95
 73
96
 74
72
 0
VERTEX
 8
HEAD_1
 10
0
 20
0
 30
0
 70
128
 71
95
 72
119
 73
120
 74
96
 0
VERTEX
 8
HEAD_1
 10
0
 20
0
 30
0
 70
128
 71
119
 72
143
 73
144
 74
120
 0
VERTEX
 8
HEAD_1
 10
0
 20
0
 30
0
 70
128
 71
143
 72
167
 73
168
 74
144
 0
VERTEX
 8
HEAD_1
 10
0
 20
0
 30
0
 70
128
 71
167
 72
191
 73
192
 74
168
 0
VERTEX
 8
HEAD_1
 10
0
 20
0
 30
0
 70
128
 71
191
 72
215
 73
216
 74
192
 0
VERTEX
 8
HEAD_1
 10
0
 20
0
 30
0
 70
128
 71
215
 72
239
 73
240
 74
216
 0
VERTEX
 8
HEAD_1
 10
0
 20
0
 30
0
 70
128
 71
239
 72
248
 73
245
 74
240
 0
VERTEX
 8
HEAD_1
 10
0
 20
0
 30
0
 70
128
 71
1
 72
24
 73
25
 74
25
 0
VERTEX
 8
HEAD_1
 10
0
 20
0
 30
0
 70
128
 71
24
 72
48
 73
49
 74
25
 0
VERTEX
 8
HEAD_1
 10
0
 20
0
 30
0
 70
128
 71
48
 72
72
 73
73
 74
49
 0
VERTEX
 8
HEAD_1
 10
0
 20
0
 30
0
 70
128
 71
72
 72
96
 73
97
 74
73
 0
VERTEX
 8
HEAD_1
 10
0
 20
0
 30
0
 70
128
 71
96
 72
120
 73
121
 74
97
 0
VERTEX
 8
HEAD_1
 10
0
 20
0
 30
0
 70
128
 71
120
 72
144
 73
145
 74
121
 0
VERTEX
 8
HEAD_1
 10
0
 20
0
 30
0
 70
128
 71
144
 72
168
 73
169
 74
145
 0
VERTEX
 8
HEAD_1
 10
0
 20
0
 30
0
 70
128
 71
168
 72
192
 73
193
 74
169
 0
VERTEX
 8
HEAD_1
 10
0
 20
0
 30
0
 70
128
 71
192
 72
216
 73
217
 74
193
 0
VERTEX
 8
HEAD_1
 10
0
 20
0
 30
0
 70
128
 71
216
 72
240
 73
241
 74
217
 0
VERTEX
 8
HEAD_1
 10
0
 20
0
 30
0
 70
128
 71
240
 72
245
 73
241
 74
241
 0
VERTEX
 8
HEAD_1
 10
0
 20
0
 30
0
 70
128
 71
1
 72
25
 73
26
 74
26
 0
VERTEX
 8
HEAD_1
 10
0
 20
0
 30
0
 70
128
 71
25
 72
49
 73
50
 74
26
 0
VERTEX
 8
HEAD_1
 10
0
 20
0
 30
0
 70
128
 71
49
 72
73
 73
74
 74
50
 0
VERTEX
 8
HEAD_1
 10
0
 20
0
 30
0
 70
128
 71
73
 72
97
 73
98
 74
74
 0
VERTEX
 8
HEAD_1
 10
0
 20
0
 30
0
 70
128
 71
97
 72
121
 73
122
 74
98
 0
VERTEX
 8
HEAD_1
 10
0
 20
0
 30
0
 70
128
 71
121
 72
145
 73
146
 74
122
 0
VERTEX
 8
HEAD_1
 10
0
 20
0
 30
0
 70
128
 71
145
 72
169
 73
170
 74
146
 0
VERTEX
 8
HEAD_1
 10
0
 20
0
 30
0
 70
128
 71
169
 72
193
 73
194
 74
170
 0
VERTEX
 8
HEAD_1
 10
0
 20
0
 30
0
 70
128
 71
193
 72
217
 73
218
 74
194
 0
VERTEX
 8
HEAD_1
 10
0
 20
0
 30
0
 70
128
 71
217
 72
241
 73
242
 74
218
 0
VERTEX
 8
HEAD_1
 10
0
 20
0
 30
0
 70
128
 71
241
 72
245
 73
242
 74
242
 0
VERTEX
 8
HEAD_1
 10
0
 20
0
 30
0
 70
128
 71
1
 72
26
 73
27
 74
27
 0
VERTEX
 8
HEAD_1
 10
0
 20
0
 30
0
 70
128
 71
26
 72
50
 73
51
 74
27
 0
VERTEX
 8
HEAD_1
 10
0
 20
0
 30
0
 70
128
 71
50
 72
74
 73
75
 74
51
 0
VERTEX
 8
HEAD_1
 10
0
 20
0
 30
0
 70
128
 71
74
 72
98
 73
99
 74
75
 0
VERTEX
 8
HEAD_1
 10
0
 20
0
 30
0
 70
128
 71
98
 72
122
 73
123
 74
99
 0
VERTEX
 8
HEAD_1
 10
0
 20
0
 30
0
 70
128
 71
122
 72
146
 73
147
 74
123
 0
VERTEX
 8
HEAD_1
 10
0
 20
0
 30
0
 70
128
 71
146
 72
170
 73
171
 74
147
 0
VERTEX
 8
HEAD_1
 10
0
 20
0
 30
0
 70
128
 71
170
 72
194
 73
195
 74
171
 0
VERTEX
 8
HEAD_1
 10
0
 20
0
 30
0
 70
128
 71
194
 72
218
 73
219
 74
195
 0
VERTEX
 8
HEAD_1
 10
0
 20
0
 30
0
 70
128
 71
218
 72
242
 73
243
 74
219
 0
VERTEX
 8
HEAD_1
 10
0
 20
0
 30
0
 70
128
 71
242
 72
245
 73
243
 74
243
 0
VERTEX
 8
HEAD_1
 10
0
 20
0
 30
0
 70
128
 71
1
 72
27
 73
28
 74
28
 0
VERTEX
 8
HEAD_1
 10
0
 20
0
 30
0
 70
128
 71
27
 72
51
 73
52
 74
28
 0
VERTEX
 8
HEAD_1
 10
0
 20
0
 30
0
 70
128
 71
51
 72
75
 73
76
 74
52
 0
VERTEX
 8
HEAD_1
 10
0
 20
0
 30
0
 70
128
 71
75
 72
99
 73
100
 74
76
 0
VERTEX
 8
HEAD_1
 10
0
 20
0
 30
0
 70
128
 71
99
 72
123
 73
124
 74
100
 0
VERTEX
 8
HEAD_1
 10
0
 20
0
 30
0
 70
128
 71
123
 72
147
 73
148
 74
124
 0
VERTEX
 8
HEAD_1
 10
0
 20
0
 30
0
 70
128
 71
147
 72
171
 73
172
 74
148
 0
VERTEX
 8
HEAD_1
 10
0
 20
0
 30
0
 70
128
 71
171
 72
195
 73
196
 74
172
 0
VERTEX
 8
HEAD_1
 10
0
 20
0
 30
0
 70
128
 71
195
 72
219
 73
220
 74
196
 0
VERTEX
 8
HEAD_1
 10
0
 20
0
 30
0
 70
128
 71
219
 72
243
 73
244
 74
220
 0
VERTEX
 8
HEAD_1
 10
0
 20
0
 30
0
 70
128
 71
243
 72
245
 73
244
 74
244
 0
VERTEX
 8
HEAD_1
 10
0
 20
0
 30
0
 70
128
 71
1
 72
28
 73
5
 74
5
 0
VERTEX
 8
HEAD_1
 10
0
 20
0
 30
0
 70
128
 71
28
 72
52
 73
29
 74
5
 0
VERTEX
 8
HEAD_1
 10
0
 20
0
 30
0
 70
128
 71
52
 72
76
 73
53
 74
29
 0
VERTEX
 8
HEAD_1
 10
0
 20
0
 30
0
 70
128
 71
76
 72
100
 73
77
 74
53
 0
VERTEX
 8
HEAD_1
 10
0
 20
0
 30
0
 70
128
 71
100
 72
124
 73
101
 74
77
 0
VERTEX
 8
HEAD_1
 10
0
 20
0
 30
0
 70
128
 71
124
 72
148
 73
125
 74
101
 0
VERTEX
 8
HEAD_1
 10
0
 20
0
 30
0
 70
128
 71
148
 72
172
 73
149
 74
125
 0
VERTEX
 8
HEAD_1
 10
0
 20
0
 30
0
 70
128
 71
172
 72
196
 73
173
 74
149
 0
VERTEX
 8
HEAD_1
 10
0
 20
0
 30
0
 70
128
 71
196
 72
220
 73
197
 74
173
 0
VERTEX
 8
HEAD_1
 10
0
 20
0
 30
0
 70
128
 71
220
 72
244
 73
221
 74
197
 0
VERTEX
 8
HEAD_1
 10
0
 20
0
 30
0
 70
128
 71
244
 72
245
 73
221
 74
221
 0
VERTEX
 8
HEAD_1
 10
0
 20
0
 30
0
 70
128
 71
245
 72
248
 73
247
 74
246
 0
VERTEX
 8
HEAD_1
 10
0
 20
0
 30
0
 70
128
 71
1
 72
2
 73
3
 74
4
 0
SEQEND
 0
POLYLINE
 8
BODY
 66
1
 10
0.0
 20
0.0
 30
0.0
 70
64
 71
504
 72
522
 0
VERTEX
 8
BODY
 10
-0.0695
 20
-0.0599
 30
0.0436
 70
192
 0
VERTEX
 8
BODY
 10
-0.0419
 20
-0.061
 30
0.0436
 70
192
 0
VERTEX
 8
BODY
 10
-0.0143
 20
-0.0622
 30
0.0436
 70
192
 0
VERTEX
 8
BODY
 10
0.0132
 20
-0.0633
 30
0.0436
 70
192
 0
VERTEX
 8
BODY
 10
0.014
 20
-0.0444
 30
0.0436
 70
192
 0
VERTEX
 8
BODY
 10
0.0159
 20
0.0004
 30
0.0436
 70
192
 0
VERTEX
 8
BODY
 10
0.0167
 20
0.0194
 30
0.0436
 70
192
 0
VERTEX
 8
BODY
 10
-0.0109
 20
0.0205
 30
0.0436
 70
192
 0
VERTEX
 8
BODY
 10
-0.0384
 20
0.0217
 30
0.0436
 70
192
 0
VERTEX
 8
BODY
 10
-0.066
 20
0.0228
 30
0.0436
 70
192
 0
VERTEX
 8
BODY
 10
-0.0668
 20
0.0039
 30
0.0436
 70
192
 0
VERTEX
 8
BODY
 10
-0.0687
 20
-0.0409
 30
0.0436
 70
192
 0
VERTEX
 8
BODY
 10
-0.0698
 20
-0.0684
 30
0.0449
 70
192
 0
VERTEX
 8
BODY
 10
-0.0423
 20
-0.0696
 30
0.0449
 70
192
 0
VERTEX
 8
BODY
 10
-0.0147
 20
-0.0707
 30
0.0449
 70
192
 0
VERTEX
 8
BODY
 10
0.0129
 20
-0.0719
 30
0.0449
 70
192
 0
VERTEX
 8
BODY
 10
0.0155
 20
-0.0716
 30
0.0449
 70
192
 0
VERTEX
 8
BODY
 10
0.018
 20
-0.0704
 30
0.0449
 70
192
 0
VERTEX
 8
BODY
 10
0.0199
 20
-0.0686
 30
0.0449
 70
192
 0
VERTEX
 8
BODY
 10
0.0212
 20
-0.0663
 30
0.0449
 70
192
 0
VERTEX
 8
BODY
 10
0.0218
 20
-0.0637
 30
0.0449
 70
192
 0
VERTEX
 8
BODY
 10
0.0226
 20
-0.0447
 30
0.0449
 70
192
 0
VERTEX
 8
BODY
 10
0.0244
 20
0
 30
0.0449
 70
192
 0
VERTEX
 8
BODY
 10
0.0252
 20
0.019
 30
0.0449
 70
192
 0
VERTEX
 8
BODY
 10
0.0249
 20
0.0217
 30
0.0449
 70
192
 0
VERTEX
 8
BODY
 10
0.0238
 20
0.0241
 30
0.0449
 70
192
 0
VERTEX
 8
BODY
 10
0.022
 20
0.0261
 30
0.0449
 70
192
 0
VERTEX
 8
BODY
 10
0.0197
 20
0.0274
 30
0.0449
 70
192
 0
VERTEX
 8
BODY
 10
0.0171
 20
0.0279
 30
0.0449
 70
192
 0
VERTEX
 8
BODY
 10
-0.0105
 20
0.0291
 30
0.0449
 70
192
 0
VERTEX
 8
BODY
 10
-0.0381
 20
0.0302
 30
0.0449
 70
192
 0
VERTEX
 8
BODY
 10
-0.0657
 20
0.0314
 30
0.0449
 70
192
 0
VERTEX
 8
BODY
 10
-0.0683
 20
0.0311
 30
0.0449
 70
192
 0
VERTEX
 8
BODY
 10
-0.0707
 20
0.03
 30
0.0449
 70
192
 0
VERTEX
 8
BODY
 10
-0.0727
 20
0.0281
 30
0.0449
 70
192
 0
VERTEX
 8
BODY
 10
-0.074
 20
0.0258
 30
0.0449
 70
192
 0
VERTEX
 8
BODY
 10
-0.0745
 20
0.0232
 30
0.0449
 70
192
 0
VERTEX
 8
BODY
 10
-0.0753
 20
0.0042
 30
0.0449
 70
192
 0
VERTEX
 8
BODY
 10
-0.0772
 20
-0.0405
 30
0.0449
 70
192
 0
VERTEX
 8
BODY
 10
-0.078
 20
-0.0595
 30
0.0449
 70
192
 0
VERTEX
 8
BODY
 10
-0.0777
 20
-0.0622
 30
0.0449
 70
192
 0
VERTEX
 8
BODY
 10
-0.0766
 20
-0.0646
 30
0.0449
 70
192
 0
VERTEX
 8
BODY
 10
-0.0748
 20
-0.0666
 30
0.0449
 70
192
 0
VERTEX
 8
BODY
 10
-0.0725
 20
-0.0679
 30
0.0449
 70
192
 0
VERTEX
 8
BODY
 10
-0.0702
 20
-0.0761
 30
0.0488
 70
192
 0
VERTEX
 8
BODY
 10
-0.0426
 20
-0.0772
 30
0.0488
 70
192
 0
VERTEX
 8
BODY
 10
-0.015
 20
-0.0784
 30
0.0488
 70
192
 0
VERTEX
 8
BODY
 10
0.0126
 20
-0.0796
 30
0.0488
 70
192
 0
VERTEX
 8
BODY
 10
0.0176
 20
-0.079
 30
0.0488
 70
192
 0
VERTEX
 8
BODY
 10
0.0222
 20
-0.0769
 30
0.0488
 70
192
 0
VERTEX
 8
BODY
 10
0.026
 20
-0.0734
 30
0.0488
 70
192
 0
VERTEX
 8
BODY
 10
0.0284
 20
-0.069
 30
0.0488
 70
192
 0
VERTEX
 8
BODY
 10
0.0294
 20
-0.064
 30
0.0488
 70
192
 0
VERTEX
 8
BODY
 10
0.0302
 20
-0.045
 30
0.0488
 70
192
 0
VERTEX
 8
BODY
 10
0.0321
 20
-0.0003
 30
0.0488
 70
192
 0
VERTEX
 8
BODY
 10
0.0329
 20
0.0187
 30
0.0488
 70
192
 0
VERTEX
 8
BODY
 10
0.0323
 20
0.0237
 30
0.0488
 70
192
 0
VERTEX
 8
BODY
 10
0.0302
 20
0.0284
 30
0.0488
 70
192
 0
VERTEX
 8
BODY
 10
0.0268
 20
0.0321
 30
0.0488
 70
192
 0
VERTEX
 8
BODY
 10
0.0224
 20
0.0346
 30
0.0488
 70
192
 0
VERTEX
 8
BODY
 10
0.0174
 20
0.0356
 30
0.0488
 70
192
 0
VERTEX
 8
BODY
 10
-0.0102
 20
0.0367
 30
0.0488
 70
192
 0
VERTEX
 8
BODY
 10
-0.0378
 20
0.0379
 30
0.0488
 70
192
 0
VERTEX
 8
BODY
 10
-0.0653
 20
0.0391
 30
0.0488
 70
192
 0
VERTEX
 8
BODY
 10
-0.0704
 20
0.0385
 30
0.0488
 70
192
 0
VERTEX
 8
BODY
 10
-0.075
 20
0.0364
 30
0.0488
 70
192
 0
VERTEX
 8
BODY
 10
-0.0787
 20
0.0329
 30
0.0488
 70
192
 0
VERTEX
 8
BODY
 10
-0.0812
 20
0.0285
 30
0.0488
 70
192
 0
VERTEX
 8
BODY
 10
-0.0822
 20
0.0235
 30
0.0488
 70
192
 0
VERTEX
 8
BODY
 10
-0.083
 20
0.0045
 30
0.0488
 70
192
 0
VERTEX
 8
BODY
 10
-0.0849
 20
-0.0402
 30
0.0488
 70
192
 0
VERTEX
 8
BODY
 10
-0.0857
 20
-0.0592
 30
0.0488
 70
192
 0
VERTEX
 8
BODY
 10
-0.0851
 20
-0.0642
 30
0.0488
 70
192
 0
VERTEX
 8
BODY
 10
-0.083
 20
-0.0689
 30
0.0488
 70
192
 0
VERTEX
 8
BODY
 10
-0.0796
 20
-0.0726
 30
0.0488
 70
192
 0
VERTEX
 8
BODY
 10
-0.0751
 20
-0.0751
 30
0.0488
 70
192
 0
VERTEX
 8
BODY
 10
-0.0704
 20
-0.0822
 30
0.0549
 70
192
 0
VERTEX
 8
BODY
 10
-0.0428
 20
-0.0833
 30
0.0549
 70
192
 0
VERTEX
 8
BODY
 10
-0.0153
 20
-0.0845
 30
0.0549
 70
192
 0
VERTEX
 8
BODY
 10
0.0123
 20
-0.0857
 30
0.0549
 70
192
 0
VERTEX
 8
BODY
 10
0.0192
 20
-0.0849
 30
0.0549
 70
192
 0
VERTEX
 8
BODY
 10
0.0256
 20
-0.0819
 30
0.0549
 70
192
 0
VERTEX
 8
BODY
 10
0.0307
 20
-0.0772
 30
0.0549
 70
192
 0
VERTEX
 8
BODY
 10
0.0342
 20
-0.0711
 30
0.0549
 70
192
 0
VERTEX
 8
BODY
 10
0.0355
 20
-0.0643
 30
0.0549
 70
192
 0
VERTEX
 8
BODY
 10
0.0363
 20
-0.0453
 30
0.0549
 70
192
 0
VERTEX
 8
BODY
 10
0.0382
 20
-0.0005
 30
0.0549
 70
192
 0
VERTEX
 8
BODY
 10
0.039
 20
0.0184
 30
0.0549
 70
192
 0
VERTEX
 8
BODY
 10
0.0382
 20
0.0254
 30
0.0549
 70
192
 0
VERTEX
 8
BODY
 10
0.0353
 20
0.0317
 30
0.0549
 70
192
 0
VERTEX
 8
BODY
 10
0.0306
 20
0.0369
 30
0.0549
 70
192
 0
VERTEX
 8
BODY
 10
0.0245
 20
0.0403
 30
0.0549
 70
192
 0
VERTEX
 8
BODY
 10
0.0176
 20
0.0417
 30
0.0549
 70
192
 0
VERTEX
 8
BODY
 10
-0.0099
 20
0.0428
 30
0.0549
 70
192
 0
VERTEX
 8
BODY
 10
-0.0375
 20
0.044
 30
0.0549
 70
192
 0
VERTEX
 8
BODY
 10
-0.0651
 20
0.0452
 30
0.0549
 70
192
 0
VERTEX
 8
BODY
 10
-0.072
 20
0.0444
 30
0.0549
 70
192
 0
VERTEX
 8
BODY
 10
-0.0784
 20
0.0414
 30
0.0549
 70
192
 0
VERTEX
 8
BODY
 10
-0.0835
 20
0.0367
 30
0.0549
 70
192
 0
VERTEX
 8
BODY
 10
-0.0869
 20
0.0306
 30
0.0549
 70
192
 0
VERTEX
 8
BODY
 10
-0.0883
 20
0.0238
 30
0.0549
 70
192
 0
VERTEX
 8
BODY
 10
-0.0891
 20
0.0048
 30
0.0549
 70
192
 0
VERTEX
 8
BODY
 10
-0.091
 20
-0.04
 30
0.0549
 70
192
 0
VERTEX
 8
BODY
 10
-0.0918
 20
-0.0589
 30
0.0549
 70
192
 0
VERTEX
 8
BODY
 10
-0.091
 20
-0.0659
 30
0.0549
 70
192
 0
VERTEX
 8
BODY
 10
-0.0881
 20
-0.0722
 30
0.0549
 70
192
 0
VERTEX
 8
BODY
 10
-0.0834
 20
-0.0774
 30
0.0549
 70
192
 0
VERTEX
 8
BODY
 10
-0.0773
 20
-0.0808
 30
0.0549
 70
192
 0
VERTEX
 8
BODY
 10
-0.0706
 20
-0.0861
 30
0.0626
 70
192
 0
VERTEX
 8
BODY
 10
-0.043
 20
-0.0873
 30
0.0626
 70
192
 0
VERTEX
 8
BODY
 10
-0.0154
 20
-0.0884
 30
0.0626
 70
192
 0
VERTEX
 8
BODY
 10
0.0121
 20
-0.0896
 30
0.0626
 70
192
 0
VERTEX
 8
BODY
 10
0.0203
 20
-0.0886
 30
0.0626
 70
192
 0
VERTEX
 8
BODY
 10
0.0278
 20
-0.0852
 30
0.0626
 70
192
 0
VERTEX
 8
BODY
 10
0.0338
 20
-0.0796
 30
0.0626
 70
192
 0
VERTEX
 8
BODY
 10
0.0378
 20
-0.0725
 30
0.0626
 70
192
 0
VERTEX
 8
BODY
 10
0.0395
 20
-0.0644
 30
0.0626
 70
192
 0
VERTEX
 8
BODY
 10
0.0403
 20
-0.0455
 30
0.0626
 70
192
 0
VERTEX
 8
BODY
 10
0.0421
 20
-0.0007
 30
0.0626
 70
192
 0
VERTEX
 8
BODY
 10
0.0429
 20
0.0183
 30
0.0626
 70
192
 0
VERTEX
 8
BODY
 10
0.042
 20
0.0264
 30
0.0626
 70
192
 0
VERTEX
 8
BODY
 10
0.0386
 20
0.0339
 30
0.0626
 70
192
 0
VERTEX
 8
BODY
 10
0.033
 20
0.04
 30
0.0626
 70
192
 0
VERTEX
 8
BODY
 10
0.0259
 20
0.044
 30
0.0626
 70
192
 0
VERTEX
 8
BODY
 10
0.0178
 20
0.0456
 30
0.0626
 70
192
 0
VERTEX
 8
BODY
 10
-0.0098
 20
0.0468
 30
0.0626
 70
192
 0
VERTEX
 8
BODY
 10
-0.0373
 20
0.0479
 30
0.0626
 70
192
 0
VERTEX
 8
BODY
 10
-0.0649
 20
0.0491
 30
0.0626
 70
192
 0
VERTEX
 8
BODY
 10
-0.0731
 20
0.0481
 30
0.0626
 70
192
 0
VERTEX
 8
BODY
 10
-0.0805
 20
0.0447
 30
0.0626
 70
192
 0
VERTEX
 8
BODY
 10
-0.0866
 20
0.0392
 30
0.0626
 70
192
 0
VERTEX
 8
BODY
 10
-0.0906
 20
0.032
 30
0.0626
 70
192
 0
VERTEX
 8
BODY
 10
-0.0922
 20
0.0239
 30
0.0626
 70
192
 0
VERTEX
 8
BODY
 10
-0.093
 20
0.005
 30
0.0626
 70
192
 0
VERTEX
 8
BODY
 10
-0.0949
 20
-0.0398
 30
0.0626
 70
192
 0
VERTEX
 8
BODY
 10
-0.0957
 20
-0.0588
 30
0.0626
 70
192
 0
VERTEX
 8
BODY
 10
-0.0948
 20
-0.0669
 30
0.0626
 70
192
 0
VERTEX
 8
BODY
 10
-0.0914
 20
-0.0744
 30
0.0626
 70
192
 0
VERTEX
 8
BODY
 10
-0.0858
 20
-0.0804
 30
0.0626
 70
192
 0
VERTEX
 8
BODY
 10
-0.0786
 20
-0.0845
 30
0.0626
 70
192
 0
VERTEX
 8
BODY
 10
-0.0706
 20
-0.0875
 30
0.0712
 70
192
 0
VERTEX
 8
BODY
 10
-0.0431
 20
-0.0886
 30
0.0712
 70
192
 0
VERTEX
 8
BODY
 10
-0.0155
 20
-0.0898
 30
0.0712
 70
192
 0
VERTEX
 8
BODY
 10
0.0121
 20
-0.0909
 30
0.0712
 70
192
 0
VERTEX
 8
BODY
 10
0.0207
 20
-0.0899
 30
0.0712
 70
192
 0
VERTEX
 8
BODY
 10
0.0285
 20
-0.0863
 30
0.0712
 70
192
 0
VERTEX
 8
BODY
 10
0.0349
 20
-0.0805
 30
0.0712
 70
192
 0
VERTEX
 8
BODY
 10
0.0391
 20
-0.073
 30
0.0712
 70
192
 0
VERTEX
 8
BODY
 10
0.0408
 20
-0.0645
 30
0.0712
 70
192
 0
VERTEX
 8
BODY
 10
0.0416
 20
-0.0455
 30
0.0712
 70
192
 0
VERTEX
 8
BODY
 10
0.0435
 20
-0.0008
 30
0.0712
 70
192
 0
VERTEX
 8
BODY
 10
0.0443
 20
0.0182
 30
0.0712
 70
192
 0
VERTEX
 8
BODY
 10
0.0433
 20
0.0268
 30
0.0712
 70
192
 0
VERTEX
 8
BODY
 10
0.0397
 20
0.0347
 30
0.0712
 70
192
 0
VERTEX
 8
BODY
 10
0.0339
 20
0.041
 30
0.0712
 70
192
 0
VERTEX
 8
BODY
 10
0.0263
 20
0.0453
 30
0.0712
 70
192
 0
VERTEX
 8
BODY
 10
0.0179
 20
0.047
 30
0.0712
 70
192
 0
VERTEX
 8
BODY
 10
-0.0097
 20
0.0481
 30
0.0712
 70
192
 0
VERTEX
 8
BODY
 10
-0.0373
 20
0.0493
 30
0.0712
 70
192
 0
VERTEX
 8
BODY
 10
-0.0649
 20
0.0504
 30
0.0712
 70
192
 0
VERTEX
 8
BODY
 10
-0.0734
 20
0.0494
 30
0.0712
 70
192
 0
VERTEX
 8
BODY
 10
-0.0813
 20
0.0458
 30
0.0712
 70
192
 0
VERTEX
 8
BODY
 10
-0.0876
 20
0.04
 30
0.0712
 70
192
 0
VERTEX
 8
BODY
 10
-0.0919
 20
0.0325
 30
0.0712
 70
192
 0
VERTEX
 8
BODY
 10
-0.0936
 20
0.024
 30
0.0712
 70
192
 0
VERTEX
 8
BODY
 10
-0.0944
 20
0.005
 30
0.0712
 70
192
 0
VERTEX
 8
BODY
 10
-0.0963
 20
-0.0397
 30
0.0712
 70
192
 0
VERTEX
 8
BODY
 10
-0.0971
 20
-0.0587
 30
0.0712
 70
192
 0
VERTEX
 8
BODY
 10
-0.0961
 20
-0.0673
 30
0.0712
 70
192
 0
VERTEX
 8
BODY
 10
-0.0925
 20
-0.0752
 30
0.0712
 70
192
 0
VERTEX
 8
BODY
 10
-0.0866
 20
-0.0815
 30
0.0712
 70
192
 0
VERTEX
 8
BODY
 10
-0.0791
 20
-0.0857
 30
0.0712
 70
192
 0
VERTEX
 8
BODY
 10
-0.0706
 20
-0.0875
 30
0.0932
 70
192
 0
VERTEX
 8
BODY
 10
-0.0431
 20
-0.0886
 30
0.0932
 70
192
 0
VERTEX
 8
BODY
 10
-0.0155
 20
-0.0898
 30
0.0932
 70
192
 0
VERTEX
 8
BODY
 10
0.0121
 20
-0.0909
 30
0.0932
 70
192
 0
VERTEX
 8
BODY
 10
0.0207
 20
-0.0899
 30
0.0932
 70
192
 0
VERTEX
 8
BODY
 10
0.0285
 20
-0.0863
 30
0.0932
 70
192
 0
VERTEX
 8
BODY
 10
0.0349
 20
-0.0805
 30
0.0932
 70
192
 0
VERTEX
 8
BODY
 10
0.0391
 20
-0.073
 30
0.0932
 70
192
 0
VERTEX
 8
BODY
 10
0.0408
 20
-0.0645
 30
0.0932
 70
192
 0
VERTEX
 8
BODY
 10
0.0416
 20
-0.0455
 30
0.0932
 70
192
 0
VERTEX
 8
BODY
 10
0.0435
 20
-0.0008
 30
0.0932
 70
192
 0
VERTEX
 8
BODY
 10
0.0443
 20
0.0182
 30
0.0932
 70
192
 0
VERTEX
 8
BODY
 10
0.0433
 20
0.0268
 30
0.0932
 70
192
 0
VERTEX
 8
BODY
 10
0.0397
 20
0.0347
 30
0.0932
 70
192
 0
VERTEX
 8
BODY
 10
0.0339
 20
0.041
 30
0.0932
 70
192
 0
VERTEX
 8
BODY
 10
0.0263
 20
0.0453
 30
0.0932
 70
192
 0
VERTEX
 8
BODY
 10
0.0179
 20
0.047
 30
0.0932
 70
192
 0
VERTEX
 8
BODY
 10
-0.0097
 20
0.0481
 30
0.0932
 70
192
 0
VERTEX
 8
BODY
 10
-0.0373
 20
0.0493
 30
0.0932
 70
192
 0
VERTEX
 8
BODY
 10
-0.0649
 20
0.0504
 30
0.0932
 70
192
 0
VERTEX
 8
BODY
 10
-0.0734
 20
0.0494
 30
0.0932
 70
192
 0
VERTEX
 8
BODY
 10
-0.0813
 20
0.0458
 30
0.0932
 70
192
 0
VERTEX
 8
BODY
 10
-0.0876
 20
0.04
 30
0.0932
 70
192
 0
VERTEX
 8
BODY
 10
-0.0919
 20
0.0325
 30
0.0932
 70
192
 0
VERTEX
 8
BODY
 10
-0.0936
 20
0.024
 30
0.0932
 70
192
 0
VERTEX
 8
BODY
 10
-0.0944
 20
0.005
 30
0.0932
 70
192
 0
VERTEX
 8
BODY
 10
-0.0963
 20
-0.0397
 30
0.0932
 70
192
 0
VERTEX
 8
BODY
 10
-0.0971
 20
-0.0587
 30
0.0932
 70
192
 0
VERTEX
 8
BODY
 10
-0.0961
 20
-0.0673
 30
0.0932
 70
192
 0
VERTEX
 8
BODY
 10
-0.0925
 20
-0.0752
 30
0.0932
 70
192
 0
VERTEX
 8
BODY
 10
-0.0866
 20
-0.0815
 30
0.0932
 70
192
 0
VERTEX
 8
BODY
 10
-0.0791
 20
-0.0857
 30
0.0932
 70
192
 0
VERTEX
 8
BODY
 10
-0.0706
 20
-0.0861
 30
0.1017
 70
192
 0
VERTEX
 8
BODY
 10
-0.043
 20
-0.0873
 30
0.1017
 70
192
 0
VERTEX
 8
BODY
 10
-0.0154
 20
-0.0884
 30
0.1017
 70
192
 0
VERTEX
 8
BODY
 10
0.0121
 20
-0.0896
 30
0.1017
 70
192
 0
VERTEX
 8
BODY
 10
0.0203
 20
-0.0886
 30
0.1017
 70
192
 0
VERTEX
 8
BODY
 10
0.0278
 20
-0.0852
 30
0.1017
 70
192
 0
VERTEX
 8
BODY
 10
0.0338
 20
-0.0796
 30
0.1017
 70
192
 0
VERTEX
 8
BODY
 10
0.0378
 20
-0.0725
 30
0.1017
 70
192
 0
VERTEX
 8
BODY
 10
0.0395
 20
-0.0644
 30
0.1017
 70
192
 0
VERTEX
 8
BODY
 10
0.0403
 20
-0.0455
 30
0.1017
 70
192
 0
VERTEX
 8
BODY
 10
0.0421
 20
-0.0007
 30
0.1017
 70
192
 0
VERTEX
 8
BODY
 10
0.0429
 20
0.0183
 30
0.1017
 70
192
 0
VERTEX
 8
BODY
 10
0.042
 20
0.0264
 30
0.1017
 70
192
 0
VERTEX
 8
BODY
 10
0.0386
 20
0.0339
 30
0.1017
 70
192
 0
VERTEX
 8
BODY
 10
0.033
 20
0.04
 30
0.1017
 70
192
 0
VERTEX
 8
BODY
 10
0.0259
 20
0.044
 30
0.1017
 70
192
 0
VERTEX
 8
BODY
 10
0.0178
 20
0.0456
 30
0.1017
 70
192
 0
VERTEX
 8
BODY
 10
-0.0098
 20
0.0468
 30
0.1017
 70
192
 0
VERTEX
 8
BODY
 10
-0.0373
 20
0.0479
 30
0.1017
 70
192
 0
VERTEX
 8
BODY
 10
-0.0649
 20
0.0491
 30
0.1017
 70
192
 0
VERTEX
 8
BODY
 10
-0.0731
 20
0.0481
 30
0.1017
 70
192
 0
VERTEX
 8
BODY
 10
-0.0805
 20
0.0447
 30
0.1017
 70
192
 0
VERTEX
 8
BODY
 10
-0.0866
 20
0.0392
 30
0.1017
 70
192
 0
VERTEX
 8
BODY
 10
-0.0906
 20
0.032
 30
0.1017
 70
192
 0
VERTEX
 8
BODY
 10
-0.0922
 20
0.0239
 30
0.1017
 70
192
 0
VERTEX
 8
BODY
 10
-0.093
 20
0.005
 30
0.1017
 70
192
 0
VERTEX
 8
BODY
 10
-0.0949
 20
-0.0398
 30
0.1017
 70
192
 0
VERTEX
 8
BODY
 10
-0.0957
 20
-0.0588
 30
0.1017
 70
192
 0
VERTEX
 8
BODY
 10
-0.0948
 20
-0.0669
 30
0.1017
 70
192
 0
VERTEX
 8
BODY
 10
-0.0914
 20
-0.0744
 30
0.1017
 70
192
 0
VERTEX
 8
BODY
 10
-0.0858
 20
-0.0804
 30
0.1017
 70
192
 0
VERTEX
 8
BODY
 10
-0.0786
 20
-0.0845
 30
0.1017
 70
192
 0
VERTEX
 8
BODY
 10
-0.0704
 20
-0.0822
 30
0.1094
 70
192
 0
VERTEX
 8
BODY
 10
-0.0428
 20
-0.0833
 30
0.1094
 70
192
 0
VERTEX
 8
BODY
 10
-0.0153
 20
-0.0845
 30
0.1094
 70
192
 0
VERTEX
 8
BODY
 10
0.0123
 20
-0.0857
 30
0.1094
 70
192
 0
VERTEX
 8
BODY
 10
0.0192
 20
-0.0849
 30
0.1094
 70
192
 0
VERTEX
 8
BODY
 10
0.0256
 20
-0.0819
 30
0.1094
 70
192
 0
VERTEX
 8
BODY
 10
0.0307
 20
-0.0772
 30
0.1094
 70
192
 0
VERTEX
 8
BODY
 10
0.0342
 20
-0.0711
 30
0.1094
 70
192
 0
VERTEX
 8
BODY
 10
0.0355
 20
-0.0643
 30
0.1094
 70
192
 0
VERTEX
 8
BODY
 10
0.0363
 20
-0.0453
 30
0.1094
 70
192
 0
VERTEX
 8
BODY
 10
0.0382
 20
-0.0005
 30
0.1094
 70
192
 0
VERTEX
 8
BODY
 10
0.039
 20
0.0184
 30
0.1094
 70
192
 0
VERTEX
 8
BODY
 10
0.0382
 20
0.0254
 30
0.1094
 70
192
 0
VERTEX
 8
BODY
 10
0.0353
 20
0.0317
 30
0.1094
 70
192
 0
VERTEX
 8
BODY
 10
0.0306
 20
0.0369
 30
0.1094
 70
192
 0
VERTEX
 8
BODY
 10
0.0245
 20
0.0403
 30
0.1094
 70
192
 0
VERTEX
 8
BODY
 10
0.0176
 20
0.0417
 30
0.1094
 70
192
 0
VERTEX
 8
BODY
 10
-0.0099
 20
0.0428
 30
0.1094
 70
192
 0
VERTEX
 8
BODY
 10
-0.0375
 20
0.044
 30
0.1094
 70
192
 0
VERTEX
 8
BODY
 10
-0.0651
 20
0.0452
 30
0.1094
 70
192
 0
VERTEX
 8
BODY
 10
-0.072
 20
0.0444
 30
0.1094
 70
192
 0
VERTEX
 8
BODY
 10
-0.0784
 20
0.0414
 30
0.1094
 70
192
 0
VERTEX
 8
BODY
 10
-0.0835
 20
0.0367
 30
0.1094
 70
192
 0
VERTEX
 8
BODY
 10
-0.0869
 20
0.0306
 30
0.1094
 70
192
 0
VERTEX
 8
BODY
 10
-0.0883
 20
0.0238
 30
0.1094
 70
192
 0
VERTEX
 8
BODY
 10
-0.0891
 20
0.0048
 30
0.1094
 70
192
 0
VERTEX
 8
BODY
 10
-0.091
 20
-0.04
 30
0.1094
 70
192
 0
VERTEX
 8
BODY
 10
-0.0918
 20
-0.0589
 30
0.1094
 70
192
 0
VERTEX
 8
BODY
 10
-0.091
 20
-0.0659
 30
0.1094
 70
192
 0
VERTEX
 8
BODY
 10
-0.0881
 20
-0.0722
 30
0.1094
 70
192
 0
VERTEX
 8
BODY
 10
-0.0834
 20
-0.0774
 30
0.1094
 70
192
 0
VERTEX
 8
BODY
 10
-0.0773
 20
-0.0808
 30
0.1094
 70
192
 0
VERTEX
 8
BODY
 10
-0.0702
 20
-0.0761
 30
0.1155
 70
192
 0
VERTEX
 8
BODY
 10
-0.0426
 20
-0.0772
 30
0.1155
 70
192
 0
VERTEX
 8
BODY
 10
-0.015
 20
-0.0784
 30
0.1155
 70
192
 0
VERTEX
 8
BODY
 10
0.0126
 20
-0.0796
 30
0.1155
 70
192
 0
VERTEX
 8
BODY
 10
0.0176
 20
-0.079
 30
0.1155
 70
192
 0
VERTEX
 8
BODY
 10
0.0222
 20
-0.0769
 30
0.1155
 70
192
 0
VERTEX
 8
BODY
 10
0.026
 20
-0.0734
 30
0.1155
 70
192
 0
VERTEX
 8
BODY
 10
0.0284
 20
-0.069
 30
0.1155
 70
192
 0
VERTEX
 8
BODY
 10
0.0294
 20
-0.064
 30
0.1155
 70
192
 0
VERTEX
 8
BODY
 10
0.0302
 20
-0.045
 30
0.1155
 70
192
 0
VERTEX
 8
BODY
 10
0.0321
 20
-0.0003
 30
0.1155
 70
192
 0
VERTEX
 8
BODY
 10
0.0329
 20
0.0187
 30
0.1155
 70
192
 0
VERTEX
 8
BODY
 10
0.0323
 20
0.0237
 30
0.1155
 70
192
 0
VERTEX
 8
BODY
 10
0.0302
 20
0.0284
 30
0.1155
 70
192
 0
VERTEX
 8
BODY
 10
0.0268
 20
0.0321
 30
0.1155
 70
192
 0
VERTEX
 8
BODY
 10
0.0224
 20
0.0346
 30
0.1155
 70
192
 0
VERTEX
 8
BODY
 10
0.0174
 20
0.0356
 30
0.1155
 70
192
 0
VERTEX
 8
BODY
 10
-0.0102
 20
0.0367
 30
0.1155
 70
192
 0
VERTEX
 8
BODY
 10
-0.0378
 20
0.0379
 30
0.1155
 70
192
 0
VERTEX
 8
BODY
 10
-0.0653
 20
0.0391
 30
0.1155
 70
192
 0
VERTEX
 8
BODY
 10
-0.0704
 20
0.0385
 30
0.1155
 70
192
 0
VERTEX
 8
BODY
 10
-0.075
 20
0.0364
 30
0.1155
 70
192
 0
VERTEX
 8
BODY
 10
-0.0787
 20
0.0329
 30
0.1155
 70
192
 0
VERTEX
 8
BODY
 10
-0.0812
 20
0.0285
 30
0.1155
 70
192
 0
VERTEX
 8
BODY
 10
-0.0822
 20
0.0235
 30
0.1155
 70
192
 0
VERTEX
 8
BODY
 10
-0.083
 20
0.0045
 30
0.1155
 70
192
 0
VERTEX
 8
BODY
 10
-0.0849
 20
-0.0402
 30
0.1155
 70
192
 0
VERTEX
 8
BODY
 10
-0.0857
 20
-0.0592
 30
0.1155
 70
192
 0
VERTEX
 8
BODY
 10
-0.0851
 20
-0.0642
 30
0.1155
 70
192
 0
VERTEX
 8
BODY
 10
-0.083
 20
-0.0689
 30
0.1155
 70
192
 0
VERTEX
 8
BODY
 10
-0.0796
 20
-0.0726
 30
0.1155
 70
192
 0
VERTEX
 8
BODY
 10
-0.0751
 20
-0.0751
 30
0.1155
 70
192
 0
VERTEX
 8
BODY
 10
-0.0698
 20
-0.0684
 30
0.1195
 70
192
 0
VERTEX
 8
BODY
 10
-0.0423
 20
-0.0696
 30
0.1195
 70
192
 0
VERTEX
 8
BODY
 10
-0.0147
 20
-0.0707
 30
0.1195
 70
192
 0
VERTEX
 8
BODY
 10
0.0129
 20
-0.0719
 30
0.1195
 70
192
 0
VERTEX
 8
BODY
 10
0.0155
 20
-0.0716
 30
0.1195
 70
192
 0
VERTEX
 8
BODY
 10
0.018
 20
-0.0704
 30
0.1195
 70
192
 0
VERTEX
 8
BODY
 10
0.0199
 20
-0.0686
 30
0.1195
 70
192
 0
VERTEX
 8
BODY
 10
0.0212
 20
-0.0663
 30
0.1195
 70
192
 0
VERTEX
 8
BODY
 10
0.0218
 20
-0.0637
 30
0.1195
 70
192
 0
VERTEX
 8
BODY
 10
0.0226
 20
-0.0447
 30
0.1195
 70
192
 0
VERTEX
 8
BODY
 10
0.0244
 20
0
 30
0.1195
 70
192
 0
VERTEX
 8
BODY
 10
0.0252
 20
0.019
 30
0.1195
 70
192
 0
VERTEX
 8
BODY
 10
0.0249
 20
0.0217
 30
0.1195
 70
192
 0
VERTEX
 8
BODY
 10
0.0238
 20
0.0241
 30
0.1195
 70
192
 0
VERTEX
 8
BODY
 10
0.022
 20
0.0261
 30
0.1195
 70
192
 0
VERTEX
 8
BODY
 10
0.0197
 20
0.0274
 30
0.1195
 70
192
 0
VERTEX
 8
BODY
 10
0.0171
 20
0.0279
 30
0.1195
 70
192
 0
VERTEX
 8
BODY
 10
-0.0105
 20
0.0291
 30
0.1195
 70
192
 0
VERTEX
 8
BODY
 10
-0.0381
 20
0.0302
 30
0.1195
 70
192
 0
VERTEX
 8
BODY
 10
-0.0657
 20
0.0314
 30
0.1195
 70
192
 0
VERTEX
 8
BODY
 10
-0.0683
 20
0.0311
 30
0.1195
 70
192
 0
VERTEX
 8
BODY
 10
-0.0707
 20
0.03
 30
0.1195
 70
192
 0
VERTEX
 8
BODY
 10
-0.0727
 20
0.0281
 30
0.1195
 70
192
 0
VERTEX
 8
BODY
 10
-0.074
 20
0.0258
 30
0.1195
 70
192
 0
VERTEX
 8
BODY
 10
-0.0745
 20
0.0232
 30
0.1195
 70
192
 0
VERTEX
 8
BODY
 10
-0.0753
 20
0.0042
 30
0.1195
 70
192
 0
VERTEX
 8
BODY
 10
-0.0772
 20
-0.0405
 30
0.1195
 70
192
 0
VERTEX
 8
BODY
 10
-0.078
 20
-0.0595
 30
0.1195
 70
192
 0
VERTEX
 8
BODY
 10
-0.0777
 20
-0.0622
 30
0.1195
 70
192
 0
VERTEX
 8
BODY
 10
-0.0766
 20
-0.0646
 30
0.1195
 70
192
 0
VERTEX
 8
BODY
 10
-0.0748
 20
-0.0666
 30
0.1195
 70
192
 0
VERTEX
 8
BODY
 10
-0.0725
 20
-0.0679
 30
0.1195
 70
192
 0
VERTEX
 8
BODY
 10
-0.0695
 20
-0.0599
 30
0.1208
 70
192
 0
VERTEX
 8
BODY
 10
-0.0419
 20
-0.061
 30
0.1208
 70
192
 0
VERTEX
 8
BODY
 10
-0.0143
 20
-0.0622
 30
0.1208
 70
192
 0
VERTEX
 8
BODY
 10
0.0132
 20
-0.0633
 30
0.1208
 70
192
 0
VERTEX
 8
BODY
 10
0.014
 20
-0.0444
 30
0.1208
 70
192
 0
VERTEX
 8
BODY
 10
0.0159
 20
0.0004
 30
0.1208
 70
192
 0
VERTEX
 8
BODY
 10
0.0167
 20
0.0194
 30
0.1208
 70
192
 0
VERTEX
 8
BODY
 10
-0.0109
 20
0.0205
 30
0.1208
 70
192
 0
VERTEX
 8
BODY
 10
-0.0384
 20
0.0217
 30
0.1208
 70
192
 0
VERTEX
 8
BODY
 10
-0.066
 20
0.0228
 30
0.1208
 70
192
 0
VERTEX
 8
BODY
 10
-0.0668
 20
0.0039
 30
0.1208
 70
192
 0
VERTEX
 8
BODY
 10
-0.0687
 20
-0.0409
 30
0.1208
 70
192
 0
VERTEX
 8
BODY
 10
-0.0411
 20
-0.042
 30
0.1208
 70
192
 0
VERTEX
 8
BODY
 10
-0.0392
 20
0.0027
 30
0.1208
 70
192
 0
VERTEX
 8
BODY
 10
-0.0135
 20
-0.0432
 30
0.1208
 70
192
 0
VERTEX
 8
BODY
 10
-0.0117
 20
0.0016
 30
0.1208
 70
192
 0
VERTEX
 8
BODY
 10
-0.033
 20
-0.0424
 30
0.0436
 70
192
 0
VERTEX
 8
BODY
 10
-0.0311
 20
0.0024
 30
0.0436
 70
192
 0
VERTEX
 8
BODY
 10
-0.0216
 20
-0.0429
 30
0.0436
 70
192
 0
VERTEX
 8
BODY
 10
-0.0198
 20
0.0019
 30
0.0436
 70
192
 0
VERTEX
 8
BODY
 10
0.0532
 20
-0.046
 30
0.0625
 70
192
 0
VERTEX
 8
BODY
 10
0.0551
 20
-0.0012
 30
0.0625
 70
192
 0
VERTEX
 8
BODY
 10
0.0548
 20
-0.0461
 30
0.0711
 70
192
 0
VERTEX
 8
BODY
 10
0.0567
 20
-0.0013
 30
0.0711
 70
192
 0
VERTEX
 8
BODY
 10
0.0548
 20
-0.0461
 30
0.0933
 70
192
 0
VERTEX
 8
BODY
 10
0.0567
 20
-0.0013
 30
0.0933
 70
192
 0
VERTEX
 8
BODY
 10
0.0532
 20
-0.046
 30
0.102
 70
192
 0
VERTEX
 8
BODY
 10
0.055
 20
-0.0012
 30
0.102
 70
192
 0
VERTEX
 8
BODY
 10
0.0484
 20
-0.0458
 30
0.11
 70
192
 0
VERTEX
 8
BODY
 10
0.0503
 20
-0.001
 30
0.11
 70
192
 0
VERTEX
 8
BODY
 10
0.0411
 20
-0.0455
 30
0.1162
 70
192
 0
VERTEX
 8
BODY
 10
0.043
 20
-0.0007
 30
0.1162
 70
192
 0
VERTEX
 8
BODY
 10
-0.106
 20
0.0055
 30
0.0625
 70
192
 0
VERTEX
 8
BODY
 10
-0.1078
 20
-0.0393
 30
0.0625
 70
192
 0
VERTEX
 8
BODY
 10
-0.1076
 20
0.0056
 30
0.0711
 70
192
 0
VERTEX
 8
BODY
 10
-0.1094
 20
-0.0392
 30
0.0711
 70
192
 0
VERTEX
 8
BODY
 10
-0.1076
 20
0.0056
 30
0.0933
 70
192
 0
VERTEX
 8
BODY
 10
-0.1094
 20
-0.0392
 30
0.0933
 70
192
 0
VERTEX
 8
BODY
 10
-0.1059
 20
0.0055
 30
0.102
 70
192
 0
VERTEX
 8
BODY
 10
-0.1078
 20
-0.0393
 30
0.102
 70
192
 0
VERTEX
 8
BODY
 10
-0.1012
 20
0.0053
 30
0.11
 70
192
 0
VERTEX
 8
BODY
 10
-0.1031
 20
-0.0395
 30
0.11
 70
192
 0
VERTEX
 8
BODY
 10
-0.0939
 20
0.005
 30
0.1162
 70
192
 0
VERTEX
 8
BODY
 10
-0.0958
 20
-0.0398
 30
0.1162
 70
192
 0
VERTEX
 8
BODY
 10
0.0547
 20
-0.0435
 30
0.065
 70
192
 0
VERTEX
 8
BODY
 10
0.0563
 20
-0.0039
 30
0.065
 70
192
 0
VERTEX
 8
BODY
 10
0.0558
 20
-0.0435
 30
0.0711
 70
192
 0
VERTEX
 8
BODY
 10
0.0575
 20
-0.0039
 30
0.0711
 70
192
 0
VERTEX
 8
BODY
 10
0.0558
 20
-0.0435
 30
0.0933
 70
192
 0
VERTEX
 8
BODY
 10
0.0575
 20
-0.0039
 30
0.0933
 70
192
 0
VERTEX
 8
BODY
 10
0.0542
 20
-0.0434
 30
0.102
 70
192
 0
VERTEX
 8
BODY
 10
0.0558
 20
-0.0039
 30
0.102
 70
192
 0
VERTEX
 8
BODY
 10
0.0494
 20
-0.0432
 30
0.11
 70
192
 0
VERTEX
 8
BODY
 10
0.051
 20
-0.0037
 30
0.11
 70
192
 0
VERTEX
 8
BODY
 10
0.044
 20
-0.043
 30
0.1145
 70
192
 0
VERTEX
 8
BODY
 10
0.0457
 20
-0.0035
 30
0.1145
 70
192
 0
VERTEX
 8
BODY
 10
-0.1075
 20
0.003
 30
0.065
 70
192
 0
VERTEX
 8
BODY
 10
-0.1091
 20
-0.0366
 30
0.065
 70
192
 0
VERTEX
 8
BODY
 10
-0.1086
 20
0.003
 30
0.0711
 70
192
 0
VERTEX
 8
BODY
 10
-0.1103
 20
-0.0365
 30
0.0711
 70
192
 0
VERTEX
 8
BODY
 10
-0.1086
 20
0.003
 30
0.0933
 70
192
 0
VERTEX
 8
BODY
 10
-0.1103
 20
-0.0365
 30
0.0933
 70
192
 0
VERTEX
 8
BODY
 10
-0.107
 20
0.0029
 30
0.102
 70
192
 0
VERTEX
 8
BODY
 10
-0.1086
 20
-0.0366
 30
0.102
 70
192
 0
VERTEX
 8
BODY
 10
-0.1021
 20
0.0027
 30
0.11
 70
192
 0
VERTEX
 8
BODY
 10
-0.1038
 20
-0.0368
 30
0.11
 70
192
 0
VERTEX
 8
BODY
 10
-0.0968
 20
0.0025
 30
0.1145
 70
192
 0
VERTEX
 8
BODY
 10
-0.0984
 20
-0.037
 30
0.1145
 70
192
 0
VERTEX
 8
BODY
 10
0.0566
 20
-0.041
 30
0.0675
 70
192
 0
VERTEX
 8
BODY
 10
0.058
 20
-0.0065
 30
0.0675
 70
192
 0
VERTEX
 8
BODY
 10
0.0572
 20
-0.0411
 30
0.0711
 70
192
 0
VERTEX
 8
BODY
 10
0.0587
 20
-0.0065
 30
0.0711
 70
192
 0
VERTEX
 8
BODY
 10
0.0572
 20
-0.0411
 30
0.0933
 70
192
 0
VERTEX
 8
BODY
 10
0.0587
 20
-0.0065
 30
0.0933
 70
192
 0
VERTEX
 8
BODY
 10
0.0556
 20
-0.041
 30
0.102
 70
192
 0
VERTEX
 8
BODY
 10
0.057
 20
-0.0064
 30
0.102
 70
192
 0
VERTEX
 8
BODY
 10
0.0507
 20
-0.0408
 30
0.11
 70
192
 0
VERTEX
 8
BODY
 10
0.0521
 20
-0.0062
 30
0.11
 70
192
 0
VERTEX
 8
BODY
 10
0.0472
 20
-0.0406
 30
0.1129
 70
192
 0
VERTEX
 8
BODY
 10
0.0486
 20
-0.0061
 30
0.1129
 70
192
 0
VERTEX
 8
BODY
 10
-0.1093
 20
0.0005
 30
0.0675
 70
192
 0
VERTEX
 8
BODY
 10
-0.1108
 20
-0.034
 30
0.0675
 70
192
 0
VERTEX
 8
BODY
 10
-0.11
 20
0.0006
 30
0.0711
 70
192
 0
VERTEX
 8
BODY
 10
-0.1115
 20
-0.034
 30
0.0711
 70
192
 0
VERTEX
 8
BODY
 10
-0.11
 20
0.0006
 30
0.0933
 70
192
 0
VERTEX
 8
BODY
 10
-0.1115
 20
-0.034
 30
0.0933
 70
192
 0
VERTEX
 8
BODY
 10
-0.1084
 20
0.0005
 30
0.102
 70
192
 0
VERTEX
 8
BODY
 10
-0.1098
 20
-0.0341
 30
0.102
 70
192
 0
VERTEX
 8
BODY
 10
-0.1035
 20
0.0003
 30
0.11
 70
192
 0
VERTEX
 8
BODY
 10
-0.1049
 20
-0.0343
 30
0.11
 70
192
 0
VERTEX
 8
BODY
 10
-0.1
 20
0.0001
 30
0.1129
 70
192
 0
VERTEX
 8
BODY
 10
-0.1014
 20
-0.0344
 30
0.1129
 70
192
 0
VERTEX
 8
BODY
 10
0.0141
 20
-0.0444
 30
0.005
 70
192
 0
VERTEX
 8
BODY
 10
0.0159
 20
0.0004
 30
0.005
 70
192
 0
VERTEX
 8
BODY
 10
0.0226
 20
-0.0447
 30
0.0063
 70
192
 0
VERTEX
 8
BODY
 10
0.0245
 20
0
 30
0.0063
 70
192
 0
VERTEX
 8
BODY
 10
0.0304
 20
-0.045
 30
0.0103
 70
192
 0
VERTEX
 8
BODY
 10
0.0322
 20
-0.0003
 30
0.0103
 70
192
 0
VERTEX
 8
BODY
 10
0.0365
 20
-0.0453
 30
0.0164
 70
192
 0
VERTEX
 8
BODY
 10
0.0384
 20
-0.0005
 30
0.0164
 70
192
 0
VERTEX
 8
BODY
 10
-0.0216
 20
-0.0429
 30
0.005
 70
192
 0
VERTEX
 8
BODY
 10
-0.0198
 20
0.0019
 30
0.005
 70
192
 0
VERTEX
 8
BODY
 10
-0.0668
 20
0.0039
 30
0.005
 70
192
 0
VERTEX
 8
BODY
 10
-0.0687
 20
-0.0409
 30
0.005
 70
192
 0
VERTEX
 8
BODY
 10
-0.0754
 20
0.0042
 30
0.0063
 70
192
 0
VERTEX
 8
BODY
 10
-0.0773
 20
-0.0405
 30
0.0063
 70
192
 0
VERTEX
 8
BODY
 10
-0.0831
 20
0.0045
 30
0.0103
 70
192
 0
VERTEX
 8
BODY
 10
-0.085
 20
-0.0402
 30
0.0103
 70
192
 0
VERTEX
 8
BODY
 10
-0.0893
 20
0.0048
 30
0.0164
 70
192
 0
VERTEX
 8
BODY
 10
-0.0911
 20
-0.04
 30
0.0164
 70
192
 0
VERTEX
 8
BODY
 10
-0.033
 20
-0.0424
 30
0.005
 70
192
 0
VERTEX
 8
BODY
 10
-0.0311
 20
0.0024
 30
0.005
 70
192
 0
VERTEX
 8
BODY
 10
0.0141
 20
-0.0427
 30
0.0033
 70
192
 0
VERTEX
 8
BODY
 10
0.0159
 20
-0.0012
 30
0.0033
 70
192
 0
VERTEX
 8
BODY
 10
0.0227
 20
-0.0431
 30
0.0047
 70
192
 0
VERTEX
 8
BODY
 10
0.0244
 20
-0.0016
 30
0.0047
 70
192
 0
VERTEX
 8
BODY
 10
0.0304
 20
-0.0434
 30
0.0086
 70
192
 0
VERTEX
 8
BODY
 10
0.0322
 20
-0.0019
 30
0.0086
 70
192
 0
VERTEX
 8
BODY
 10
0.0354
 20
-0.0436
 30
0.0136
 70
192
 0
VERTEX
 8
BODY
 10
0.0371
 20
-0.0021
 30
0.0136
 70
192
 0
VERTEX
 8
BODY
 10
-0.0199
 20
-0.0413
 30
0.0033
 70
192
 0
VERTEX
 8
BODY
 10
-0.0182
 20
0.0002
 30
0.0033
 70
192
 0
VERTEX
 8
BODY
 10
-0.0669
 20
0.0022
 30
0.0033
 70
192
 0
VERTEX
 8
BODY
 10
-0.0686
 20
-0.0393
 30
0.0033
 70
192
 0
VERTEX
 8
BODY
 10
-0.0755
 20
0.0026
 30
0.0047
 70
192
 0
VERTEX
 8
BODY
 10
-0.0772
 20
-0.0389
 30
0.0047
 70
192
 0
VERTEX
 8
BODY
 10
-0.0832
 20
0.0029
 30
0.0086
 70
192
 0
VERTEX
 8
BODY
 10
-0.0849
 20
-0.0386
 30
0.0086
 70
192
 0
VERTEX
 8
BODY
 10
-0.0882
 20
0.0031
 30
0.0136
 70
192
 0
VERTEX
 8
BODY
 10
-0.0899
 20
-0.0384
 30
0.0136
 70
192
 0
VERTEX
 8
BODY
 10
-0.0346
 20
-0.0407
 30
0.0033
 70
192
 0
VERTEX
 8
BODY
 10
-0.0329
 20
0.0008
 30
0.0033
 70
192
 0
VERTEX
 8
BODY
 10
0.0142
 20
-0.0414
 30
0.0026
 70
192
 0
VERTEX
 8
BODY
 10
0.0158
 20
-0.0026
 30
0.0026
 70
192
 0
VERTEX
 8
BODY
 10
0.0227
 20
-0.0417
 30
0.0039
 70
192
 0
VERTEX
 8
BODY
 10
0.0244
 20
-0.003
 30
0.0039
 70
192
 0
VERTEX
 8
BODY
 10
0.0305
 20
-0.0421
 30
0.0079
 70
192
 0
VERTEX
 8
BODY
 10
0.0321
 20
-0.0033
 30
0.0079
 70
192
 0
VERTEX
 8
BODY
 10
0.0345
 20
-0.0422
 30
0.0119
 70
192
 0
VERTEX
 8
BODY
 10
0.0361
 20
-0.0034
 30
0.0119
 70
192
 0
VERTEX
 8
BODY
 10
-0.0185
 20
-0.04
 30
0.0026
 70
192
 0
VERTEX
 8
BODY
 10
-0.0169
 20
-0.0012
 30
0.0026
 70
192
 0
VERTEX
 8
BODY
 10
-0.067
 20
0.0009
 30
0.0026
 70
192
 0
VERTEX
 8
BODY
 10
-0.0686
 20
-0.0379
 30
0.0026
 70
192
 0
VERTEX
 8
BODY
 10
-0.0755
 20
0.0012
 30
0.0039
 70
192
 0
VERTEX
 8
BODY
 10
-0.0771
 20
-0.0375
 30
0.0039
 70
192
 0
VERTEX
 8
BODY
 10
-0.0833
 20
0.0016
 30
0.0079
 70
192
 0
VERTEX
 8
BODY
 10
-0.0849
 20
-0.0372
 30
0.0079
 70
192
 0
VERTEX
 8
BODY
 10
-0.0873
 20
0.0017
 30
0.0119
 70
192
 0
VERTEX
 8
BODY
 10
-0.0889
 20
-0.0371
 30
0.0119
 70
192
 0
VERTEX
 8
BODY
 10
-0.0359
 20
-0.0393
 30
0.0026
 70
192
 0
VERTEX
 8
BODY
 10
-0.0343
 20
-0.0005
 30
0.0026
 70
192
 0
VERTEX
 8
BODY
 10
0.0142
 20
-0.0402
 30
0.002
 70
192
 0
VERTEX
 8
BODY
 10
0.0158
 20
-0.0038
 30
0.002
 70
192
 0
VERTEX
 8
BODY
 10
0.0228
 20
-0.0405
 30
0.0034
 70
192
 0
VERTEX
 8
BODY
 10
0.0243
 20
-0.0042
 30
0.0034
 70
192
 0
VERTEX
 8
BODY
 10
0.0305
 20
-0.0408
 30
0.0073
 70
192
 0
VERTEX
 8
BODY
 10
0.0321
 20
-0.0045
 30
0.0073
 70
192
 0
VERTEX
 8
BODY
 10
0.0337
 20
-0.041
 30
0.0105
 70
192
 0
VERTEX
 8
BODY
 10
0.0352
 20
-0.0046
 30
0.0105
 70
192
 0
VERTEX
 8
BODY
 10
-0.0172
 20
-0.0388
 30
0.002
 70
192
 0
VERTEX
 8
BODY
 10
-0.0157
 20
-0.0025
 30
0.002
 70
192
 0
VERTEX
 8
BODY
 10
-0.067
 20
-0.0003
 30
0.002
 70
192
 0
VERTEX
 8
BODY
 10
-0.0685
 20
-0.0367
 30
0.002
 70
192
 0
VERTEX
 8
BODY
 10
-0.0756
 20
0
 30
0.0034
 70
192
 0
VERTEX
 8
BODY
 10
-0.0771
 20
-0.0363
 30
0.0034
 70
192
 0
VERTEX
 8
BODY
 10
-0.0833
 20
0.0003
 30
0.0073
 70
192
 0
VERTEX
 8
BODY
 10
-0.0848
 20
-0.036
 30
0.0073
 70
192
 0
VERTEX
 8
BODY
 10
-0.0865
 20
0.0005
 30
0.0105
 70
192
 0
VERTEX
 8
BODY
 10
-0.088
 20
-0.0359
 30
0.0105
 70
192
 0
VERTEX
 8
BODY
 10
-0.0371
 20
-0.038
 30
0.002
 70
192
 0
VERTEX
 8
BODY
 10
-0.0355
 20
-0.0017
 30
0.002
 70
192
 0
VERTEX
 8
BODY
 10
0
 20
0
 30
0
 70
128
 71
1
 72
13
 73
14
 74
2
 0
VERTEX
 8
BODY
 10
0
 20
0
 30
0
 70
128
 71
13
 72
45
 73
46
 74
14
 0
VERTEX
 8
BODY
 10
0
 20
0
 30
0
 70
128
 71
45
 72
77
 73
78
 74
46
 0
VERTEX
 8
BODY
 10
0
 20
0
 30
0
 70
128
 71
77
 72
109
 73
110
 74
78
 0
VERTEX
 8
BODY
 10
0
 20
0
 30
0
 70
128
 71
109
 72
141
 73
142
 74
110
 0
VERTEX
 8
BODY
 10
0
 20
0
 30
0
 70
128
 71
141
 72
173
 73
174
 74
142
 0
VERTEX
 8
BODY
 10
0
 20
0
 30
0
 70
128
 71
173
 72
205
 73
206
 74
174
 0
VERTEX
 8
BODY
 10
0
 20
0
 30
0
 70
128
 71
205
 72
237
 73
238
 74
206
 0
VERTEX
 8
BODY
 10
0
 20
0
 30
0
 70
128
 71
237
 72
269
 73
270
 74
238
 0
VERTEX
 8
BODY
 10
0
 20
0
 30
0
 70
128
 71
269
 72
301
 73
302
 74
270
 0
VERTEX
 8
BODY
 10
0
 20
0
 30
0
 70
128
 71
301
 72
333
 73
334
 74
302
 0
VERTEX
 8
BODY
 10
0
 20
0
 30
0
 70
128
 71
2
 72
14
 73
15
 74
3
 0
VERTEX
 8
BODY
 10
0
 20
0
 30
0
 70
128
 71
14
 72
46
 73
47
 74
15
 0
VERTEX
 8
BODY
 10
0
 20
0
 30
0
 70
128
 71
46
 72
78
 73
79
 74
47
 0
VERTEX
 8
BODY
 10
0
 20
0
 30
0
 70
128
 71
78
 72
110
 73
111
 74
79
 0
VERTEX
 8
BODY
 10
0
 20
0
 30
0
 70
128
 71
110
 72
142
 73
143
 74
111
 0
VERTEX
 8
BODY
 10
0
 20
0
 30
0
 70
128
 71
142
 72
174
 73
175
 74
143
 0
VERTEX
 8
BODY
 10
0
 20
0
 30
0
 70
128
 71
174
 72
206
 73
207
 74
175
 0
VERTEX
 8
BODY
 10
0
 20
0
 30
0
 70
128
 71
206
 72
238
 73
239
 74
207
 0
VERTEX
 8
BODY
 10
0
 20
0
 30
0
 70
128
 71
238
 72
270
 73
271
 74
239
 0
VERTEX
 8
BODY
 10
0
 20
0
 30
0
 70
128
 71
270
 72
302
 73
303
 74
271
 0
VERTEX
 8
BODY
 10
0
 20
0
 30
0
 70
128
 71
302
 72
334
 73
335
 74
303
 0
VERTEX
 8
BODY
 10
0
 20
0
 30
0
 70
128
 71
3
 72
15
 73
16
 74
4
 0
VERTEX
 8
BODY
 10
0
 20
0
 30
0
 70
128
 71
15
 72
47
 73
48
 74
16
 0
VERTEX
 8
BODY
 10
0
 20
0
 30
0
 70
128
 71
47
 72
79
 73
80
 74
48
 0
VERTEX
 8
BODY
 10
0
 20
0
 30
0
 70
128
 71
79
 72
111
 73
112
 74
80
 0
VERTEX
 8
BODY
 10
0
 20
0
 30
0
 70
128
 71
111
 72
143
 73
144
 74
112
 0
VERTEX
 8
BODY
 10
0
 20
0
 30
0
 70
128
 71
143
 72
175
 73
176
 74
144
 0
VERTEX
 8
BODY
 10
0
 20
0
 30
0
 70
128
 71
175
 72
207
 73
208
 74
176
 0
VERTEX
 8
BODY
 10
0
 20
0
 30
0
 70
128
 71
207
 72
239
 73
240
 74
208
 0
VERTEX
 8
BODY
 10
0
 20
0
 30
0
 70
128
 71
239
 72
271
 73
272
 74
240
 0
VERTEX
 8
BODY
 10
0
 20
0
 30
0
 70
128
 71
271
 72
303
 73
304
 74
272
 0
VERTEX
 8
BODY
 10
0
 20
0
 30
0
 70
128
 71
303
 72
335
 73
336
 74
304
 0
VERTEX
 8
BODY
 10
0
 20
0
 30
0
 70
128
 71
4
 72
16
 73
17
 74
17
 0
VERTEX
 8
BODY
 10
0
 20
0
 30
0
 70
128
 71
16
 72
48
 73
49
 74
17
 0
VERTEX
 8
BODY
 10
0
 20
0
 30
0
 70
128
 71
48
 72
80
 73
81
 74
49
 0
VERTEX
 8
BODY
 10
0
 20
0
 30
0
 70
128
 71
80
 72
112
 73
113
 74
81
 0
VERTEX
 8
BODY
 10
0
 20
0
 30
0
 70
128
 71
112
 72
144
 73
145
 74
113
 0
VERTEX
 8
BODY
 10
0
 20
0
 30
0
 70
128
 71
144
 72
176
 73
177
 74
145
 0
VERTEX
 8
BODY
 10
0
 20
0
 30
0
 70
128
 71
176
 72
208
 73
209
 74
177
 0
VERTEX
 8
BODY
 10
0
 20
0
 30
0
 70
128
 71
208
 72
240
 73
241
 74
209
 0
VERTEX
 8
BODY
 10
0
 20
0
 30
0
 70
128
 71
240
 72
272
 73
273
 74
241
 0
VERTEX
 8
BODY
 10
0
 20
0
 30
0
 70
128
 71
272
 72
304
 73
305
 74
273
 0
VERTEX
 8
BODY
 10
0
 20
0
 30
0
 70
128
 71
304
 72
336
 73
305
 74
305
 0
VERTEX
 8
BODY
 10
0
 20
0
 30
0
 70
128
 71
4
 72
17
 73
18
 74
18
 0
VERTEX
 8
BODY
 10
0
 20
0
 30
0
 70
128
 71
17
 72
49
 73
50
 74
18
 0
VERTEX
 8
BODY
 10
0
 20
0
 30
0
 70
128
 71
49
 72
81
 73
82
 74
50
 0
VERTEX
 8
BODY
 10
0
 20
0
 30
0
 70
128
 71
81
 72
113
 73
114
 74
82
 0
VERTEX
 8
BODY
 10
0
 20
0
 30
0
 70
128
 71
113
 72
145
 73
146
 74
114
 0
VERTEX
 8
BODY
 10
0
 20
0
 30
0
 70
128
 71
145
 72
177
 73
178
 74
146
 0
VERTEX
 8
BODY
 10
0
 20
0
 30
0
 70
128
 71
177
 72
209
 73
210
 74
178
 0
VERTEX
 8
BODY
 10
0
 20
0
 30
0
 70
128
 71
209
 72
241
 73
242
 74
210
 0
VERTEX
 8
BODY
 10
0
 20
0
 30
0
 70
128
 71
241
 72
273
 73
274
 74
242
 0
VERTEX
 8
BODY
 10
0
 20
0
 30
0
 70
128
 71
273
 72
305
 73
306
 74
274
 0
VERTEX
 8
BODY
 10
0
 20
0
 30
0
 70
128
 71
305
 72
336
 73
306
 74
306
 0
VERTEX
 8
BODY
 10
0
 20
0
 30
0
 70
128
 71
4
 72
18
 73
19
 74
19
 0
VERTEX
 8
BODY
 10
0
 20
0
 30
0
 70
128
 71
18
 72
50
 73
51
 74
19
 0
VERTEX
 8
BODY
 10
0
 20
0
 30
0
 70
128
 71
50
 72
82
 73
83
 74
51
 0
VERTEX
 8
BODY
 10
0
 20
0
 30
0
 70
128
 71
82
 72
114
 73
115
 74
83
 0
VERTEX
 8
BODY
 10
0
 20
0
 30
0
 70
128
 71
114
 72
146
 73
147
 74
115
 0
VERTEX
 8
BODY
 10
0
 20
0
 30
0
 70
128
 71
146
 72
178
 73
179
 74
147
 0
VERTEX
 8
BODY
 10
0
 20
0
 30
0
 70
128
 71
178
 72
210
 73
211
 74
179
 0
VERTEX
 8
BODY
 10
0
 20
0
 30
0
 70
128
 71
210
 72
242
 73
243
 74
211
 0
VERTEX
 8
BODY
 10
0
 20
0
 30
0
 70
128
 71
242
 72
274
 73
275
 74
243
 0
VERTEX
 8
BODY
 10
0
 20
0
 30
0
 70
128
 71
274
 72
306
 73
307
 74
275
 0
VERTEX
 8
BODY
 10
0
 20
0
 30
0
 70
128
 71
306
 72
336
 73
307
 74
307
 0
VERTEX
 8
BODY
 10
0
 20
0
 30
0
 70
128
 71
4
 72
19
 73
20
 74
20
 0
VERTEX
 8
BODY
 10
0
 20
0
 30
0
 70
128
 71
19
 72
51
 73
52
 74
20
 0
VERTEX
 8
BODY
 10
0
 20
0
 30
0
 70
128
 71
51
 72
83
 73
84
 74
52
 0
VERTEX
 8
BODY
 10
0
 20
0
 30
0
 70
128
 71
83
 72
115
 73
116
 74
84
 0
VERTEX
 8
BODY
 10
0
 20
0
 30
0
 70
128
 71
115
 72
147
 73
148
 74
116
 0
VERTEX
 8
BODY
 10
0
 20
0
 30
0
 70
128
 71
147
 72
179
 73
180
 74
148
 0
VERTEX
 8
BODY
 10
0
 20
0
 30
0
 70
128
 71
179
 72
211
 73
212
 74
180
 0
VERTEX
 8
BODY
 10
0
 20
0
 30
0
 70
128
 71
211
 72
243
 73
244
 74
212
 0
VERTEX
 8
BODY
 10
0
 20
0
 30
0
 70
128
 71
243
 72
275
 73
276
 74
244
 0
VERTEX
 8
BODY
 10
0
 20
0
 30
0
 70
128
 71
275
 72
307
 73
308
 74
276
 0
VERTEX
 8
BODY
 10
0
 20
0
 30
0
 70
128
 71
307
 72
336
 73
308
 74
308
 0
VERTEX
 8
BODY
 10
0
 20
0
 30
0
 70
128
 71
4
 72
20
 73
21
 74
21
 0
VERTEX
 8
BODY
 10
0
 20
0
 30
0
 70
128
 71
20
 72
52
 73
53
 74
21
 0
VERTEX
 8
BODY
 10
0
 20
0
 30
0
 70
128
 71
52
 72
84
 73
85
 74
53
 0
VERTEX
 8
BODY
 10
0
 20
0
 30
0
 70
128
 71
84
 72
116
 73
117
 74
85
 0
VERTEX
 8
BODY
 10
0
 20
0
 30
0
 70
128
 71
116
 72
148
 73
149
 74
117
 0
VERTEX
 8
BODY
 10
0
 20
0
 30
0
 70
128
 71
148
 72
180
 73
181
 74
149
 0
VERTEX
 8
BODY
 10
0
 20
0
 30
0
 70
128
 71
180
 72
212
 73
213
 74
181
 0
VERTEX
 8
BODY
 10
0
 20
0
 30
0
 70
128
 71
212
 72
244
 73
245
 74
213
 0
VERTEX
 8
BODY
 10
0
 20
0
 30
0
 70
128
 71
244
 72
276
 73
277
 74
245
 0
VERTEX
 8
BODY
 10
0
 20
0
 30
0
 70
128
 71
276
 72
308
 73
309
 74
277
 0
VERTEX
 8
BODY
 10
0
 20
0
 30
0
 70
128
 71
308
 72
336
 73
309
 74
309
 0
VERTEX
 8
BODY
 10
0
 20
0
 30
0
 70
128
 71
4
 72
21
 73
22
 74
5
 0
VERTEX
 8
BODY
 10
0
 20
0
 30
0
 70
128
 71
21
 72
53
 73
54
 74
22
 0
VERTEX
 8
BODY
 10
0
 20
0
 30
0
 70
128
 71
53
 72
85
 73
86
 74
54
 0
VERTEX
 8
BODY
 10
0
 20
0
 30
0
 70
128
 71
85
 72
117
 73
118
 74
86
 0
VERTEX
 8
BODY
 10
0
 20
0
 30
0
 70
128
 71
117
 72
149
 73
150
 74
118
 0
VERTEX
 8
BODY
 10
0
 20
0
 30
0
 70
128
 71
149
 72
181
 73
182
 74
150
 0
VERTEX
 8
BODY
 10
0
 20
0
 30
0
 70
128
 71
181
 72
213
 73
214
 74
182
 0
VERTEX
 8
BODY
 10
0
 20
0
 30
0
 70
128
 71
213
 72
245
 73
246
 74
214
 0
VERTEX
 8
BODY
 10
0
 20
0
 30
0
 70
128
 71
245
 72
277
 73
278
 74
246
 0
VERTEX
 8
BODY
 10
0
 20
0
 30
0
 70
128
 71
277
 72
309
 73
310
 74
278
 0
VERTEX
 8
BODY
 10
0
 20
0
 30
0
 70
128
 71
309
 72
336
 73
337
 74
310
 0
VERTEX
 8
BODY
 10
0
 20
0
 30
0
 70
128
 71
485
 72
487
 73
488
 74
486
 0
VERTEX
 8
BODY
 10
0
 20
0
 30
0
 70
128
 71
487
 72
489
 73
490
 74
488
 0
VERTEX
 8
BODY
 10
0
 20
0
 30
0
 70
128
 71
489
 72
491
 73
492
 74
490
 0
VERTEX
 8
BODY
 10
0
 20
0
 30
0
 70
128
 71
86
 72
118
 73
119
 74
87
 0
VERTEX
 8
BODY
 10
0
 20
0
 30
0
 70
128
 71
401
 72
403
 73
404
 74
402
 0
VERTEX
 8
BODY
 10
0
 20
0
 30
0
 70
128
 71
403
 72
405
 73
406
 74
404
 0
VERTEX
 8
BODY
 10
0
 20
0
 30
0
 70
128
 71
405
 72
407
 73
408
 74
406
 0
VERTEX
 8
BODY
 10
0
 20
0
 30
0
 70
128
 71
407
 72
409
 73
410
 74
408
 0
VERTEX
 8
BODY
 10
0
 20
0
 30
0
 70
128
 71
409
 72
411
 73
412
 74
410
 0
VERTEX
 8
BODY
 10
0
 20
0
 30
0
 70
128
 71
278
 72
310
 73
311
 74
279
 0
VERTEX
 8
BODY
 10
0
 20
0
 30
0
 70
128
 71
310
 72
337
 73
338
 74
311
 0
VERTEX
 8
BODY
 10
0
 20
0
 30
0
 70
128
 71
6
 72
23
 73
24
 74
7
 0
VERTEX
 8
BODY
 10
0
 20
0
 30
0
 70
128
 71
23
 72
55
 73
56
 74
24
 0
VERTEX
 8
BODY
 10
0
 20
0
 30
0
 70
128
 71
55
 72
87
 73
88
 74
56
 0
VERTEX
 8
BODY
 10
0
 20
0
 30
0
 70
128
 71
87
 72
119
 73
120
 74
88
 0
VERTEX
 8
BODY
 10
0
 20
0
 30
0
 70
128
 71
119
 72
151
 73
152
 74
120
 0
VERTEX
 8
BODY
 10
0
 20
0
 30
0
 70
128
 71
151
 72
183
 73
184
 74
152
 0
VERTEX
 8
BODY
 10
0
 20
0
 30
0
 70
128
 71
183
 72
215
 73
216
 74
184
 0
VERTEX
 8
BODY
 10
0
 20
0
 30
0
 70
128
 71
215
 72
247
 73
248
 74
216
 0
VERTEX
 8
BODY
 10
0
 20
0
 30
0
 70
128
 71
247
 72
279
 73
280
 74
248
 0
VERTEX
 8
BODY
 10
0
 20
0
 30
0
 70
128
 71
279
 72
311
 73
312
 74
280
 0
VERTEX
 8
BODY
 10
0
 20
0
 30
0
 70
128
 71
311
 72
338
 73
339
 74
312
 0
VERTEX
 8
BODY
 10
0
 20
0
 30
0
 70
128
 71
7
 72
24
 73
25
 74
25
 0
VERTEX
 8
BODY
 10
0
 20
0
 30
0
 70
128
 71
24
 72
56
 73
57
 74
25
 0
VERTEX
 8
BODY
 10
0
 20
0
 30
0
 70
128
 71
56
 72
88
 73
89
 74
57
 0
VERTEX
 8
BODY
 10
0
 20
0
 30
0
 70
128
 71
88
 72
120
 73
121
 74
89
 0
VERTEX
 8
BODY
 10
0
 20
0
 30
0
 70
128
 71
120
 72
152
 73
153
 74
121
 0
VERTEX
 8
BODY
 10
0
 20
0
 30
0
 70
128
 71
152
 72
184
 73
185
 74
153
 0
VERTEX
 8
BODY
 10
0
 20
0
 30
0
 70
128
 71
184
 72
216
 73
217
 74
185
 0
VERTEX
 8
BODY
 10
0
 20
0
 30
0
 70
128
 71
216
 72
248
 73
249
 74
217
 0
VERTEX
 8
BODY
 10
0
 20
0
 30
0
 70
128
 71
248
 72
280
 73
281
 74
249
 0
VERTEX
 8
BODY
 10
0
 20
0
 30
0
 70
128
 71
280
 72
312
 73
313
 74
281
 0
VERTEX
 8
BODY
 10
0
 20
0
 30
0
 70
128
 71
312
 72
339
 73
313
 74
313
 0
VERTEX
 8
BODY
 10
0
 20
0
 30
0
 70
128
 71
7
 72
25
 73
26
 74
26
 0
VERTEX
 8
BODY
 10
0
 20
0
 30
0
 70
128
 71
25
 72
57
 73
58
 74
26
 0
VERTEX
 8
BODY
 10
0
 20
0
 30
0
 70
128
 71
57
 72
89
 73
90
 74
58
 0
VERTEX
 8
BODY
 10
0
 20
0
 30
0
 70
128
 71
89
 72
121
 73
122
 74
90
 0
VERTEX
 8
BODY
 10
0
 20
0
 30
0
 70
128
 71
121
 72
153
 73
154
 74
122
 0
VERTEX
 8
BODY
 10
0
 20
0
 30
0
 70
128
 71
153
 72
185
 73
186
 74
154
 0
VERTEX
 8
BODY
 10
0
 20
0
 30
0
 70
128
 71
185
 72
217
 73
218
 74
186
 0
VERTEX
 8
BODY
 10
0
 20
0
 30
0
 70
128
 71
217
 72
249
 73
250
 74
218
 0
VERTEX
 8
BODY
 10
0
 20
0
 30
0
 70
128
 71
249
 72
281
 73
282
 74
250
 0
VERTEX
 8
BODY
 10
0
 20
0
 30
0
 70
128
 71
281
 72
313
 73
314
 74
282
 0
VERTEX
 8
BODY
 10
0
 20
0
 30
0
 70
128
 71
313
 72
339
 73
314
 74
314
 0
VERTEX
 8
BODY
 10
0
 20
0
 30
0
 70
128
 71
7
 72
26
 73
27
 74
27
 0
VERTEX
 8
BODY
 10
0
 20
0
 30
0
 70
128
 71
26
 72
58
 73
59
 74
27
 0
VERTEX
 8
BODY
 10
0
 20
0
 30
0
 70
128
 71
58
 72
90
 73
91
 74
59
 0
VERTEX
 8
BODY
 10
0
 20
0
 30
0
 70
128
 71
90
 72
122
 73
123
 74
91
 0
VERTEX
 8
BODY
 10
0
 20
0
 30
0
 70
128
 71
122
 72
154
 73
155
 74
123
 0
VERTEX
 8
BODY
 10
0
 20
0
 30
0
 70
128
 71
154
 72
186
 73
187
 74
155
 0
VERTEX
 8
BODY
 10
0
 20
0
 30
0
 70
128
 71
186
 72
218
 73
219
 74
187
 0
VERTEX
 8
BODY
 10
0
 20
0
 30
0
 70
128
 71
218
 72
250
 73
251
 74
219
 0
VERTEX
 8
BODY
 10
0
 20
0
 30
0
 70
128
 71
250
 72
282
 73
283
 74
251
 0
VERTEX
 8
BODY
 10
0
 20
0
 30
0
 70
128
 71
282
 72
314
 73
315
 74
283
 0
VERTEX
 8
BODY
 10
0
 20
0
 30
0
 70
128
 71
314
 72
339
 73
315
 74
315
 0
VERTEX
 8
BODY
 10
0
 20
0
 30
0
 70
128
 71
7
 72
27
 73
28
 74
28
 0
VERTEX
 8
BODY
 10
0
 20
0
 30
0
 70
128
 71
27
 72
59
 73
60
 74
28
 0
VERTEX
 8
BODY
 10
0
 20
0
 30
0
 70
128
 71
59
 72
91
 73
92
 74
60
 0
VERTEX
 8
BODY
 10
0
 20
0
 30
0
 70
128
 71
91
 72
123
 73
124
 74
92
 0
VERTEX
 8
BODY
 10
0
 20
0
 30
0
 70
128
 71
123
 72
155
 73
156
 74
124
 0
VERTEX
 8
BODY
 10
0
 20
0
 30
0
 70
128
 71
155
 72
187
 73
188
 74
156
 0
VERTEX
 8
BODY
 10
0
 20
0
 30
0
 70
128
 71
187
 72
219
 73
220
 74
188
 0
VERTEX
 8
BODY
 10
0
 20
0
 30
0
 70
128
 71
219
 72
251
 73
252
 74
220
 0
VERTEX
 8
BODY
 10
0
 20
0
 30
0
 70
128
 71
251
 72
283
 73
284
 74
252
 0
VERTEX
 8
BODY
 10
0
 20
0
 30
0
 70
128
 71
283
 72
315
 73
316
 74
284
 0
VERTEX
 8
BODY
 10
0
 20
0
 30
0
 70
128
 71
315
 72
339
 73
316
 74
316
 0
VERTEX
 8
BODY
 10
0
 20
0
 30
0
 70
128
 71
7
 72
28
 73
29
 74
29
 0
VERTEX
 8
BODY
 10
0
 20
0
 30
0
 70
128
 71
28
 72
60
 73
61
 74
29
 0
VERTEX
 8
BODY
 10
0
 20
0
 30
0
 70
128
 71
60
 72
92
 73
93
 74
61
 0
VERTEX
 8
BODY
 10
0
 20
0
 30
0
 70
128
 71
92
 72
124
 73
125
 74
93
 0
VERTEX
 8
BODY
 10
0
 20
0
 30
0
 70
128
 71
124
 72
156
 73
157
 74
125
 0
VERTEX
 8
BODY
 10
0
 20
0
 30
0
 70
128
 71
156
 72
188
 73
189
 74
157
 0
VERTEX
 8
BODY
 10
0
 20
0
 30
0
 70
128
 71
188
 72
220
 73
221
 74
189
 0
VERTEX
 8
BODY
 10
0
 20
0
 30
0
 70
128
 71
220
 72
252
 73
253
 74
221
 0
VERTEX
 8
BODY
 10
0
 20
0
 30
0
 70
128
 71
252
 72
284
 73
285
 74
253
 0
VERTEX
 8
BODY
 10
0
 20
0
 30
0
 70
128
 71
284
 72
316
 73
317
 74
285
 0
VERTEX
 8
BODY
 10
0
 20
0
 30
0
 70
128
 71
316
 72
339
 73
317
 74
317
 0
VERTEX
 8
BODY
 10
0
 20
0
 30
0
 70
128
 71
7
 72
29
 73
30
 74
8
 0
VERTEX
 8
BODY
 10
0
 20
0
 30
0
 70
128
 71
29
 72
61
 73
62
 74
30
 0
VERTEX
 8
BODY
 10
0
 20
0
 30
0
 70
128
 71
61
 72
93
 73
94
 74
62
 0
VERTEX
 8
BODY
 10
0
 20
0
 30
0
 70
128
 71
93
 72
125
 73
126
 74
94
 0
VERTEX
 8
BODY
 10
0
 20
0
 30
0
 70
128
 71
125
 72
157
 73
158
 74
126
 0
VERTEX
 8
BODY
 10
0
 20
0
 30
0
 70
128
 71
157
 72
189
 73
190
 74
158
 0
VERTEX
 8
BODY
 10
0
 20
0
 30
0
 70
128
 71
189
 72
221
 73
222
 74
190
 0
VERTEX
 8
BODY
 10
0
 20
0
 30
0
 70
128
 71
221
 72
253
 73
254
 74
222
 0
VERTEX
 8
BODY
 10
0
 20
0
 30
0
 70
128
 71
253
 72
285
 73
286
 74
254
 0
VERTEX
 8
BODY
 10
0
 20
0
 30
0
 70
128
 71
285
 72
317
 73
318
 74
286
 0
VERTEX
 8
BODY
 10
0
 20
0
 30
0
 70
128
 71
317
 72
339
 73
340
 74
318
 0
VERTEX
 8
BODY
 10
0
 20
0
 30
0
 70
128
 71
8
 72
30
 73
31
 74
9
 0
VERTEX
 8
BODY
 10
0
 20
0
 30
0
 70
128
 71
30
 72
62
 73
63
 74
31
 0
VERTEX
 8
BODY
 10
0
 20
0
 30
0
 70
128
 71
62
 72
94
 73
95
 74
63
 0
VERTEX
 8
BODY
 10
0
 20
0
 30
0
 70
128
 71
94
 72
126
 73
127
 74
95
 0
VERTEX
 8
BODY
 10
0
 20
0
 30
0
 70
128
 71
126
 72
158
 73
159
 74
127
 0
VERTEX
 8
BODY
 10
0
 20
0
 30
0
 70
128
 71
158
 72
190
 73
191
 74
159
 0
VERTEX
 8
BODY
 10
0
 20
0
 30
0
 70
128
 71
190
 72
222
 73
223
 74
191
 0
VERTEX
 8
BODY
 10
0
 20
0
 30
0
 70
128
 71
222
 72
254
 73
255
 74
223
 0
VERTEX
 8
BODY
 10
0
 20
0
 30
0
 70
128
 71
254
 72
286
 73
287
 74
255
 0
VERTEX
 8
BODY
 10
0
 20
0
 30
0
 70
128
 71
286
 72
318
 73
319
 74
287
 0
VERTEX
 8
BODY
 10
0
 20
0
 30
0
 70
128
 71
318
 72
340
 73
341
 74
319
 0
VERTEX
 8
BODY
 10
0
 20
0
 30
0
 70
128
 71
9
 72
31
 73
32
 74
10
 0
VERTEX
 8
BODY
 10
0
 20
0
 30
0
 70
128
 71
31
 72
63
 73
64
 74
32
 0
VERTEX
 8
BODY
 10
0
 20
0
 30
0
 70
128
 71
63
 72
95
 73
96
 74
64
 0
VERTEX
 8
BODY
 10
0
 20
0
 30
0
 70
128
 71
95
 72
127
 73
128
 74
96
 0
VERTEX
 8
BODY
 10
0
 20
0
 30
0
 70
128
 71
127
 72
159
 73
160
 74
128
 0
VERTEX
 8
BODY
 10
0
 20
0
 30
0
 70
128
 71
159
 72
191
 73
192
 74
160
 0
VERTEX
 8
BODY
 10
0
 20
0
 30
0
 70
128
 71
191
 72
223
 73
224
 74
192
 0
VERTEX
 8
BODY
 10
0
 20
0
 30
0
 70
128
 71
223
 72
255
 73
256
 74
224
 0
VERTEX
 8
BODY
 10
0
 20
0
 30
0
 70
128
 71
255
 72
287
 73
288
 74
256
 0
VERTEX
 8
BODY
 10
0
 20
0
 30
0
 70
128
 71
287
 72
319
 73
320
 74
288
 0
VERTEX
 8
BODY
 10
0
 20
0
 30
0
 70
128
 71
319
 72
341
 73
342
 74
320
 0
VERTEX
 8
BODY
 10
0
 20
0
 30
0
 70
128
 71
10
 72
32
 73
33
 74
33
 0
VERTEX
 8
BODY
 10
0
 20
0
 30
0
 70
128
 71
32
 72
64
 73
65
 74
33
 0
VERTEX
 8
BODY
 10
0
 20
0
 30
0
 70
128
 71
64
 72
96
 73
97
 74
65
 0
VERTEX
 8
BODY
 10
0
 20
0
 30
0
 70
128
 71
96
 72
128
 73
129
 74
97
 0
VERTEX
 8
BODY
 10
0
 20
0
 30
0
 70
128
 71
128
 72
160
 73
161
 74
129
 0
VERTEX
 8
BODY
 10
0
 20
0
 30
0
 70
128
 71
160
 72
192
 73
193
 74
161
 0
VERTEX
 8
BODY
 10
0
 20
0
 30
0
 70
128
 71
192
 72
224
 73
225
 74
193
 0
VERTEX
 8
BODY
 10
0
 20
0
 30
0
 70
128
 71
224
 72
256
 73
257
 74
225
 0
VERTEX
 8
BODY
 10
0
 20
0
 30
0
 70
128
 71
256
 72
288
 73
289
 74
257
 0
VERTEX
 8
BODY
 10
0
 20
0
 30
0
 70
128
 71
288
 72
320
 73
321
 74
289
 0
VERTEX
 8
BODY
 10
0
 20
0
 30
0
 70
128
 71
320
 72
342
 73
321
 74
321
 0
VERTEX
 8
BODY
 10
0
 20
0
 30
0
 70
128
 71
10
 72
33
 73
34
 74
34
 0
VERTEX
 8
BODY
 10
0
 20
0
 30
0
 70
128
 71
33
 72
65
 73
66
 74
34
 0
VERTEX
 8
BODY
 10
0
 20
0
 30
0
 70
128
 71
65
 72
97
 73
98
 74
66
 0
VERTEX
 8
BODY
 10
0
 20
0
 30
0
 70
128
 71
97
 72
129
 73
130
 74
98
 0
VERTEX
 8
BODY
 10
0
 20
0
 30
0
 70
128
 71
129
 72
161
 73
162
 74
130
 0
VERTEX
 8
BODY
 10
0
 20
0
 30
0
 70
128
 71
161
 72
193
 73
194
 74
162
 0
VERTEX
 8
BODY
 10
0
 20
0
 30
0
 70
128
 71
193
 72
225
 73
226
 74
194
 0
VERTEX
 8
BODY
 10
0
 20
0
 30
0
 70
128
 71
225
 72
257
 73
258
 74
226
 0
VERTEX
 8
BODY
 10
0
 20
0
 30
0
 70
128
 71
257
 72
289
 73
290
 74
258
 0
VERTEX
 8
BODY
 10
0
 20
0
 30
0
 70
128
 71
289
 72
321
 73
322
 74
290
 0
VERTEX
 8
BODY
 10
0
 20
0
 30
0
 70
128
 71
321
 72
342
 73
322
 74
322
 0
VERTEX
 8
BODY
 10
0
 20
0
 30
0
 70
128
 71
10
 72
34
 73
35
 74
35
 0
VERTEX
 8
BODY
 10
0
 20
0
 30
0
 70
128
 71
34
 72
66
 73
67
 74
35
 0
VERTEX
 8
BODY
 10
0
 20
0
 30
0
 70
128
 71
66
 72
98
 73
99
 74
67
 0
VERTEX
 8
BODY
 10
0
 20
0
 30
0
 70
128
 71
98
 72
130
 73
131
 74
99
 0
VERTEX
 8
BODY
 10
0
 20
0
 30
0
 70
128
 71
130
 72
162
 73
163
 74
131
 0
VERTEX
 8
BODY
 10
0
 20
0
 30
0
 70
128
 71
162
 72
194
 73
195
 74
163
 0
VERTEX
 8
BODY
 10
0
 20
0
 30
0
 70
128
 71
194
 72
226
 73
227
 74
195
 0
VERTEX
 8
BODY
 10
0
 20
0
 30
0
 70
128
 71
226
 72
258
 73
259
 74
227
 0
VERTEX
 8
BODY
 10
0
 20
0
 30
0
 70
128
 71
258
 72
290
 73
291
 74
259
 0
VERTEX
 8
BODY
 10
0
 20
0
 30
0
 70
128
 71
290
 72
322
 73
323
 74
291
 0
VERTEX
 8
BODY
 10
0
 20
0
 30
0
 70
128
 71
322
 72
342
 73
323
 74
323
 0
VERTEX
 8
BODY
 10
0
 20
0
 30
0
 70
128
 71
10
 72
35
 73
36
 74
36
 0
VERTEX
 8
BODY
 10
0
 20
0
 30
0
 70
128
 71
35
 72
67
 73
68
 74
36
 0
VERTEX
 8
BODY
 10
0
 20
0
 30
0
 70
128
 71
67
 72
99
 73
100
 74
68
 0
VERTEX
 8
BODY
 10
0
 20
0
 30
0
 70
128
 71
99
 72
131
 73
132
 74
100
 0
VERTEX
 8
BODY
 10
0
 20
0
 30
0
 70
128
 71
131
 72
163
 73
164
 74
132
 0
VERTEX
 8
BODY
 10
0
 20
0
 30
0
 70
128
 71
163
 72
195
 73
196
 74
164
 0
VERTEX
 8
BODY
 10
0
 20
0
 30
0
 70
128
 71
195
 72
227
 73
228
 74
196
 0
VERTEX
 8
BODY
 10
0
 20
0
 30
0
 70
128
 71
227
 72
259
 73
260
 74
228
 0
VERTEX
 8
BODY
 10
0
 20
0
 30
0
 70
128
 71
259
 72
291
 73
292
 74
260
 0
VERTEX
 8
BODY
 10
0
 20
0
 30
0
 70
128
 71
291
 72
323
 73
324
 74
292
 0
VERTEX
 8
BODY
 10
0
 20
0
 30
0
 70
128
 71
323
 72
342
 73
324
 74
324
 0
VERTEX
 8
BODY
 10
0
 20
0
 30
0
 70
128
 71
10
 72
36
 73
37
 74
37
 0
VERTEX
 8
BODY
 10
0
 20
0
 30
0
 70
128
 71
36
 72
68
 73
69
 74
37
 0
VERTEX
 8
BODY
 10
0
 20
0
 30
0
 70
128
 71
68
 72
100
 73
101
 74
69
 0
VERTEX
 8
BODY
 10
0
 20
0
 30
0
 70
128
 71
100
 72
132
 73
133
 74
101
 0
VERTEX
 8
BODY
 10
0
 20
0
 30
0
 70
128
 71
132
 72
164
 73
165
 74
133
 0
VERTEX
 8
BODY
 10
0
 20
0
 30
0
 70
128
 71
164
 72
196
 73
197
 74
165
 0
VERTEX
 8
BODY
 10
0
 20
0
 30
0
 70
128
 71
196
 72
228
 73
229
 74
197
 0
VERTEX
 8
BODY
 10
0
 20
0
 30
0
 70
128
 71
228
 72
260
 73
261
 74
229
 0
VERTEX
 8
BODY
 10
0
 20
0
 30
0
 70
128
 71
260
 72
292
 73
293
 74
261
 0
VERTEX
 8
BODY
 10
0
 20
0
 30
0
 70
128
 71
292
 72
324
 73
325
 74
293
 0
VERTEX
 8
BODY
 10
0
 20
0
 30
0
 70
128
 71
324
 72
342
 73
325
 74
325
 0
VERTEX
 8
BODY
 10
0
 20
0
 30
0
 70
128
 71
10
 72
37
 73
38
 74
11
 0
VERTEX
 8
BODY
 10
0
 20
0
 30
0
 70
128
 71
37
 72
69
 73
70
 74
38
 0
VERTEX
 8
BODY
 10
0
 20
0
 30
0
 70
128
 71
69
 72
101
 73
102
 74
70
 0
VERTEX
 8
BODY
 10
0
 20
0
 30
0
 70
128
 71
101
 72
133
 73
134
 74
102
 0
VERTEX
 8
BODY
 10
0
 20
0
 30
0
 70
128
 71
133
 72
165
 73
166
 74
134
 0
VERTEX
 8
BODY
 10
0
 20
0
 30
0
 70
128
 71
165
 72
197
 73
198
 74
166
 0
VERTEX
 8
BODY
 10
0
 20
0
 30
0
 70
128
 71
197
 72
229
 73
230
 74
198
 0
VERTEX
 8
BODY
 10
0
 20
0
 30
0
 70
128
 71
229
 72
261
 73
262
 74
230
 0
VERTEX
 8
BODY
 10
0
 20
0
 30
0
 70
128
 71
261
 72
293
 73
294
 74
262
 0
VERTEX
 8
BODY
 10
0
 20
0
 30
0
 70
128
 71
293
 72
325
 73
326
 74
294
 0
VERTEX
 8
BODY
 10
0
 20
0
 30
0
 70
128
 71
325
 72
342
 73
343
 74
326
 0
VERTEX
 8
BODY
 10
0
 20
0
 30
0
 70
128
 71
495
 72
497
 73
498
 74
496
 0
VERTEX
 8
BODY
 10
0
 20
0
 30
0
 70
128
 71
497
 72
499
 73
500
 74
498
 0
VERTEX
 8
BODY
 10
0
 20
0
 30
0
 70
128
 71
499
 72
501
 73
502
 74
500
 0
VERTEX
 8
BODY
 10
0
 20
0
 30
0
 70
128
 71
102
 72
134
 73
135
 74
103
 0
VERTEX
 8
BODY
 10
0
 20
0
 30
0
 70
128
 71
413
 72
415
 73
416
 74
414
 0
VERTEX
 8
BODY
 10
0
 20
0
 30
0
 70
128
 71
415
 72
417
 73
418
 74
416
 0
VERTEX
 8
BODY
 10
0
 20
0
 30
0
 70
128
 71
417
 72
419
 73
420
 74
418
 0
VERTEX
 8
BODY
 10
0
 20
0
 30
0
 70
128
 71
419
 72
421
 73
422
 74
420
 0
VERTEX
 8
BODY
 10
0
 20
0
 30
0
 70
128
 71
421
 72
423
 73
424
 74
422
 0
VERTEX
 8
BODY
 10
0
 20
0
 30
0
 70
128
 71
294
 72
326
 73
327
 74
295
 0
VERTEX
 8
BODY
 10
0
 20
0
 30
0
 70
128
 71
326
 72
343
 73
344
 74
327
 0
VERTEX
 8
BODY
 10
0
 20
0
 30
0
 70
128
 71
12
 72
39
 73
40
 74
1
 0
VERTEX
 8
BODY
 10
0
 20
0
 30
0
 70
128
 71
39
 72
71
 73
72
 74
40
 0
VERTEX
 8
BODY
 10
0
 20
0
 30
0
 70
128
 71
71
 72
103
 73
104
 74
72
 0
VERTEX
 8
BODY
 10
0
 20
0
 30
0
 70
128
 71
103
 72
135
 73
136
 74
104
 0
VERTEX
 8
BODY
 10
0
 20
0
 30
0
 70
128
 71
135
 72
167
 73
168
 74
136
 0
VERTEX
 8
BODY
 10
0
 20
0
 30
0
 70
128
 71
167
 72
199
 73
200
 74
168
 0
VERTEX
 8
BODY
 10
0
 20
0
 30
0
 70
128
 71
199
 72
231
 73
232
 74
200
 0
VERTEX
 8
BODY
 10
0
 20
0
 30
0
 70
128
 71
231
 72
263
 73
264
 74
232
 0
VERTEX
 8
BODY
 10
0
 20
0
 30
0
 70
128
 71
263
 72
295
 73
296
 74
264
 0
VERTEX
 8
BODY
 10
0
 20
0
 30
0
 70
128
 71
295
 72
327
 73
328
 74
296
 0
VERTEX
 8
BODY
 10
0
 20
0
 30
0
 70
128
 71
327
 72
344
 73
333
 74
328
 0
VERTEX
 8
BODY
 10
0
 20
0
 30
0
 70
128
 71
1
 72
40
 73
41
 74
41
 0
VERTEX
 8
BODY
 10
0
 20
0
 30
0
 70
128
 71
40
 72
72
 73
73
 74
41
 0
VERTEX
 8
BODY
 10
0
 20
0
 30
0
 70
128
 71
72
 72
104
 73
105
 74
73
 0
VERTEX
 8
BODY
 10
0
 20
0
 30
0
 70
128
 71
104
 72
136
 73
137
 74
105
 0
VERTEX
 8
BODY
 10
0
 20
0
 30
0
 70
128
 71
136
 72
168
 73
169
 74
137
 0
VERTEX
 8
BODY
 10
0
 20
0
 30
0
 70
128
 71
168
 72
200
 73
201
 74
169
 0
VERTEX
 8
BODY
 10
0
 20
0
 30
0
 70
128
 71
200
 72
232
 73
233
 74
201
 0
VERTEX
 8
BODY
 10
0
 20
0
 30
0
 70
128
 71
232
 72
264
 73
265
 74
233
 0
VERTEX
 8
BODY
 10
0
 20
0
 30
0
 70
128
 71
264
 72
296
 73
297
 74
265
 0
VERTEX
 8
BODY
 10
0
 20
0
 30
0
 70
128
 71
296
 72
328
 73
329
 74
297
 0
VERTEX
 8
BODY
 10
0
 20
0
 30
0
 70
128
 71
328
 72
333
 73
329
 74
329
 0
VERTEX
 8
BODY
 10
0
 20
0
 30
0
 70
128
 71
1
 72
41
 73
42
 74
42
 0
VERTEX
 8
BODY
 10
0
 20
0
 30
0
 70
128
 71
41
 72
73
 73
74
 74
42
 0
VERTEX
 8
BODY
 10
0
 20
0
 30
0
 70
128
 71
73
 72
105
 73
106
 74
74
 0
VERTEX
 8
BODY
 10
0
 20
0
 30
0
 70
128
 71
105
 72
137
 73
138
 74
106
 0
VERTEX
 8
BODY
 10
0
 20
0
 30
0
 70
128
 71
137
 72
169
 73
170
 74
138
 0
VERTEX
 8
BODY
 10
0
 20
0
 30
0
 70
128
 71
169
 72
201
 73
202
 74
170
 0
VERTEX
 8
BODY
 10
0
 20
0
 30
0
 70
128
 71
201
 72
233
 73
234
 74
202
 0
VERTEX
 8
BODY
 10
0
 20
0
 30
0
 70
128
 71
233
 72
265
 73
266
 74
234
 0
VERTEX
 8
BODY
 10
0
 20
0
 30
0
 70
128
 71
265
 72
297
 73
298
 74
266
 0
VERTEX
 8
BODY
 10
0
 20
0
 30
0
 70
128
 71
297
 72
329
 73
330
 74
298
 0
VERTEX
 8
BODY
 10
0
 20
0
 30
0
 70
128
 71
329
 72
333
 73
330
 74
330
 0
VERTEX
 8
BODY
 10
0
 20
0
 30
0
 70
128
 71
1
 72
42
 73
43
 74
43
 0
VERTEX
 8
BODY
 10
0
 20
0
 30
0
 70
128
 71
42
 72
74
 73
75
 74
43
 0
VERTEX
 8
BODY
 10
0
 20
0
 30
0
 70
128
 71
74
 72
106
 73
107
 74
75
 0
VERTEX
 8
BODY
 10
0
 20
0
 30
0
 70
128
 71
106
 72
138
 73
139
 74
107
 0
VERTEX
 8
BODY
 10
0
 20
0
 30
0
 70
128
 71
138
 72
170
 73
171
 74
139
 0
VERTEX
 8
BODY
 10
0
 20
0
 30
0
 70
128
 71
170
 72
202
 73
203
 74
171
 0
VERTEX
 8
BODY
 10
0
 20
0
 30
0
 70
128
 71
202
 72
234
 73
235
 74
203
 0
VERTEX
 8
BODY
 10
0
 20
0
 30
0
 70
128
 71
234
 72
266
 73
267
 74
235
 0
VERTEX
 8
BODY
 10
0
 20
0
 30
0
 70
128
 71
266
 72
298
 73
299
 74
267
 0
VERTEX
 8
BODY
 10
0
 20
0
 30
0
 70
128
 71
298
 72
330
 73
331
 74
299
 0
VERTEX
 8
BODY
 10
0
 20
0
 30
0
 70
128
 71
330
 72
333
 73
331
 74
331
 0
VERTEX
 8
BODY
 10
0
 20
0
 30
0
 70
128
 71
1
 72
43
 73
44
 74
44
 0
VERTEX
 8
BODY
 10
0
 20
0
 30
0
 70
128
 71
43
 72
75
 73
76
 74
44
 0
VERTEX
 8
BODY
 10
0
 20
0
 30
0
 70
128
 71
75
 72
107
 73
108
 74
76
 0
VERTEX
 8
BODY
 10
0
 20
0
 30
0
 70
128
 71
107
 72
139
 73
140
 74
108
 0
VERTEX
 8
BODY
 10
0
 20
0
 30
0
 70
128
 71
139
 72
171
 73
172
 74
140
 0
VERTEX
 8
BODY
 10
0
 20
0
 30
0
 70
128
 71
171
 72
203
 73
204
 74
172
 0
VERTEX
 8
BODY
 10
0
 20
0
 30
0
 70
128
 71
203
 72
235
 73
236
 74
204
 0
VERTEX
 8
BODY
 10
0
 20
0
 30
0
 70
128
 71
235
 72
267
 73
268
 74
236
 0
VERTEX
 8
BODY
 10
0
 20
0
 30
0
 70
128
 71
267
 72
299
 73
300
 74
268
 0
VERTEX
 8
BODY
 10
0
 20
0
 30
0
 70
128
 71
299
 72
331
 73
332
 74
300
 0
VERTEX
 8
BODY
 10
0
 20
0
 30
0
 70
128
 71
331
 72
333
 73
332
 74
332
 0
VERTEX
 8
BODY
 10
0
 20
0
 30
0
 70
128
 71
1
 72
44
 73
13
 74
13
 0
VERTEX
 8
BODY
 10
0
 20
0
 30
0
 70
128
 71
44
 72
76
 73
45
 74
13
 0
VERTEX
 8
BODY
 10
0
 20
0
 30
0
 70
128
 71
76
 72
108
 73
77
 74
45
 0
VERTEX
 8
BODY
 10
0
 20
0
 30
0
 70
128
 71
108
 72
140
 73
109
 74
77
 0
VERTEX
 8
BODY
 10
0
 20
0
 30
0
 70
128
 71
140
 72
172
 73
141
 74
109
 0
VERTEX
 8
BODY
 10
0
 20
0
 30
0
 70
128
 71
172
 72
204
 73
173
 74
141
 0
VERTEX
 8
BODY
 10
0
 20
0
 30
0
 70
128
 71
204
 72
236
 73
205
 74
173
 0
VERTEX
 8
BODY
 10
0
 20
0
 30
0
 70
128
 71
236
 72
268
 73
237
 74
205
 0
VERTEX
 8
BODY
 10
0
 20
0
 30
0
 70
128
 71
268
 72
300
 73
269
 74
237
 0
VERTEX
 8
BODY
 10
0
 20
0
 30
0
 70
128
 71
300
 72
332
 73
301
 74
269
 0
VERTEX
 8
BODY
 10
0
 20
0
 30
0
 70
128
 71
332
 72
333
 73
301
 74
301
 0
VERTEX
 8
BODY
 10
0
 20
0
 30
0
 70
128
 71
333
 72
344
 73
345
 74
334
 0
VERTEX
 8
BODY
 10
0
 20
0
 30
0
 70
128
 71
344
 72
343
 73
346
 74
345
 0
VERTEX
 8
BODY
 10
0
 20
0
 30
0
 70
128
 71
343
 72
342
 73
341
 74
346
 0
VERTEX
 8
BODY
 10
0
 20
0
 30
0
 70
128
 71
334
 72
345
 73
347
 74
335
 0
VERTEX
 8
BODY
 10
0
 20
0
 30
0
 70
128
 71
345
 72
346
 73
348
 74
347
 0
VERTEX
 8
BODY
 10
0
 20
0
 30
0
 70
128
 71
346
 72
341
 73
340
 74
348
 0
VERTEX
 8
BODY
 10
0
 20
0
 30
0
 70
128
 71
335
 72
347
 73
337
 74
336
 0
VERTEX
 8
BODY
 10
0
 20
0
 30
0
 70
128
 71
347
 72
348
 73
338
 74
337
 0
VERTEX
 8
BODY
 10
0
 20
0
 30
0
 70
128
 71
348
 72
340
 73
339
 74
338
 0
VERTEX
 8
BODY
 10
0
 20
0
 30
0
 70
128
 71
1
 72
2
 73
349
 74
12
 0
VERTEX
 8
BODY
 10
0
 20
0
 30
0
 70
128
 71
496
 72
503
 73
504
 74
495
 0
VERTEX
 8
BODY
 10
0
 20
0
 30
0
 70
128
 71
11
 72
350
 73
9
 74
10
 0
VERTEX
 8
BODY
 10
0
 20
0
 30
0
 70
128
 71
2
 72
3
 73
351
 74
349
 0
VERTEX
 8
BODY
 10
0
 20
0
 30
0
 70
128
 71
349
 72
351
 73
352
 74
350
 0
VERTEX
 8
BODY
 10
0
 20
0
 30
0
 70
128
 71
350
 72
352
 73
8
 74
9
 0
VERTEX
 8
BODY
 10
0
 20
0
 30
0
 70
128
 71
3
 72
4
 73
5
 74
351
 0
VERTEX
 8
BODY
 10
0
 20
0
 30
0
 70
128
 71
493
 72
485
 73
486
 74
494
 0
VERTEX
 8
BODY
 10
0
 20
0
 30
0
 70
128
 71
352
 72
6
 73
7
 74
8
 0
VERTEX
 8
BODY
 10
0
 20
0
 30
0
 70
128
 71
118
 72
353
 73
354
 74
119
 0
VERTEX
 8
BODY
 10
0
 20
0
 30
0
 70
128
 71
119
 72
354
 73
356
 74
151
 0
VERTEX
 8
BODY
 10
0
 20
0
 30
0
 70
128
 71
150
 72
355
 73
353
 74
118
 0
VERTEX
 8
BODY
 10
0
 20
0
 30
0
 70
128
 71
151
 72
356
 73
358
 74
183
 0
VERTEX
 8
BODY
 10
0
 20
0
 30
0
 70
128
 71
182
 72
357
 73
355
 74
150
 0
VERTEX
 8
BODY
 10
0
 20
0
 30
0
 70
128
 71
183
 72
358
 73
360
 74
215
 0
VERTEX
 8
BODY
 10
0
 20
0
 30
0
 70
128
 71
214
 72
359
 73
357
 74
182
 0
VERTEX
 8
BODY
 10
0
 20
0
 30
0
 70
128
 71
215
 72
360
 73
362
 74
247
 0
VERTEX
 8
BODY
 10
0
 20
0
 30
0
 70
128
 71
246
 72
361
 73
359
 74
214
 0
VERTEX
 8
BODY
 10
0
 20
0
 30
0
 70
128
 71
247
 72
362
 73
364
 74
279
 0
VERTEX
 8
BODY
 10
0
 20
0
 30
0
 70
128
 71
279
 72
364
 73
363
 74
278
 0
VERTEX
 8
BODY
 10
0
 20
0
 30
0
 70
128
 71
278
 72
363
 73
361
 74
246
 0
VERTEX
 8
BODY
 10
0
 20
0
 30
0
 70
128
 71
134
 72
365
 73
366
 74
135
 0
VERTEX
 8
BODY
 10
0
 20
0
 30
0
 70
128
 71
135
 72
366
 73
368
 74
167
 0
VERTEX
 8
BODY
 10
0
 20
0
 30
0
 70
128
 71
166
 72
367
 73
365
 74
134
 0
VERTEX
 8
BODY
 10
0
 20
0
 30
0
 70
128
 71
167
 72
368
 73
370
 74
199
 0
VERTEX
 8
BODY
 10
0
 20
0
 30
0
 70
128
 71
198
 72
369
 73
367
 74
166
 0
VERTEX
 8
BODY
 10
0
 20
0
 30
0
 70
128
 71
199
 72
370
 73
372
 74
231
 0
VERTEX
 8
BODY
 10
0
 20
0
 30
0
 70
128
 71
230
 72
371
 73
369
 74
198
 0
VERTEX
 8
BODY
 10
0
 20
0
 30
0
 70
128
 71
231
 72
372
 73
374
 74
263
 0
VERTEX
 8
BODY
 10
0
 20
0
 30
0
 70
128
 71
262
 72
373
 73
371
 74
230
 0
VERTEX
 8
BODY
 10
0
 20
0
 30
0
 70
128
 71
263
 72
374
 73
376
 74
295
 0
VERTEX
 8
BODY
 10
0
 20
0
 30
0
 70
128
 71
295
 72
376
 73
375
 74
294
 0
VERTEX
 8
BODY
 10
0
 20
0
 30
0
 70
128
 71
294
 72
375
 73
373
 74
262
 0
VERTEX
 8
BODY
 10
0
 20
0
 30
0
 70
128
 71
353
 72
377
 73
378
 74
354
 0
VERTEX
 8
BODY
 10
0
 20
0
 30
0
 70
128
 71
354
 72
378
 73
380
 74
356
 0
VERTEX
 8
BODY
 10
0
 20
0
 30
0
 70
128
 71
355
 72
379
 73
377
 74
353
 0
VERTEX
 8
BODY
 10
0
 20
0
 30
0
 70
128
 71
356
 72
380
 73
382
 74
358
 0
VERTEX
 8
BODY
 10
0
 20
0
 30
0
 70
128
 71
357
 72
381
 73
379
 74
355
 0
VERTEX
 8
BODY
 10
0
 20
0
 30
0
 70
128
 71
358
 72
382
 73
384
 74
360
 0
VERTEX
 8
BODY
 10
0
 20
0
 30
0
 70
128
 71
359
 72
383
 73
381
 74
357
 0
VERTEX
 8
BODY
 10
0
 20
0
 30
0
 70
128
 71
360
 72
384
 73
386
 74
362
 0
VERTEX
 8
BODY
 10
0
 20
0
 30
0
 70
128
 71
361
 72
385
 73
383
 74
359
 0
VERTEX
 8
BODY
 10
0
 20
0
 30
0
 70
128
 71
362
 72
386
 73
388
 74
364
 0
VERTEX
 8
BODY
 10
0
 20
0
 30
0
 70
128
 71
364
 72
388
 73
387
 74
363
 0
VERTEX
 8
BODY
 10
0
 20
0
 30
0
 70
128
 71
363
 72
387
 73
385
 74
361
 0
VERTEX
 8
BODY
 10
0
 20
0
 30
0
 70
128
 71
365
 72
389
 73
390
 74
366
 0
VERTEX
 8
BODY
 10
0
 20
0
 30
0
 70
128
 71
366
 72
390
 73
392
 74
368
 0
VERTEX
 8
BODY
 10
0
 20
0
 30
0
 70
128
 71
367
 72
391
 73
389
 74
365
 0
VERTEX
 8
BODY
 10
0
 20
0
 30
0
 70
128
 71
368
 72
392
 73
394
 74
370
 0
VERTEX
 8
BODY
 10
0
 20
0
 30
0
 70
128
 71
369
 72
393
 73
391
 74
367
 0
VERTEX
 8
BODY
 10
0
 20
0
 30
0
 70
128
 71
370
 72
394
 73
396
 74
372
 0
VERTEX
 8
BODY
 10
0
 20
0
 30
0
 70
128
 71
371
 72
395
 73
393
 74
369
 0
VERTEX
 8
BODY
 10
0
 20
0
 30
0
 70
128
 71
372
 72
396
 73
398
 74
374
 0
VERTEX
 8
BODY
 10
0
 20
0
 30
0
 70
128
 71
373
 72
397
 73
395
 74
371
 0
VERTEX
 8
BODY
 10
0
 20
0
 30
0
 70
128
 71
374
 72
398
 73
400
 74
376
 0
VERTEX
 8
BODY
 10
0
 20
0
 30
0
 70
128
 71
376
 72
400
 73
399
 74
375
 0
VERTEX
 8
BODY
 10
0
 20
0
 30
0
 70
128
 71
375
 72
399
 73
397
 74
373
 0
VERTEX
 8
BODY
 10
0
 20
0
 30
0
 70
128
 71
377
 72
401
 73
402
 74
378
 0
VERTEX
 8
BODY
 10
0
 20
0
 30
0
 70
128
 71
378
 72
402
 73
404
 74
380
 0
VERTEX
 8
BODY
 10
0
 20
0
 30
0
 70
128
 71
379
 72
403
 73
401
 74
377
 0
VERTEX
 8
BODY
 10
0
 20
0
 30
0
 70
128
 71
380
 72
404
 73
406
 74
382
 0
VERTEX
 8
BODY
 10
0
 20
0
 30
0
 70
128
 71
381
 72
405
 73
403
 74
379
 0
VERTEX
 8
BODY
 10
0
 20
0
 30
0
 70
128
 71
382
 72
406
 73
408
 74
384
 0
VERTEX
 8
BODY
 10
0
 20
0
 30
0
 70
128
 71
383
 72
407
 73
405
 74
381
 0
VERTEX
 8
BODY
 10
0
 20
0
 30
0
 70
128
 71
384
 72
408
 73
410
 74
386
 0
VERTEX
 8
BODY
 10
0
 20
0
 30
0
 70
128
 71
385
 72
409
 73
407
 74
383
 0
VERTEX
 8
BODY
 10
0
 20
0
 30
0
 70
128
 71
386
 72
410
 73
412
 74
388
 0
VERTEX
 8
BODY
 10
0
 20
0
 30
0
 70
128
 71
388
 72
412
 73
411
 74
387
 0
VERTEX
 8
BODY
 10
0
 20
0
 30
0
 70
128
 71
387
 72
411
 73
409
 74
385
 0
VERTEX
 8
BODY
 10
0
 20
0
 30
0
 70
128
 71
389
 72
413
 73
414
 74
390
 0
VERTEX
 8
BODY
 10
0
 20
0
 30
0
 70
128
 71
390
 72
414
 73
416
 74
392
 0
VERTEX
 8
BODY
 10
0
 20
0
 30
0
 70
128
 71
391
 72
415
 73
413
 74
389
 0
VERTEX
 8
BODY
 10
0
 20
0
 30
0
 70
128
 71
392
 72
416
 73
418
 74
394
 0
VERTEX
 8
BODY
 10
0
 20
0
 30
0
 70
128
 71
393
 72
417
 73
415
 74
391
 0
VERTEX
 8
BODY
 10
0
 20
0
 30
0
 70
128
 71
394
 72
418
 73
420
 74
396
 0
VERTEX
 8
BODY
 10
0
 20
0
 30
0
 70
128
 71
395
 72
419
 73
417
 74
393
 0
VERTEX
 8
BODY
 10
0
 20
0
 30
0
 70
128
 71
396
 72
420
 73
422
 74
398
 0
VERTEX
 8
BODY
 10
0
 20
0
 30
0
 70
128
 71
397
 72
421
 73
419
 74
395
 0
VERTEX
 8
BODY
 10
0
 20
0
 30
0
 70
128
 71
398
 72
422
 73
424
 74
400
 0
VERTEX
 8
BODY
 10
0
 20
0
 30
0
 70
128
 71
400
 72
424
 73
423
 74
399
 0
VERTEX
 8
BODY
 10
0
 20
0
 30
0
 70
128
 71
399
 72
423
 73
421
 74
397
 0
VERTEX
 8
BODY
 10
0
 20
0
 30
0
 70
128
 71
6
 72
426
 73
428
 74
23
 0
VERTEX
 8
BODY
 10
0
 20
0
 30
0
 70
128
 71
22
 72
427
 73
425
 74
5
 0
VERTEX
 8
BODY
 10
0
 20
0
 30
0
 70
128
 71
23
 72
428
 73
430
 74
55
 0
VERTEX
 8
BODY
 10
0
 20
0
 30
0
 70
128
 71
54
 72
429
 73
427
 74
22
 0
VERTEX
 8
BODY
 10
0
 20
0
 30
0
 70
128
 71
55
 72
430
 73
432
 74
87
 0
VERTEX
 8
BODY
 10
0
 20
0
 30
0
 70
128
 71
87
 72
432
 73
431
 74
86
 0
VERTEX
 8
BODY
 10
0
 20
0
 30
0
 70
128
 71
86
 72
431
 73
429
 74
54
 0
VERTEX
 8
BODY
 10
0
 20
0
 30
0
 70
128
 71
351
 72
433
 73
434
 74
352
 0
VERTEX
 8
BODY
 10
0
 20
0
 30
0
 70
128
 71
352
 72
434
 73
426
 74
6
 0
VERTEX
 8
BODY
 10
0
 20
0
 30
0
 70
128
 71
5
 72
425
 73
433
 74
351
 0
VERTEX
 8
BODY
 10
0
 20
0
 30
0
 70
128
 71
12
 72
436
 73
438
 74
39
 0
VERTEX
 8
BODY
 10
0
 20
0
 30
0
 70
128
 71
38
 72
437
 73
435
 74
11
 0
VERTEX
 8
BODY
 10
0
 20
0
 30
0
 70
128
 71
39
 72
438
 73
440
 74
71
 0
VERTEX
 8
BODY
 10
0
 20
0
 30
0
 70
128
 71
70
 72
439
 73
437
 74
38
 0
VERTEX
 8
BODY
 10
0
 20
0
 30
0
 70
128
 71
71
 72
440
 73
442
 74
103
 0
VERTEX
 8
BODY
 10
0
 20
0
 30
0
 70
128
 71
103
 72
442
 73
441
 74
102
 0
VERTEX
 8
BODY
 10
0
 20
0
 30
0
 70
128
 71
102
 72
441
 73
439
 74
70
 0
VERTEX
 8
BODY
 10
0
 20
0
 30
0
 70
128
 71
11
 72
435
 73
444
 74
350
 0
VERTEX
 8
BODY
 10
0
 20
0
 30
0
 70
128
 71
350
 72
444
 73
443
 74
349
 0
VERTEX
 8
BODY
 10
0
 20
0
 30
0
 70
128
 71
349
 72
443
 73
436
 74
12
 0
VERTEX
 8
BODY
 10
0
 20
0
 30
0
 70
128
 71
426
 72
446
 73
448
 74
428
 0
VERTEX
 8
BODY
 10
0
 20
0
 30
0
 70
128
 71
427
 72
447
 73
445
 74
425
 0
VERTEX
 8
BODY
 10
0
 20
0
 30
0
 70
128
 71
428
 72
448
 73
450
 74
430
 0
VERTEX
 8
BODY
 10
0
 20
0
 30
0
 70
128
 71
429
 72
449
 73
447
 74
427
 0
VERTEX
 8
BODY
 10
0
 20
0
 30
0
 70
128
 71
430
 72
450
 73
452
 74
432
 0
VERTEX
 8
BODY
 10
0
 20
0
 30
0
 70
128
 71
432
 72
452
 73
451
 74
431
 0
VERTEX
 8
BODY
 10
0
 20
0
 30
0
 70
128
 71
431
 72
451
 73
449
 74
429
 0
VERTEX
 8
BODY
 10
0
 20
0
 30
0
 70
128
 71
433
 72
453
 73
454
 74
434
 0
VERTEX
 8
BODY
 10
0
 20
0
 30
0
 70
128
 71
434
 72
454
 73
446
 74
426
 0
VERTEX
 8
BODY
 10
0
 20
0
 30
0
 70
128
 71
425
 72
445
 73
453
 74
433
 0
VERTEX
 8
BODY
 10
0
 20
0
 30
0
 70
128
 71
436
 72
456
 73
458
 74
438
 0
VERTEX
 8
BODY
 10
0
 20
0
 30
0
 70
128
 71
437
 72
457
 73
455
 74
435
 0
VERTEX
 8
BODY
 10
0
 20
0
 30
0
 70
128
 71
438
 72
458
 73
460
 74
440
 0
VERTEX
 8
BODY
 10
0
 20
0
 30
0
 70
128
 71
439
 72
459
 73
457
 74
437
 0
VERTEX
 8
BODY
 10
0
 20
0
 30
0
 70
128
 71
440
 72
460
 73
462
 74
442
 0
VERTEX
 8
BODY
 10
0
 20
0
 30
0
 70
128
 71
442
 72
462
 73
461
 74
441
 0
VERTEX
 8
BODY
 10
0
 20
0
 30
0
 70
128
 71
441
 72
461
 73
459
 74
439
 0
VERTEX
 8
BODY
 10
0
 20
0
 30
0
 70
128
 71
435
 72
455
 73
464
 74
444
 0
VERTEX
 8
BODY
 10
0
 20
0
 30
0
 70
128
 71
444
 72
464
 73
463
 74
443
 0
VERTEX
 8
BODY
 10
0
 20
0
 30
0
 70
128
 71
443
 72
463
 73
456
 74
436
 0
VERTEX
 8
BODY
 10
0
 20
0
 30
0
 70
128
 71
446
 72
466
 73
468
 74
448
 0
VERTEX
 8
BODY
 10
0
 20
0
 30
0
 70
128
 71
447
 72
467
 73
465
 74
445
 0
VERTEX
 8
BODY
 10
0
 20
0
 30
0
 70
128
 71
448
 72
468
 73
470
 74
450
 0
VERTEX
 8
BODY
 10
0
 20
0
 30
0
 70
128
 71
449
 72
469
 73
467
 74
447
 0
VERTEX
 8
BODY
 10
0
 20
0
 30
0
 70
128
 71
450
 72
470
 73
472
 74
452
 0
VERTEX
 8
BODY
 10
0
 20
0
 30
0
 70
128
 71
452
 72
472
 73
471
 74
451
 0
VERTEX
 8
BODY
 10
0
 20
0
 30
0
 70
128
 71
451
 72
471
 73
469
 74
449
 0
VERTEX
 8
BODY
 10
0
 20
0
 30
0
 70
128
 71
453
 72
473
 73
474
 74
454
 0
VERTEX
 8
BODY
 10
0
 20
0
 30
0
 70
128
 71
454
 72
474
 73
466
 74
446
 0
VERTEX
 8
BODY
 10
0
 20
0
 30
0
 70
128
 71
445
 72
465
 73
473
 74
453
 0
VERTEX
 8
BODY
 10
0
 20
0
 30
0
 70
128
 71
456
 72
476
 73
478
 74
458
 0
VERTEX
 8
BODY
 10
0
 20
0
 30
0
 70
128
 71
457
 72
477
 73
475
 74
455
 0
VERTEX
 8
BODY
 10
0
 20
0
 30
0
 70
128
 71
458
 72
478
 73
480
 74
460
 0
VERTEX
 8
BODY
 10
0
 20
0
 30
0
 70
128
 71
459
 72
479
 73
477
 74
457
 0
VERTEX
 8
BODY
 10
0
 20
0
 30
0
 70
128
 71
460
 72
480
 73
482
 74
462
 0
VERTEX
 8
BODY
 10
0
 20
0
 30
0
 70
128
 71
462
 72
482
 73
481
 74
461
 0
VERTEX
 8
BODY
 10
0
 20
0
 30
0
 70
128
 71
461
 72
481
 73
479
 74
459
 0
VERTEX
 8
BODY
 10
0
 20
0
 30
0
 70
128
 71
455
 72
475
 73
484
 74
464
 0
VERTEX
 8
BODY
 10
0
 20
0
 30
0
 70
128
 71
464
 72
484
 73
483
 74
463
 0
VERTEX
 8
BODY
 10
0
 20
0
 30
0
 70
128
 71
463
 72
483
 73
476
 74
456
 0
VERTEX
 8
BODY
 10
0
 20
0
 30
0
 70
128
 71
466
 72
486
 73
488
 74
468
 0
VERTEX
 8
BODY
 10
0
 20
0
 30
0
 70
128
 71
467
 72
487
 73
485
 74
465
 0
VERTEX
 8
BODY
 10
0
 20
0
 30
0
 70
128
 71
468
 72
488
 73
490
 74
470
 0
VERTEX
 8
BODY
 10
0
 20
0
 30
0
 70
128
 71
469
 72
489
 73
487
 74
467
 0
VERTEX
 8
BODY
 10
0
 20
0
 30
0
 70
128
 71
470
 72
490
 73
492
 74
472
 0
VERTEX
 8
BODY
 10
0
 20
0
 30
0
 70
128
 71
472
 72
492
 73
491
 74
471
 0
VERTEX
 8
BODY
 10
0
 20
0
 30
0
 70
128
 71
471
 72
491
 73
489
 74
469
 0
VERTEX
 8
BODY
 10
0
 20
0
 30
0
 70
128
 71
473
 72
493
 73
494
 74
474
 0
VERTEX
 8
BODY
 10
0
 20
0
 30
0
 70
128
 71
474
 72
494
 73
486
 74
466
 0
VERTEX
 8
BODY
 10
0
 20
0
 30
0
 70
128
 71
465
 72
485
 73
493
 74
473
 0
VERTEX
 8
BODY
 10
0
 20
0
 30
0
 70
128
 71
476
 72
496
 73
498
 74
478
 0
VERTEX
 8
BODY
 10
0
 20
0
 30
0
 70
128
 71
477
 72
497
 73
495
 74
475
 0
VERTEX
 8
BODY
 10
0
 20
0
 30
0
 70
128
 71
478
 72
498
 73
500
 74
480
 0
VERTEX
 8
BODY
 10
0
 20
0
 30
0
 70
128
 71
479
 72
499
 73
497
 74
477
 0
VERTEX
 8
BODY
 10
0
 20
0
 30
0
 70
128
 71
480
 72
500
 73
502
 74
482
 0
VERTEX
 8
BODY
 10
0
 20
0
 30
0
 70
128
 71
482
 72
502
 73
501
 74
481
 0
VERTEX
 8
BODY
 10
0
 20
0
 30
0
 70
128
 71
481
 72
501
 73
499
 74
479
 0
VERTEX
 8
BODY
 10
0
 20
0
 30
0
 70
128
 71
475
 72
495
 73
504
 74
484
 0
VERTEX
 8
BODY
 10
0
 20
0
 30
0
 70
128
 71
484
 72
504
 73
503
 74
483
 0
VERTEX
 8
BODY
 10
0
 20
0
 30
0
 70
128
 71
483
 72
503
 73
496
 74
476
 0
SEQEND
 0
ENDSEC
 0
EOF
